<?xml version="1.0" encoding="UTF-8"?>
<svg xmlns="http://www.w3.org/2000/svg" xmlns:xlink="http://www.w3.org/1999/xlink" width="150px" height="px" viewBox="0 0 150 150" version="1.1">
<defs>
<filter id="alpha" filterUnits="objectBoundingBox" x="0%" y="0%" width="100%" height="100%">
  <feColorMatrix type="matrix" in="SourceGraphic" values="0 0 0 0 1 0 0 0 0 1 0 0 0 0 1 0 0 0 1 0"/>
</filter>
<mask id="mask0">
  <g filter="url(#alpha)">
<rect x="0" y="0" width="150" height="150" style="fill:rgb(0%,0%,0%);fill-opacity:0.831373;stroke:none;"/>
  </g>
</mask>
<clipPath id="clip1">
  <rect x="0" y="0" width="150" height="150"/>
</clipPath>
<g id="surface5" clip-path="url(#clip1)">
<path style=" stroke:none;fill-rule:evenodd;fill:rgb(93.333333%,93.333333%,95.294118%);fill-opacity:1;" d="M 114.625 24.375 C 97.140625 23 79.640625 22.789062 62.125 23.75 C 57.863281 24.152344 53.613281 24.652344 49.375 25.25 C 48.714844 25.574219 48.046875 25.90625 47.375 26.25 C 46.964844 26.53125 46.714844 26.90625 46.625 27.375 C 42.789062 27.359375 38.957031 27.441406 35.125 27.625 C 48.976562 14.050781 65.558594 8.757812 84.875 11.75 C 95.988281 13.324219 105.902344 17.53125 114.625 24.375 Z M 114.625 24.375 "/>
</g>
<mask id="mask1">
  <g filter="url(#alpha)">
<rect x="0" y="0" width="150" height="150" style="fill:rgb(0%,0%,0%);fill-opacity:0.839216;stroke:none;"/>
  </g>
</mask>
<clipPath id="clip2">
  <rect x="0" y="0" width="150" height="150"/>
</clipPath>
<g id="surface8" clip-path="url(#clip2)">
<path style=" stroke:none;fill-rule:evenodd;fill:rgb(53.333333%,54.509804%,56.078431%);fill-opacity:1;" d="M 114.625 24.375 C 118.136719 24.613281 121.636719 24.988281 125.125 25.5 C 127.605469 26.3125 128.980469 28.019531 129.25 30.625 C 129.582031 34.453125 129.789062 38.285156 129.875 42.125 C 129.261719 54.179688 127.886719 66.179688 125.75 78.125 C 125.046875 79.914062 123.757812 81.039062 121.875 81.5 C 118.710938 81.625 115.542969 81.667969 112.375 81.625 C 112.765625 76.945312 112.640625 72.28125 112 67.625 C 111.328125 66.328125 110.367188 65.328125 109.125 64.625 C 111.070312 64.59375 112.988281 64.386719 114.875 64 C 116.3125 62.464844 116.148438 61.132812 114.375 60 C 109.042969 60.03125 103.707031 60.15625 98.375 60.375 C 98.339844 57.824219 98.503906 55.324219 98.875 52.875 C 104.050781 52.847656 109.214844 52.636719 114.375 52.25 C 115.605469 51.566406 116.0625 50.523438 115.75 49.125 C 115.363281 48.65625 114.90625 48.28125 114.375 48 C 109.207031 47.972656 104.039062 48.097656 98.875 48.375 C 98.875 45.792969 98.875 43.207031 98.875 40.625 C 104.292969 40.355469 109.710938 40.316406 115.125 40.5 C 116.898438 39.367188 117.0625 38.035156 115.625 36.5 C 115.125 36.332031 114.625 36.167969 114.125 36 C 108.957031 35.839844 103.789062 35.882812 98.625 36.125 C 98.417969 33.253906 97 31.210938 94.375 30 C 78.519531 28.042969 62.601562 27.167969 46.625 27.375 C 46.714844 26.90625 46.964844 26.53125 47.375 26.25 C 48.046875 25.90625 48.714844 25.574219 49.375 25.25 C 53.613281 24.652344 57.863281 24.152344 62.125 23.75 C 79.640625 22.789062 97.140625 23 114.625 24.375 Z M 114.625 24.375 "/>
</g>
<mask id="mask2">
  <g filter="url(#alpha)">
<rect x="0" y="0" width="150" height="150" style="fill:rgb(0%,0%,0%);fill-opacity:0.839216;stroke:none;"/>
  </g>
</mask>
<clipPath id="clip3">
  <rect x="0" y="0" width="150" height="150"/>
</clipPath>
<g id="surface11" clip-path="url(#clip3)">
<path style=" stroke:none;fill-rule:evenodd;fill:rgb(94.901961%,82.352941%,24.705882%);fill-opacity:1;" d="M 46.625 27.375 C 62.601562 27.167969 78.519531 28.042969 94.375 30 C 97 31.210938 98.417969 33.253906 98.625 36.125 C 98.648438 37.628906 98.730469 39.128906 98.875 40.625 C 98.875 43.207031 98.875 45.792969 98.875 48.375 C 98.875 49.875 98.875 51.375 98.875 52.875 C 98.503906 55.324219 98.339844 57.824219 98.375 60.375 C 98.027344 61.398438 97.859375 62.480469 97.875 63.625 C 97.183594 70.40625 96.269531 77.15625 95.125 83.875 C 94.828125 85.054688 94.328125 86.136719 93.625 87.125 C 91.910156 88.613281 89.910156 89.195312 87.625 88.875 C 70.210938 88.175781 52.796875 87.589844 35.375 87.125 C 30.085938 86.773438 24.75 86.484375 19.375 86.25 C 17.007812 85.464844 15.632812 83.839844 15.25 81.375 C 14.804688 76.242188 14.261719 71.160156 13.625 66.125 C 12.386719 55.3125 11.425781 44.480469 10.75 33.625 C 11.402344 31.390625 12.859375 30.015625 15.125 29.5 C 21.757812 28.523438 28.425781 27.898438 35.125 27.625 C 38.957031 27.441406 42.789062 27.359375 46.625 27.375 Z M 46.625 27.375 "/>
</g>
<mask id="mask3">
  <g filter="url(#alpha)">
<rect x="0" y="0" width="150" height="150" style="fill:rgb(0%,0%,0%);fill-opacity:0.839216;stroke:none;"/>
  </g>
</mask>
<clipPath id="clip4">
  <rect x="0" y="0" width="150" height="150"/>
</clipPath>
<g id="surface14" clip-path="url(#clip4)">
<path style=" stroke:none;fill-rule:evenodd;fill:rgb(83.921569%,84.313725%,87.058824%);fill-opacity:1;" d="M 98.875 40.625 C 98.730469 39.128906 98.648438 37.628906 98.625 36.125 C 103.789062 35.882812 108.957031 35.839844 114.125 36 C 114.625 36.167969 115.125 36.332031 115.625 36.5 C 117.0625 38.035156 116.898438 39.367188 115.125 40.5 C 109.710938 40.316406 104.292969 40.355469 98.875 40.625 Z M 98.875 40.625 "/>
</g>
<mask id="mask4">
  <g filter="url(#alpha)">
<rect x="0" y="0" width="150" height="150" style="fill:rgb(0%,0%,0%);fill-opacity:0.839216;stroke:none;"/>
  </g>
</mask>
<clipPath id="clip5">
  <rect x="0" y="0" width="150" height="150"/>
</clipPath>
<g id="surface17" clip-path="url(#clip5)">
<path style=" stroke:none;fill-rule:evenodd;fill:rgb(99.607843%,99.607843%,98.823529%);fill-opacity:1;" d="M 67.375 40.875 C 72.625 40.832031 77.875 40.875 83.125 41 C 85.101562 41.652344 85.644531 42.941406 84.75 44.875 C 84.28125 45.503906 83.65625 45.839844 82.875 45.875 C 76.460938 45.589844 70.046875 45.546875 63.625 45.75 C 51.402344 46.363281 39.195312 47.15625 27 48.125 C 24.863281 47.308594 24.402344 45.933594 25.625 44 C 26.285156 43.511719 27.035156 43.261719 27.875 43.25 C 41.074219 42.304688 54.238281 41.511719 67.375 40.875 Z M 67.375 40.875 "/>
</g>
<mask id="mask5">
  <g filter="url(#alpha)">
<rect x="0" y="0" width="150" height="150" style="fill:rgb(0%,0%,0%);fill-opacity:0.835294;stroke:none;"/>
  </g>
</mask>
<clipPath id="clip6">
  <rect x="0" y="0" width="150" height="150"/>
</clipPath>
<g id="surface20" clip-path="url(#clip6)">
<path style=" stroke:none;fill-rule:evenodd;fill:rgb(93.333333%,93.333333%,95.294118%);fill-opacity:1;" d="M 129.875 42.125 C 139.902344 61.988281 141.195312 82.40625 133.75 103.375 C 131.304688 109.191406 127.929688 114.355469 123.625 118.875 C 123.171875 118.476562 122.839844 117.976562 122.625 117.375 C 123.515625 115.511719 124.472656 113.675781 125.5 111.875 C 125.667969 111.292969 125.667969 110.707031 125.5 110.125 C 125.175781 109.753906 124.757812 109.589844 124.25 109.625 C 122.199219 110.023438 120.160156 110.441406 118.125 110.875 C 116.339844 109.546875 114.753906 108.003906 113.375 106.25 C 112.171875 105.707031 111.378906 106.082031 111 107.375 C 110.617188 109.214844 110.199219 111.050781 109.75 112.875 C 109.445312 113.261719 109.070312 113.554688 108.625 113.75 C 106.894531 114.464844 105.144531 115.132812 103.375 115.75 C 102.707031 116.582031 102.707031 117.417969 103.375 118.25 C 105.023438 119.304688 106.730469 120.261719 108.5 121.125 C 108.9375 123.425781 109.1875 125.761719 109.25 128.125 C 109.527344 128.488281 109.816406 128.820312 110.125 129.125 C 97.617188 135.378906 84.367188 137.917969 70.375 136.75 C 61.875 135.734375 53.457031 134.234375 45.125 132.25 C 39.453125 130.789062 34.285156 128.328125 29.625 124.875 C 30.742188 124.480469 31.90625 124.273438 33.125 124.25 C 34.921875 125.605469 36.671875 127.023438 38.375 128.5 C 39.378906 129.089844 40.253906 128.964844 41 128.125 C 41.082031 126.042969 41.167969 123.957031 41.25 121.875 C 41.542969 121.417969 41.917969 121.042969 42.375 120.75 C 44.167969 119.917969 45.792969 118.878906 47.25 117.625 C 47.445312 116.9375 47.320312 116.3125 46.875 115.75 C 44.582031 115.125 42.457031 114.167969 40.5 112.875 C 40.003906 111.0625 39.589844 109.226562 39.25 107.375 C 38.871094 106.082031 38.078125 105.707031 36.875 106.25 C 35.496094 108.003906 33.910156 109.546875 32.125 110.875 C 30.089844 110.4375 28.046875 110.023438 26 109.625 C 25.492188 109.589844 25.074219 109.753906 24.75 110.125 C 24.582031 110.707031 24.582031 111.292969 24.75 111.875 C 25.828125 113.613281 26.703125 115.449219 27.375 117.375 C 27.027344 118.816406 26.363281 120.066406 25.375 121.125 C 17.683594 112.359375 13.308594 102.109375 12.25 90.375 C 11.75 84.875 11.75 79.375 12.25 73.875 C 12.496094 71.21875 12.957031 68.636719 13.625 66.125 C 14.261719 71.160156 14.804688 76.242188 15.25 81.375 C 15.632812 83.839844 17.007812 85.464844 19.375 86.25 C 24.75 86.484375 30.085938 86.773438 35.375 87.125 C 35.957031 92.292969 36.582031 97.460938 37.25 102.625 C 37.667969 104.210938 38.628906 105.335938 40.125 106 C 61.777344 107.011719 83.441406 107.675781 105.125 108 C 106.992188 107.632812 108.28125 106.59375 109 104.875 C 110.652344 97.195312 111.777344 89.445312 112.375 81.625 C 115.542969 81.667969 118.710938 81.625 121.875 81.5 C 123.757812 81.039062 125.046875 79.914062 125.75 78.125 C 127.886719 66.179688 129.261719 54.179688 129.875 42.125 Z M 129.875 42.125 "/>
</g>
<mask id="mask6">
  <g filter="url(#alpha)">
<rect x="0" y="0" width="150" height="150" style="fill:rgb(0%,0%,0%);fill-opacity:0.839216;stroke:none;"/>
  </g>
</mask>
<clipPath id="clip7">
  <rect x="0" y="0" width="150" height="150"/>
</clipPath>
<g id="surface23" clip-path="url(#clip7)">
<path style=" stroke:none;fill-rule:evenodd;fill:rgb(83.529412%,84.313725%,87.058824%);fill-opacity:1;" d="M 98.875 52.875 C 98.875 51.375 98.875 49.875 98.875 48.375 C 104.039062 48.097656 109.207031 47.972656 114.375 48 C 114.90625 48.28125 115.363281 48.65625 115.75 49.125 C 116.0625 50.523438 115.605469 51.566406 114.375 52.25 C 109.214844 52.636719 104.050781 52.847656 98.875 52.875 Z M 98.875 52.875 "/>
</g>
<mask id="mask7">
  <g filter="url(#alpha)">
<rect x="0" y="0" width="150" height="150" style="fill:rgb(0%,0%,0%);fill-opacity:0.839216;stroke:none;"/>
  </g>
</mask>
<clipPath id="clip8">
  <rect x="0" y="0" width="150" height="150"/>
</clipPath>
<g id="surface26" clip-path="url(#clip8)">
<path style=" stroke:none;fill-rule:evenodd;fill:rgb(99.607843%,99.607843%,98.431373%);fill-opacity:1;" d="M 65.375 53.375 C 67.902344 53.261719 70.402344 53.386719 72.875 53.75 C 74.355469 55.445312 74.105469 56.863281 72.125 58 C 57.707031 58.613281 43.289062 59.238281 28.875 59.875 C 26.152344 59.949219 25.195312 58.699219 26 56.125 C 26.304688 55.738281 26.679688 55.445312 27.125 55.25 C 39.914062 54.617188 52.664062 53.992188 65.375 53.375 Z M 65.375 53.375 "/>
</g>
<mask id="mask8">
  <g filter="url(#alpha)">
<rect x="0" y="0" width="150" height="150" style="fill:rgb(0%,0%,0%);fill-opacity:0.839216;stroke:none;"/>
  </g>
</mask>
<clipPath id="clip9">
  <rect x="0" y="0" width="150" height="150"/>
</clipPath>
<g id="surface29" clip-path="url(#clip9)">
<path style=" stroke:none;fill-rule:evenodd;fill:rgb(83.137255%,83.921569%,86.666667%);fill-opacity:1;" d="M 109.125 64.625 C 105.382812 64.179688 101.632812 63.847656 97.875 63.625 C 97.859375 62.480469 98.027344 61.398438 98.375 60.375 C 103.707031 60.15625 109.042969 60.03125 114.375 60 C 116.148438 61.132812 116.3125 62.464844 114.875 64 C 112.988281 64.386719 111.070312 64.59375 109.125 64.625 Z M 109.125 64.625 "/>
</g>
<mask id="mask9">
  <g filter="url(#alpha)">
<rect x="0" y="0" width="150" height="150" style="fill:rgb(0%,0%,0%);fill-opacity:0.839216;stroke:none;"/>
  </g>
</mask>
<clipPath id="clip10">
  <rect x="0" y="0" width="150" height="150"/>
</clipPath>
<g id="surface32" clip-path="url(#clip10)">
<path style=" stroke:none;fill-rule:evenodd;fill:rgb(28.627451%,29.019608%,29.803922%);fill-opacity:1;" d="M 97.875 63.625 C 101.632812 63.847656 105.382812 64.179688 109.125 64.625 C 110.367188 65.328125 111.328125 66.328125 112 67.625 C 112.640625 72.28125 112.765625 76.945312 112.375 81.625 C 111.777344 89.445312 110.652344 97.195312 109 104.875 C 108.28125 106.59375 106.992188 107.632812 105.125 108 C 83.441406 107.675781 61.777344 107.011719 40.125 106 C 38.628906 105.335938 37.667969 104.210938 37.25 102.625 C 36.582031 97.460938 35.957031 92.292969 35.375 87.125 C 52.796875 87.589844 70.210938 88.175781 87.625 88.875 C 89.910156 89.195312 91.910156 88.613281 93.625 87.125 C 97.230469 87.351562 100.8125 87.765625 104.375 88.375 C 105.964844 88.242188 106.507812 87.40625 106 85.875 C 105.792969 85.667969 105.582031 85.457031 105.375 85.25 C 101.988281 84.546875 98.570312 84.089844 95.125 83.875 C 96.269531 77.15625 97.183594 70.40625 97.875 63.625 Z M 97.875 63.625 "/>
</g>
<mask id="mask10">
  <g filter="url(#alpha)">
<rect x="0" y="0" width="150" height="150" style="fill:rgb(0%,0%,0%);fill-opacity:0.839216;stroke:none;"/>
  </g>
</mask>
<clipPath id="clip11">
  <rect x="0" y="0" width="150" height="150"/>
</clipPath>
<g id="surface35" clip-path="url(#clip11)">
<path style=" stroke:none;fill-rule:evenodd;fill:rgb(99.607843%,99.215686%,98.039216%);fill-opacity:1;" d="M 42.125 64.625 C 44.210938 64.582031 46.292969 64.625 48.375 64.75 C 49.871094 65.285156 50.414062 66.328125 50 67.875 C 49.707031 68.5 49.25 68.957031 48.625 69.25 C 41.632812 69.65625 34.632812 69.820312 27.625 69.75 C 26.453125 69.03125 25.996094 67.988281 26.25 66.625 C 26.542969 66 27 65.542969 27.625 65.25 C 32.496094 65 37.328125 64.792969 42.125 64.625 Z M 42.125 64.625 "/>
</g>
<mask id="mask11">
  <g filter="url(#alpha)">
<rect x="0" y="0" width="150" height="150" style="fill:rgb(0%,0%,0%);fill-opacity:0.839216;stroke:none;"/>
  </g>
</mask>
<clipPath id="clip12">
  <rect x="0" y="0" width="150" height="150"/>
</clipPath>
<g id="surface38" clip-path="url(#clip12)">
<path style=" stroke:none;fill-rule:evenodd;fill:rgb(76.470588%,77.647059%,81.176471%);fill-opacity:1;" d="M 95.125 83.875 C 98.570312 84.089844 101.988281 84.546875 105.375 85.25 C 105.582031 85.457031 105.792969 85.667969 106 85.875 C 106.507812 87.40625 105.964844 88.242188 104.375 88.375 C 100.8125 87.765625 97.230469 87.351562 93.625 87.125 C 94.328125 86.136719 94.828125 85.054688 95.125 83.875 Z M 95.125 83.875 "/>
</g>
<mask id="mask12">
  <g filter="url(#alpha)">
<rect x="0" y="0" width="150" height="150" style="fill:rgb(0%,0%,0%);fill-opacity:0.839216;stroke:none;"/>
  </g>
</mask>
<clipPath id="clip13">
  <rect x="0" y="0" width="150" height="150"/>
</clipPath>
<g id="surface41" clip-path="url(#clip13)">
<path style=" stroke:none;fill-rule:evenodd;fill:rgb(76.862745%,78.039216%,81.568627%);fill-opacity:1;" d="M 45.875 89.875 C 61.140625 89.644531 76.390625 90.019531 91.625 91 C 95.800781 91.417969 99.96875 91.917969 104.125 92.5 C 106.257812 92.929688 106.675781 94.015625 105.375 95.75 C 102.277344 95.617188 99.195312 95.285156 96.125 94.75 C 79.402344 93.484375 62.652344 92.898438 45.875 93 C 44.554688 91.972656 44.554688 90.929688 45.875 89.875 Z M 45.875 89.875 "/>
</g>
<mask id="mask13">
  <g filter="url(#alpha)">
<rect x="0" y="0" width="150" height="150" style="fill:rgb(0%,0%,0%);fill-opacity:0.839216;stroke:none;"/>
  </g>
</mask>
<clipPath id="clip14">
  <rect x="0" y="0" width="150" height="150"/>
</clipPath>
<g id="surface44" clip-path="url(#clip14)">
<path style=" stroke:none;fill-rule:evenodd;fill:rgb(76.078431%,77.254902%,81.176471%);fill-opacity:1;" d="M 48.125 96.125 C 57.808594 96.109375 67.472656 96.484375 77.125 97.25 C 81.179688 97.59375 85.179688 98.261719 89.125 99.25 C 90.609375 100.707031 90.359375 101.746094 88.375 102.375 C 82.1875 101.09375 75.9375 100.300781 69.625 100 C 61.710938 99.734375 53.792969 99.570312 45.875 99.5 C 44.839844 98.820312 44.628906 97.945312 45.25 96.875 C 46.199219 96.507812 47.160156 96.257812 48.125 96.125 Z M 48.125 96.125 "/>
</g>
<mask id="mask14">
  <g filter="url(#alpha)">
<rect x="0" y="0" width="150" height="150" style="fill:rgb(0%,0%,0%);fill-opacity:0.839216;stroke:none;"/>
  </g>
</mask>
<clipPath id="clip15">
  <rect x="0" y="0" width="150" height="150"/>
</clipPath>
<g id="surface47" clip-path="url(#clip15)">
<path style=" stroke:none;fill-rule:evenodd;fill:rgb(96.862745%,96.470588%,95.686275%);fill-opacity:1;" d="M 29.625 124.875 C 28.617188 124.875 27.617188 124.960938 26.625 125.125 C 25.304688 125.179688 24.554688 124.554688 24.375 123.25 C 24.679688 122.511719 25.015625 121.804688 25.375 121.125 C 26.363281 120.066406 27.027344 118.816406 27.375 117.375 C 26.703125 115.449219 25.828125 113.613281 24.75 111.875 C 24.582031 111.292969 24.582031 110.707031 24.75 110.125 C 25.074219 109.753906 25.492188 109.589844 26 109.625 C 28.046875 110.023438 30.089844 110.4375 32.125 110.875 C 33.910156 109.546875 35.496094 108.003906 36.875 106.25 C 38.078125 105.707031 38.871094 106.082031 39.25 107.375 C 39.589844 109.226562 40.003906 111.0625 40.5 112.875 C 42.457031 114.167969 44.582031 115.125 46.875 115.75 C 47.320312 116.3125 47.445312 116.9375 47.25 117.625 C 45.792969 118.878906 44.167969 119.917969 42.375 120.75 C 41.917969 121.042969 41.542969 121.417969 41.25 121.875 C 41.167969 123.957031 41.082031 126.042969 41 128.125 C 40.253906 128.964844 39.378906 129.089844 38.375 128.5 C 36.671875 127.023438 34.921875 125.605469 33.125 124.25 C 31.90625 124.273438 30.742188 124.480469 29.625 124.875 Z M 29.625 124.875 "/>
</g>
<mask id="mask15">
  <g filter="url(#alpha)">
<rect x="0" y="0" width="150" height="150" style="fill:rgb(0%,0%,0%);fill-opacity:0.839216;stroke:none;"/>
  </g>
</mask>
<clipPath id="clip16">
  <rect x="0" y="0" width="150" height="150"/>
</clipPath>
<g id="surface50" clip-path="url(#clip16)">
<path style=" stroke:none;fill-rule:evenodd;fill:rgb(97.254902%,96.862745%,96.470588%);fill-opacity:1;" d="M 123.625 118.875 C 124.375 120.171875 125.085938 121.507812 125.75 122.875 C 125.875 124.375 125.167969 125.125 123.625 125.125 C 121.546875 124.769531 119.464844 124.5625 117.375 124.5 C 115.554688 125.738281 113.804688 127.070312 112.125 128.5 C 111.523438 128.925781 110.855469 129.136719 110.125 129.125 C 109.816406 128.820312 109.527344 128.488281 109.25 128.125 C 109.1875 125.761719 108.9375 123.425781 108.5 121.125 C 106.730469 120.261719 105.023438 119.304688 103.375 118.25 C 102.707031 117.417969 102.707031 116.582031 103.375 115.75 C 105.144531 115.132812 106.894531 114.464844 108.625 113.75 C 109.070312 113.554688 109.445312 113.261719 109.75 112.875 C 110.199219 111.050781 110.617188 109.214844 111 107.375 C 111.378906 106.082031 112.171875 105.707031 113.375 106.25 C 114.753906 108.003906 116.339844 109.546875 118.125 110.875 C 120.160156 110.441406 122.199219 110.023438 124.25 109.625 C 124.757812 109.589844 125.175781 109.753906 125.5 110.125 C 125.667969 110.707031 125.667969 111.292969 125.5 111.875 C 124.472656 113.675781 123.515625 115.511719 122.625 117.375 C 122.839844 117.976562 123.171875 118.476562 123.625 118.875 Z M 123.625 118.875 "/>
</g>
<mask id="mask16">
  <g filter="url(#alpha)">
<rect x="0" y="0" width="150" height="150" style="fill:rgb(0%,0%,0%);fill-opacity:0.839216;stroke:none;"/>
  </g>
</mask>
<clipPath id="clip17">
  <rect x="0" y="0" width="150" height="150"/>
</clipPath>
<g id="surface53" clip-path="url(#clip17)">
<path style=" stroke:none;fill-rule:evenodd;fill:rgb(95.294118%,82.745098%,26.27451%);fill-opacity:1;" d="M 37.375 106.875 C 37.976562 106.785156 38.351562 107.035156 38.5 107.625 C 38.835938 109.5625 39.253906 111.476562 39.75 113.375 C 40.140625 113.839844 40.597656 114.214844 41.125 114.5 C 42.855469 115.214844 44.605469 115.882812 46.375 116.5 C 46.707031 116.832031 46.707031 117.167969 46.375 117.5 C 44.585938 118.4375 42.835938 119.4375 41.125 120.5 C 40.945312 120.8125 40.738281 121.105469 40.5 121.375 C 40.28125 123.539062 40.074219 125.707031 39.875 127.875 C 39.726562 127.925781 39.601562 128.011719 39.5 128.125 C 37.609375 126.492188 35.652344 124.953125 33.625 123.5 C 31.277344 123.460938 28.941406 123.667969 26.625 124.125 C 26.011719 124.222656 25.679688 123.972656 25.625 123.375 C 26.347656 121.84375 27.140625 120.34375 28 118.875 C 28.203125 118.394531 28.328125 117.894531 28.375 117.375 C 27.621094 115.28125 26.660156 113.28125 25.5 111.375 C 25.285156 110.847656 25.453125 110.515625 26 110.375 C 28.25 111.0625 30.539062 111.4375 32.875 111.5 C 34.59375 110.15625 36.09375 108.613281 37.375 106.875 Z M 37.375 106.875 "/>
</g>
<mask id="mask17">
  <g filter="url(#alpha)">
<rect x="0" y="0" width="150" height="150" style="fill:rgb(0%,0%,0%);fill-opacity:0.839216;stroke:none;"/>
  </g>
</mask>
<clipPath id="clip18">
  <rect x="0" y="0" width="150" height="150"/>
</clipPath>
<g id="surface56" clip-path="url(#clip18)">
<path style=" stroke:none;fill-rule:evenodd;fill:rgb(95.294118%,82.745098%,26.27451%);fill-opacity:1;" d="M 112.125 106.875 C 112.386719 106.835938 112.636719 106.878906 112.875 107 C 114.207031 108.667969 115.707031 110.167969 117.375 111.5 C 119.65625 111.371094 121.90625 110.996094 124.125 110.375 C 124.769531 110.4375 124.980469 110.769531 124.75 111.375 C 123.582031 113.292969 122.625 115.292969 121.875 117.375 C 121.917969 117.707031 121.957031 118.042969 122 118.375 C 122.941406 120.011719 123.816406 121.679688 124.625 123.375 C 124.523438 123.988281 124.148438 124.238281 123.5 124.125 C 121.214844 123.75 118.925781 123.542969 116.625 123.5 C 114.589844 124.992188 112.589844 126.535156 110.625 128.125 C 110.476562 128.074219 110.351562 127.988281 110.25 127.875 C 110.039062 125.710938 109.871094 123.546875 109.75 121.375 C 107.949219 119.871094 105.992188 118.578125 103.875 117.5 C 103.542969 117.167969 103.542969 116.832031 103.875 116.5 C 105.375 115.917969 106.875 115.332031 108.375 114.75 C 109.191406 114.445312 109.898438 113.988281 110.5 113.375 C 111.027344 111.195312 111.570312 109.027344 112.125 106.875 Z M 112.125 106.875 "/>
</g>
<mask id="mask18">
  <g filter="url(#alpha)">
<rect x="0" y="0" width="150" height="150" style="fill:rgb(0%,0%,0%);fill-opacity:0.839216;stroke:none;"/>
  </g>
</mask>
<clipPath id="clip19">
  <rect x="0" y="0" width="150" height="150"/>
</clipPath>
<g id="surface59" clip-path="url(#clip19)">
<path style=" stroke:none;fill-rule:evenodd;fill:rgb(98.823529%,94.901961%,78.431373%);fill-opacity:1;" d="M 38.875 113.625 C 38.390625 112.257812 37.890625 110.882812 37.375 109.5 C 36.28125 109.753906 35.445312 110.421875 34.875 111.5 C 34.726562 111.617188 34.558594 111.65625 34.375 111.625 C 34.894531 110.726562 35.5625 109.9375 36.375 109.25 C 37.292969 108.933594 37.917969 109.222656 38.25 110.125 C 38.441406 111.296875 38.652344 112.464844 38.875 113.625 Z M 38.875 113.625 "/>
</g>
<mask id="mask19">
  <g filter="url(#alpha)">
<rect x="0" y="0" width="150" height="150" style="fill:rgb(0%,0%,0%);fill-opacity:0.839216;stroke:none;"/>
  </g>
</mask>
<clipPath id="clip20">
  <rect x="0" y="0" width="150" height="150"/>
</clipPath>
<g id="surface62" clip-path="url(#clip20)">
<path style=" stroke:none;fill-rule:evenodd;fill:rgb(96.470588%,96.078431%,95.686275%);fill-opacity:1;" d="M 61.875 110.875 C 62.589844 110.765625 63.214844 110.929688 63.75 111.375 C 64.421875 113.566406 65.382812 115.609375 66.625 117.5 C 68.703125 117.945312 70.785156 118.359375 72.875 118.75 C 73.574219 119.300781 73.78125 120.011719 73.5 120.875 C 71.917969 122.292969 70.332031 123.707031 68.75 125.125 C 68.710938 127.226562 68.917969 129.308594 69.375 131.375 C 69.253906 132.769531 68.503906 133.3125 67.125 133 C 65.113281 131.742188 63.027344 130.617188 60.875 129.625 C 59.015625 130.175781 57.183594 130.800781 55.375 131.5 C 53.164062 132.089844 52.289062 131.300781 52.75 129.125 C 53.289062 127.503906 53.832031 125.878906 54.375 124.25 C 53.09375 122.3125 51.71875 120.4375 50.25 118.625 C 50.035156 117.761719 50.328125 117.136719 51.125 116.75 C 53.375 116.667969 55.625 116.582031 57.875 116.5 C 59.304688 114.683594 60.636719 112.808594 61.875 110.875 Z M 61.875 110.875 "/>
</g>
<mask id="mask20">
  <g filter="url(#alpha)">
<rect x="0" y="0" width="150" height="150" style="fill:rgb(0%,0%,0%);fill-opacity:0.839216;stroke:none;"/>
  </g>
</mask>
<clipPath id="clip21">
  <rect x="0" y="0" width="150" height="150"/>
</clipPath>
<g id="surface65" clip-path="url(#clip21)">
<path style=" stroke:none;fill-rule:evenodd;fill:rgb(96.470588%,96.078431%,95.686275%);fill-opacity:1;" d="M 86.875 110.875 C 87.742188 110.71875 88.449219 110.96875 89 111.625 C 89.917969 113.292969 90.960938 114.878906 92.125 116.375 C 94.445312 116.578125 96.78125 116.703125 99.125 116.75 C 99.601562 117.101562 99.9375 117.5625 100.125 118.125 C 98.65625 120.132812 97.238281 122.175781 95.875 124.25 C 96.472656 126.277344 97.136719 128.277344 97.875 130.25 C 97.710938 131.078125 97.210938 131.578125 96.375 131.75 C 94.042969 131.25 91.75 130.542969 89.5 129.625 C 87.191406 130.683594 84.941406 131.847656 82.75 133.125 C 82.019531 133.023438 81.433594 132.6875 81 132.125 C 81.261719 129.804688 81.425781 127.46875 81.5 125.125 C 79.917969 123.707031 78.332031 122.292969 76.75 120.875 C 76.46875 120.011719 76.675781 119.300781 77.375 118.75 C 79.464844 118.359375 81.546875 117.945312 83.625 117.5 C 84.011719 117.195312 84.304688 116.820312 84.5 116.375 C 85.171875 114.472656 85.964844 112.640625 86.875 110.875 Z M 86.875 110.875 "/>
</g>
<mask id="mask21">
  <g filter="url(#alpha)">
<rect x="0" y="0" width="150" height="150" style="fill:rgb(0%,0%,0%);fill-opacity:0.839216;stroke:none;"/>
  </g>
</mask>
<clipPath id="clip22">
  <rect x="0" y="0" width="150" height="150"/>
</clipPath>
<g id="surface68" clip-path="url(#clip22)">
<path style=" stroke:none;fill-rule:evenodd;fill:rgb(98.823529%,94.509804%,78.431373%);fill-opacity:1;" d="M 115.125 110.875 C 114.59375 110.46875 114.09375 110.011719 113.625 109.5 C 113.375 109.332031 113.125 109.332031 112.875 109.5 C 112.289062 110.625 111.914062 111.832031 111.75 113.125 C 111.574219 113.644531 111.285156 114.0625 110.875 114.375 C 111.351562 112.617188 111.933594 110.910156 112.625 109.25 C 113.871094 109.117188 114.703125 109.65625 115.125 110.875 Z M 115.125 110.875 "/>
</g>
<mask id="mask22">
  <g filter="url(#alpha)">
<rect x="0" y="0" width="150" height="150" style="fill:rgb(0%,0%,0%);fill-opacity:0.839216;stroke:none;"/>
  </g>
</mask>
<clipPath id="clip23">
  <rect x="0" y="0" width="150" height="150"/>
</clipPath>
<g id="surface71" clip-path="url(#clip23)">
<path style=" stroke:none;fill-rule:evenodd;fill:rgb(98.823529%,95.294118%,80.784314%);fill-opacity:1;" d="M 34.375 111.625 C 33.820312 112.464844 33.03125 112.796875 32 112.625 C 30.617188 112.480469 29.242188 112.273438 27.875 112 C 28.027344 111.78125 28.234375 111.65625 28.5 111.625 C 30.496094 112.527344 32.453125 112.527344 34.375 111.625 Z M 34.375 111.625 "/>
</g>
<mask id="mask23">
  <g filter="url(#alpha)">
<rect x="0" y="0" width="150" height="150" style="fill:rgb(0%,0%,0%);fill-opacity:0.839216;stroke:none;"/>
  </g>
</mask>
<clipPath id="clip24">
  <rect x="0" y="0" width="150" height="150"/>
</clipPath>
<g id="surface74" clip-path="url(#clip24)">
<path style=" stroke:none;fill-rule:evenodd;fill:rgb(95.294118%,82.745098%,26.27451%);fill-opacity:1;" d="M 62.375 111.625 C 62.625 111.601562 62.832031 111.6875 63 111.875 C 63.796875 113.6875 64.546875 115.523438 65.25 117.375 C 65.542969 117.667969 65.832031 117.957031 66.125 118.25 C 68.195312 118.730469 70.277344 119.148438 72.375 119.5 C 72.589844 119.671875 72.753906 119.878906 72.875 120.125 C 71.121094 121.753906 69.414062 123.417969 67.75 125.125 C 67.875 127.460938 68.082031 129.792969 68.375 132.125 C 67.949219 132.164062 67.535156 132.125 67.125 132 C 65.042969 130.75 62.878906 129.710938 60.625 128.875 C 58.605469 129.421875 56.605469 130.046875 54.625 130.75 C 54.019531 130.996094 53.601562 130.828125 53.375 130.25 C 54.335938 128.035156 54.878906 125.742188 55 123.375 C 53.832031 121.875 52.667969 120.375 51.5 118.875 C 51.246094 118.492188 51.121094 118.078125 51.125 117.625 C 53.375 117.667969 55.625 117.625 57.875 117.5 C 58.207031 117.332031 58.542969 117.167969 58.875 117 C 60 115.171875 61.164062 113.378906 62.375 111.625 Z M 62.375 111.625 "/>
</g>
<mask id="mask24">
  <g filter="url(#alpha)">
<rect x="0" y="0" width="150" height="150" style="fill:rgb(0%,0%,0%);fill-opacity:0.839216;stroke:none;"/>
  </g>
</mask>
<clipPath id="clip25">
  <rect x="0" y="0" width="150" height="150"/>
</clipPath>
<g id="surface77" clip-path="url(#clip25)">
<path style=" stroke:none;fill-rule:evenodd;fill:rgb(95.294118%,82.745098%,26.666667%);fill-opacity:1;" d="M 87.375 111.625 C 87.84375 111.714844 88.21875 111.964844 88.5 112.375 C 89.359375 113.984375 90.316406 115.523438 91.375 117 C 91.707031 117.167969 92.042969 117.332031 92.375 117.5 C 94.625 117.625 96.875 117.667969 99.125 117.625 C 99.128906 118.078125 99.003906 118.492188 98.75 118.875 C 97.582031 120.375 96.417969 121.875 95.25 123.375 C 95.082031 124.042969 95.082031 124.707031 95.25 125.375 C 95.792969 127 96.332031 128.625 96.875 130.25 C 96.839844 130.441406 96.753906 130.609375 96.625 130.75 C 96.207031 130.917969 95.792969 130.917969 95.375 130.75 C 93.359375 130.023438 91.320312 129.398438 89.25 128.875 C 87.175781 129.808594 85.136719 130.847656 83.125 132 C 82.714844 132.125 82.300781 132.164062 81.875 132.125 C 82.074219 129.78125 82.28125 127.449219 82.5 125.125 C 80.835938 123.417969 79.128906 121.753906 77.375 120.125 C 77.496094 119.878906 77.660156 119.671875 77.875 119.5 C 79.976562 119.164062 82.058594 118.746094 84.125 118.25 C 84.417969 117.957031 84.707031 117.667969 85 117.375 C 85.71875 115.421875 86.511719 113.503906 87.375 111.625 Z M 87.375 111.625 "/>
</g>
<mask id="mask25">
  <g filter="url(#alpha)">
<rect x="0" y="0" width="150" height="150" style="fill:rgb(0%,0%,0%);fill-opacity:0.839216;stroke:none;"/>
  </g>
</mask>
<clipPath id="clip26">
  <rect x="0" y="0" width="150" height="150"/>
</clipPath>
<g id="surface80" clip-path="url(#clip26)">
<path style=" stroke:none;fill-rule:evenodd;fill:rgb(98.823529%,94.901961%,78.823529%);fill-opacity:1;" d="M 115.125 110.875 C 115.839844 111.378906 116.589844 111.835938 117.375 112.25 C 118.457031 112.316406 119.542969 112.273438 120.625 112.125 C 118.902344 112.898438 117.238281 112.773438 115.625 111.75 C 115.421875 111.472656 115.257812 111.179688 115.125 110.875 Z M 115.125 110.875 "/>
</g>
<mask id="mask26">
  <g filter="url(#alpha)">
<rect x="0" y="0" width="150" height="150" style="fill:rgb(0%,0%,0%);fill-opacity:0.839216;stroke:none;"/>
  </g>
</mask>
<clipPath id="clip27">
  <rect x="0" y="0" width="150" height="150"/>
</clipPath>
<g id="surface83" clip-path="url(#clip27)">
<path style=" stroke:none;fill-rule:evenodd;fill:rgb(98.823529%,95.686275%,82.352941%);fill-opacity:1;" d="M 120.625 112.125 C 121.265625 111.671875 121.933594 111.632812 122.625 112 C 122.894531 112.429688 122.9375 112.890625 122.75 113.375 C 122.683594 112.976562 122.558594 112.601562 122.375 112.25 C 121.796875 112.125 121.214844 112.085938 120.625 112.125 Z M 120.625 112.125 "/>
</g>
<mask id="mask27">
  <g filter="url(#alpha)">
<rect x="0" y="0" width="150" height="150" style="fill:rgb(0%,0%,0%);fill-opacity:0.839216;stroke:none;"/>
  </g>
</mask>
<clipPath id="clip28">
  <rect x="0" y="0" width="150" height="150"/>
</clipPath>
<g id="surface86" clip-path="url(#clip28)">
<path style=" stroke:none;fill-rule:evenodd;fill:rgb(98.823529%,96.470588%,85.490196%);fill-opacity:1;" d="M 38.875 113.625 C 39.226562 113.742188 39.394531 113.992188 39.375 114.375 C 39.023438 114.257812 38.855469 114.007812 38.875 113.625 Z M 38.875 113.625 "/>
</g>
<mask id="mask28">
  <g filter="url(#alpha)">
<rect x="0" y="0" width="150" height="150" style="fill:rgb(0%,0%,0%);fill-opacity:0.839216;stroke:none;"/>
  </g>
</mask>
<clipPath id="clip29">
  <rect x="0" y="0" width="150" height="150"/>
</clipPath>
<g id="surface89" clip-path="url(#clip29)">
<path style=" stroke:none;fill-rule:evenodd;fill:rgb(98.823529%,95.294118%,80%);fill-opacity:1;" d="M 89.375 115.625 C 89.015625 115.292969 88.683594 114.917969 88.375 114.5 C 87.949219 114.402344 87.535156 114.445312 87.125 114.625 C 88.316406 113.785156 89.066406 114.121094 89.375 115.625 Z M 89.375 115.625 "/>
</g>
<mask id="mask29">
  <g filter="url(#alpha)">
<rect x="0" y="0" width="150" height="150" style="fill:rgb(0%,0%,0%);fill-opacity:0.839216;stroke:none;"/>
  </g>
</mask>
<clipPath id="clip30">
  <rect x="0" y="0" width="150" height="150"/>
</clipPath>
<g id="surface92" clip-path="url(#clip30)">
<path style=" stroke:none;fill-rule:evenodd;fill:rgb(98.823529%,95.294118%,80%);fill-opacity:1;" d="M 39.375 114.375 C 40.167969 114.730469 40.917969 115.144531 41.625 115.625 C 40.683594 115.527344 39.933594 115.113281 39.375 114.375 Z M 39.375 114.375 "/>
</g>
<mask id="mask30">
  <g filter="url(#alpha)">
<rect x="0" y="0" width="150" height="150" style="fill:rgb(0%,0%,0%);fill-opacity:0.839216;stroke:none;"/>
  </g>
</mask>
<clipPath id="clip31">
  <rect x="0" y="0" width="150" height="150"/>
</clipPath>
<g id="surface95" clip-path="url(#clip31)">
<path style=" stroke:none;fill-rule:evenodd;fill:rgb(98.823529%,95.294118%,81.568627%);fill-opacity:1;" d="M 62.875 114.375 C 62.53125 114.335938 62.199219 114.378906 61.875 114.5 C 61.566406 114.917969 61.234375 115.292969 60.875 115.625 C 61.074219 114.332031 61.738281 113.914062 62.875 114.375 Z M 62.875 114.375 "/>
</g>
<mask id="mask31">
  <g filter="url(#alpha)">
<rect x="0" y="0" width="150" height="150" style="fill:rgb(0%,0%,0%);fill-opacity:0.839216;stroke:none;"/>
  </g>
</mask>
<clipPath id="clip32">
  <rect x="0" y="0" width="150" height="150"/>
</clipPath>
<g id="surface98" clip-path="url(#clip32)">
<path style=" stroke:none;fill-rule:evenodd;fill:rgb(98.823529%,95.294118%,80%);fill-opacity:1;" d="M 121.375 115.625 C 121.53125 114.976562 121.824219 114.394531 122.25 113.875 C 122.230469 114.585938 121.9375 115.167969 121.375 115.625 Z M 121.375 115.625 "/>
</g>
<mask id="mask32">
  <g filter="url(#alpha)">
<rect x="0" y="0" width="150" height="150" style="fill:rgb(0%,0%,0%);fill-opacity:0.839216;stroke:none;"/>
  </g>
</mask>
<clipPath id="clip33">
  <rect x="0" y="0" width="150" height="150"/>
</clipPath>
<g id="surface101" clip-path="url(#clip33)">
<path style=" stroke:none;fill-rule:evenodd;fill:rgb(98.431373%,94.509804%,76.470588%);fill-opacity:1;" d="M 28.125 114.375 C 28.996094 115.285156 29.457031 116.367188 29.5 117.625 C 29.042969 116.546875 28.585938 115.464844 28.125 114.375 Z M 28.125 114.375 "/>
</g>
<mask id="mask33">
  <g filter="url(#alpha)">
<rect x="0" y="0" width="150" height="150" style="fill:rgb(0%,0%,0%);fill-opacity:0.839216;stroke:none;"/>
  </g>
</mask>
<clipPath id="clip34">
  <rect x="0" y="0" width="150" height="150"/>
</clipPath>
<g id="surface104" clip-path="url(#clip34)">
<path style=" stroke:none;fill-rule:evenodd;fill:rgb(98.823529%,94.901961%,79.607843%);fill-opacity:1;" d="M 110.875 114.375 C 110.316406 115.113281 109.566406 115.527344 108.625 115.625 C 109.332031 115.144531 110.082031 114.730469 110.875 114.375 Z M 110.875 114.375 "/>
</g>
<mask id="mask34">
  <g filter="url(#alpha)">
<rect x="0" y="0" width="150" height="150" style="fill:rgb(0%,0%,0%);fill-opacity:0.839216;stroke:none;"/>
  </g>
</mask>
<clipPath id="clip35">
  <rect x="0" y="0" width="150" height="150"/>
</clipPath>
<g id="surface107" clip-path="url(#clip35)">
<path style=" stroke:none;fill-rule:evenodd;fill:rgb(98.823529%,94.901961%,79.215686%);fill-opacity:1;" d="M 62.875 114.375 C 63.660156 115.304688 64.160156 116.390625 64.375 117.625 C 63.78125 116.601562 63.28125 115.519531 62.875 114.375 Z M 62.875 114.375 "/>
</g>
<mask id="mask35">
  <g filter="url(#alpha)">
<rect x="0" y="0" width="150" height="150" style="fill:rgb(0%,0%,0%);fill-opacity:0.839216;stroke:none;"/>
  </g>
</mask>
<clipPath id="clip36">
  <rect x="0" y="0" width="150" height="150"/>
</clipPath>
<g id="surface110" clip-path="url(#clip36)">
<path style=" stroke:none;fill-rule:evenodd;fill:rgb(98.823529%,93.72549%,74.117647%);fill-opacity:1;" d="M 87.125 114.625 C 87.203125 115.371094 86.953125 115.953125 86.375 116.375 C 86.425781 115.691406 86.675781 115.105469 87.125 114.625 Z M 87.125 114.625 "/>
</g>
<mask id="mask36">
  <g filter="url(#alpha)">
<rect x="0" y="0" width="150" height="150" style="fill:rgb(0%,0%,0%);fill-opacity:0.839216;stroke:none;"/>
  </g>
</mask>
<clipPath id="clip37">
  <rect x="0" y="0" width="150" height="150"/>
</clipPath>
<g id="surface113" clip-path="url(#clip37)">
<path style=" stroke:none;fill-rule:evenodd;fill:rgb(98.823529%,96.078431%,85.098039%);fill-opacity:1;" d="M 108.625 115.625 C 108.304688 115.984375 107.886719 116.148438 107.375 116.125 C 107.695312 115.765625 108.113281 115.601562 108.625 115.625 Z M 108.625 115.625 "/>
</g>
<mask id="mask37">
  <g filter="url(#alpha)">
<rect x="0" y="0" width="150" height="150" style="fill:rgb(0%,0%,0%);fill-opacity:0.839216;stroke:none;"/>
  </g>
</mask>
<clipPath id="clip38">
  <rect x="0" y="0" width="150" height="150"/>
</clipPath>
<g id="surface116" clip-path="url(#clip38)">
<path style=" stroke:none;fill-rule:evenodd;fill:rgb(98.431373%,94.901961%,79.215686%);fill-opacity:1;" d="M 41.625 115.625 C 42.136719 115.601562 42.554688 115.765625 42.875 116.125 C 42.363281 116.148438 41.945312 115.984375 41.625 115.625 Z M 41.625 115.625 "/>
</g>
<mask id="mask38">
  <g filter="url(#alpha)">
<rect x="0" y="0" width="150" height="150" style="fill:rgb(0%,0%,0%);fill-opacity:0.839216;stroke:none;"/>
  </g>
</mask>
<clipPath id="clip39">
  <rect x="0" y="0" width="150" height="150"/>
</clipPath>
<g id="surface119" clip-path="url(#clip39)">
<path style=" stroke:none;fill-rule:evenodd;fill:rgb(98.823529%,95.294118%,80.784314%);fill-opacity:1;" d="M 89.375 115.625 C 89.984375 116.292969 90.566406 117 91.125 117.75 C 91.457031 117.917969 91.792969 118.082031 92.125 118.25 C 90.625 118.042969 89.710938 117.167969 89.375 115.625 Z M 89.375 115.625 "/>
</g>
<mask id="mask39">
  <g filter="url(#alpha)">
<rect x="0" y="0" width="150" height="150" style="fill:rgb(0%,0%,0%);fill-opacity:0.839216;stroke:none;"/>
  </g>
</mask>
<clipPath id="clip40">
  <rect x="0" y="0" width="150" height="150"/>
</clipPath>
<g id="surface122" clip-path="url(#clip40)">
<path style=" stroke:none;fill-rule:evenodd;fill:rgb(98.431373%,94.901961%,78.823529%);fill-opacity:1;" d="M 107.375 116.125 C 107.078125 116.339844 106.785156 116.589844 106.5 116.875 C 106.417969 116.265625 106.707031 116.015625 107.375 116.125 Z M 107.375 116.125 "/>
</g>
<mask id="mask40">
  <g filter="url(#alpha)">
<rect x="0" y="0" width="150" height="150" style="fill:rgb(0%,0%,0%);fill-opacity:0.839216;stroke:none;"/>
  </g>
</mask>
<clipPath id="clip41">
  <rect x="0" y="0" width="150" height="150"/>
</clipPath>
<g id="surface125" clip-path="url(#clip41)">
<path style=" stroke:none;fill-rule:evenodd;fill:rgb(98.823529%,95.294118%,80.392157%);fill-opacity:1;" d="M 60.875 115.625 C 60.71875 116.273438 60.425781 116.855469 60 117.375 C 59.796875 117.707031 59.503906 117.871094 59.125 117.875 C 59.652344 117.070312 60.234375 116.320312 60.875 115.625 Z M 60.875 115.625 "/>
</g>
<mask id="mask41">
  <g filter="url(#alpha)">
<rect x="0" y="0" width="150" height="150" style="fill:rgb(0%,0%,0%);fill-opacity:0.839216;stroke:none;"/>
  </g>
</mask>
<clipPath id="clip42">
  <rect x="0" y="0" width="150" height="150"/>
</clipPath>
<g id="surface128" clip-path="url(#clip42)">
<path style=" stroke:none;fill-rule:evenodd;fill:rgb(98.823529%,95.686275%,81.568627%);fill-opacity:1;" d="M 86.375 116.375 C 86.277344 117.316406 85.863281 118.066406 85.125 118.625 C 85.480469 117.832031 85.894531 117.082031 86.375 116.375 Z M 86.375 116.375 "/>
</g>
<mask id="mask42">
  <g filter="url(#alpha)">
<rect x="0" y="0" width="150" height="150" style="fill:rgb(0%,0%,0%);fill-opacity:0.839216;stroke:none;"/>
  </g>
</mask>
<clipPath id="clip43">
  <rect x="0" y="0" width="150" height="150"/>
</clipPath>
<g id="surface131" clip-path="url(#clip43)">
<path style=" stroke:none;fill-rule:evenodd;fill:rgb(98.823529%,95.686275%,82.745098%);fill-opacity:1;" d="M 64.375 117.625 C 64.726562 117.742188 64.894531 117.992188 64.875 118.375 C 64.523438 118.257812 64.355469 118.007812 64.375 117.625 Z M 64.375 117.625 "/>
</g>
<mask id="mask43">
  <g filter="url(#alpha)">
<rect x="0" y="0" width="150" height="150" style="fill:rgb(0%,0%,0%);fill-opacity:0.839216;stroke:none;"/>
  </g>
</mask>
<clipPath id="clip44">
  <rect x="0" y="0" width="150" height="150"/>
</clipPath>
<g id="surface134" clip-path="url(#clip44)">
<path style=" stroke:none;fill-rule:evenodd;fill:rgb(98.823529%,94.901961%,78.823529%);fill-opacity:1;" d="M 42.875 116.125 C 43.992188 116.207031 44.367188 116.789062 44 117.875 C 43.292969 118.457031 42.503906 118.875 41.625 119.125 C 42.292969 118.601562 43.003906 118.101562 43.75 117.625 C 43.835938 116.917969 43.546875 116.417969 42.875 116.125 Z M 42.875 116.125 "/>
</g>
<mask id="mask44">
  <g filter="url(#alpha)">
<rect x="0" y="0" width="150" height="150" style="fill:rgb(0%,0%,0%);fill-opacity:0.839216;stroke:none;"/>
  </g>
</mask>
<clipPath id="clip45">
  <rect x="0" y="0" width="150" height="150"/>
</clipPath>
<g id="surface137" clip-path="url(#clip45)">
<path style=" stroke:none;fill-rule:evenodd;fill:rgb(99.607843%,98.039216%,92.941176%);fill-opacity:1;" d="M 59.125 117.875 C 58.914062 118.242188 58.578125 118.449219 58.125 118.5 C 56.707031 118.667969 55.292969 118.667969 53.875 118.5 C 55.660156 118.488281 57.410156 118.28125 59.125 117.875 Z M 59.125 117.875 "/>
</g>
<mask id="mask45">
  <g filter="url(#alpha)">
<rect x="0" y="0" width="150" height="150" style="fill:rgb(0%,0%,0%);fill-opacity:0.839216;stroke:none;"/>
  </g>
</mask>
<clipPath id="clip46">
  <rect x="0" y="0" width="150" height="150"/>
</clipPath>
<g id="surface140" clip-path="url(#clip46)">
<path style=" stroke:none;fill-rule:evenodd;fill:rgb(98.823529%,95.294118%,81.176471%);fill-opacity:1;" d="M 108.625 119.125 C 108.144531 119.050781 107.726562 118.84375 107.375 118.5 C 107.917969 118.4375 108.332031 118.644531 108.625 119.125 Z M 108.625 119.125 "/>
</g>
<mask id="mask46">
  <g filter="url(#alpha)">
<rect x="0" y="0" width="150" height="150" style="fill:rgb(0%,0%,0%);fill-opacity:0.839216;stroke:none;"/>
  </g>
</mask>
<clipPath id="clip47">
  <rect x="0" y="0" width="150" height="150"/>
</clipPath>
<g id="surface143" clip-path="url(#clip47)">
<path style=" stroke:none;fill-rule:evenodd;fill:rgb(99.215686%,95.686275%,83.529412%);fill-opacity:1;" d="M 96.375 120.375 C 96.605469 119.742188 96.6875 119.15625 96.625 118.625 C 96.707031 118.875 96.792969 119.125 96.875 119.375 C 96.914062 119.839844 96.75 120.171875 96.375 120.375 Z M 96.375 120.375 "/>
</g>
<mask id="mask47">
  <g filter="url(#alpha)">
<rect x="0" y="0" width="150" height="150" style="fill:rgb(0%,0%,0%);fill-opacity:0.839216;stroke:none;"/>
  </g>
</mask>
<clipPath id="clip48">
  <rect x="0" y="0" width="150" height="150"/>
</clipPath>
<g id="surface146" clip-path="url(#clip48)">
<path style=" stroke:none;fill-rule:evenodd;fill:rgb(98.823529%,94.901961%,79.607843%);fill-opacity:1;" d="M 121.375 115.625 C 121.140625 116.617188 121.097656 117.617188 121.25 118.625 C 122.113281 119.84375 122.53125 121.175781 122.5 122.625 C 122.238281 122.878906 121.945312 122.921875 121.625 122.75 C 122.300781 122.511719 122.507812 122.054688 122.25 121.375 C 121.53125 120.148438 120.988281 118.855469 120.625 117.5 C 120.640625 116.761719 120.890625 116.136719 121.375 115.625 Z M 121.375 115.625 "/>
</g>
<mask id="mask48">
  <g filter="url(#alpha)">
<rect x="0" y="0" width="150" height="150" style="fill:rgb(0%,0%,0%);fill-opacity:0.839216;stroke:none;"/>
  </g>
</mask>
<clipPath id="clip49">
  <rect x="0" y="0" width="150" height="150"/>
</clipPath>
<g id="surface149" clip-path="url(#clip49)">
<path style=" stroke:none;fill-rule:evenodd;fill:rgb(98.823529%,95.294118%,80.784314%);fill-opacity:1;" d="M 64.875 118.375 C 66.535156 119.148438 68.285156 119.691406 70.125 120 C 70.660156 121.179688 70.328125 121.96875 69.125 122.375 C 69.363281 122.007812 69.65625 121.675781 70 121.375 C 70.179688 120.972656 70.136719 120.597656 69.875 120.25 C 68.726562 119.921875 67.558594 119.671875 66.375 119.5 C 65.722656 119.300781 65.222656 118.925781 64.875 118.375 Z M 64.875 118.375 "/>
</g>
<mask id="mask49">
  <g filter="url(#alpha)">
<rect x="0" y="0" width="150" height="150" style="fill:rgb(0%,0%,0%);fill-opacity:0.839216;stroke:none;"/>
  </g>
</mask>
<clipPath id="clip50">
  <rect x="0" y="0" width="150" height="150"/>
</clipPath>
<g id="surface152" clip-path="url(#clip50)">
<path style=" stroke:none;fill-rule:evenodd;fill:rgb(98.431373%,94.117647%,76.470588%);fill-opacity:1;" d="M 85.125 118.625 C 84.8125 119.035156 84.394531 119.324219 83.875 119.5 C 82.644531 119.734375 81.4375 120.027344 80.25 120.375 C 80.207031 120.292969 80.167969 120.207031 80.125 120.125 C 81.789062 119.65625 83.457031 119.15625 85.125 118.625 Z M 85.125 118.625 "/>
</g>
<mask id="mask50">
  <g filter="url(#alpha)">
<rect x="0" y="0" width="150" height="150" style="fill:rgb(0%,0%,0%);fill-opacity:0.839216;stroke:none;"/>
  </g>
</mask>
<clipPath id="clip51">
  <rect x="0" y="0" width="150" height="150"/>
</clipPath>
<g id="surface155" clip-path="url(#clip51)">
<path style=" stroke:none;fill-rule:evenodd;fill:rgb(98.431373%,95.294118%,81.568627%);fill-opacity:1;" d="M 108.625 119.125 C 109.558594 119.265625 110.097656 119.765625 110.25 120.625 C 109.734375 120.066406 109.191406 119.566406 108.625 119.125 Z M 108.625 119.125 "/>
</g>
<mask id="mask51">
  <g filter="url(#alpha)">
<rect x="0" y="0" width="150" height="150" style="fill:rgb(0%,0%,0%);fill-opacity:0.839216;stroke:none;"/>
  </g>
</mask>
<clipPath id="clip52">
  <rect x="0" y="0" width="150" height="150"/>
</clipPath>
<g id="surface158" clip-path="url(#clip52)">
<path style=" stroke:none;fill-rule:evenodd;fill:rgb(98.823529%,94.901961%,79.607843%);fill-opacity:1;" d="M 41.625 119.125 C 40.882812 119.660156 40.257812 120.328125 39.75 121.125 C 39.632812 122.546875 39.464844 123.964844 39.25 125.375 C 38.777344 125.894531 38.238281 125.976562 37.625 125.625 C 38.085938 125.441406 38.542969 125.277344 39 125.125 C 39.082031 123.957031 39.167969 122.792969 39.25 121.625 C 39.578125 120.339844 40.371094 119.503906 41.625 119.125 Z M 41.625 119.125 "/>
</g>
<mask id="mask52">
  <g filter="url(#alpha)">
<rect x="0" y="0" width="150" height="150" style="fill:rgb(0%,0%,0%);fill-opacity:0.839216;stroke:none;"/>
  </g>
</mask>
<clipPath id="clip53">
  <rect x="0" y="0" width="150" height="150"/>
</clipPath>
<g id="surface161" clip-path="url(#clip53)">
<path style=" stroke:none;fill-rule:evenodd;fill:rgb(98.823529%,95.686275%,83.529412%);fill-opacity:1;" d="M 54.875 121.625 C 54.386719 121.4375 54.179688 121.101562 54.25 120.625 C 54.621094 120.867188 54.828125 121.199219 54.875 121.625 Z M 54.875 121.625 "/>
</g>
<mask id="mask53">
  <g filter="url(#alpha)">
<rect x="0" y="0" width="150" height="150" style="fill:rgb(0%,0%,0%);fill-opacity:0.839216;stroke:none;"/>
  </g>
</mask>
<clipPath id="clip54">
  <rect x="0" y="0" width="150" height="150"/>
</clipPath>
<g id="surface164" clip-path="url(#clip54)">
<path style=" stroke:none;fill-rule:evenodd;fill:rgb(98.823529%,94.901961%,79.215686%);fill-opacity:1;" d="M 96.375 120.375 C 96.144531 121.023438 95.726562 121.523438 95.125 121.875 C 95.355469 121.226562 95.773438 120.726562 96.375 120.375 Z M 96.375 120.375 "/>
</g>
<mask id="mask54">
  <g filter="url(#alpha)">
<rect x="0" y="0" width="150" height="150" style="fill:rgb(0%,0%,0%);fill-opacity:0.839216;stroke:none;"/>
  </g>
</mask>
<clipPath id="clip55">
  <rect x="0" y="0" width="150" height="150"/>
</clipPath>
<g id="surface167" clip-path="url(#clip55)">
<path style=" stroke:none;fill-rule:evenodd;fill:rgb(99.215686%,97.647059%,90.196078%);fill-opacity:1;" d="M 34.375 122.875 C 33.300781 122.71875 32.214844 122.59375 31.125 122.5 C 32.042969 122.332031 32.957031 122.332031 33.875 122.5 C 34.105469 122.570312 34.269531 122.695312 34.375 122.875 Z M 34.375 122.875 "/>
</g>
<mask id="mask55">
  <g filter="url(#alpha)">
<rect x="0" y="0" width="150" height="150" style="fill:rgb(0%,0%,0%);fill-opacity:0.839216;stroke:none;"/>
  </g>
</mask>
<clipPath id="clip56">
  <rect x="0" y="0" width="150" height="150"/>
</clipPath>
<g id="surface170" clip-path="url(#clip56)">
<path style=" stroke:none;fill-rule:evenodd;fill:rgb(98.431373%,94.117647%,75.294118%);fill-opacity:1;" d="M 54.875 121.625 C 55.769531 122.171875 56.1875 122.921875 56.125 123.875 C 55.765625 123.074219 55.351562 122.324219 54.875 121.625 Z M 54.875 121.625 "/>
</g>
<mask id="mask56">
  <g filter="url(#alpha)">
<rect x="0" y="0" width="150" height="150" style="fill:rgb(0%,0%,0%);fill-opacity:0.839216;stroke:none;"/>
  </g>
</mask>
<clipPath id="clip57">
  <rect x="0" y="0" width="150" height="150"/>
</clipPath>
<g id="surface173" clip-path="url(#clip57)">
<path style=" stroke:none;fill-rule:evenodd;fill:rgb(98.823529%,95.294118%,80.784314%);fill-opacity:1;" d="M 115.875 122.875 C 115.980469 122.695312 116.144531 122.570312 116.375 122.5 C 117.042969 122.332031 117.707031 122.332031 118.375 122.5 C 117.535156 122.613281 116.703125 122.738281 115.875 122.875 Z M 115.875 122.875 "/>
</g>
<mask id="mask57">
  <g filter="url(#alpha)">
<rect x="0" y="0" width="150" height="150" style="fill:rgb(0%,0%,0%);fill-opacity:0.839216;stroke:none;"/>
  </g>
</mask>
<clipPath id="clip58">
  <rect x="0" y="0" width="150" height="150"/>
</clipPath>
<g id="surface176" clip-path="url(#clip58)">
<path style=" stroke:none;fill-rule:evenodd;fill:rgb(98.431373%,94.509804%,76.862745%);fill-opacity:1;" d="M 34.375 122.875 C 34.800781 122.921875 35.132812 123.128906 35.375 123.5 C 34.898438 123.570312 34.5625 123.363281 34.375 122.875 Z M 34.375 122.875 "/>
</g>
<mask id="mask58">
  <g filter="url(#alpha)">
<rect x="0" y="0" width="150" height="150" style="fill:rgb(0%,0%,0%);fill-opacity:0.839216;stroke:none;"/>
  </g>
</mask>
<clipPath id="clip59">
  <rect x="0" y="0" width="150" height="150"/>
</clipPath>
<g id="surface179" clip-path="url(#clip59)">
<path style=" stroke:none;fill-rule:evenodd;fill:rgb(98.431373%,94.117647%,75.686275%);fill-opacity:1;" d="M 82.625 123.625 C 82.015625 123.3125 81.433594 122.9375 80.875 122.5 C 80.636719 122.320312 80.597656 122.113281 80.75 121.875 C 81.5 122.332031 82.125 122.917969 82.625 123.625 Z M 82.625 123.625 "/>
</g>
<mask id="mask59">
  <g filter="url(#alpha)">
<rect x="0" y="0" width="150" height="150" style="fill:rgb(0%,0%,0%);fill-opacity:0.839216;stroke:none;"/>
  </g>
</mask>
<clipPath id="clip60">
  <rect x="0" y="0" width="150" height="150"/>
</clipPath>
<g id="surface182" clip-path="url(#clip60)">
<path style=" stroke:none;fill-rule:evenodd;fill:rgb(98.823529%,94.117647%,76.078431%);fill-opacity:1;" d="M 115.875 122.875 C 115.6875 123.363281 115.351562 123.570312 114.875 123.5 C 115.117188 123.128906 115.449219 122.921875 115.875 122.875 Z M 115.875 122.875 "/>
</g>
<mask id="mask60">
  <g filter="url(#alpha)">
<rect x="0" y="0" width="150" height="150" style="fill:rgb(0%,0%,0%);fill-opacity:0.839216;stroke:none;"/>
  </g>
</mask>
<clipPath id="clip61">
  <rect x="0" y="0" width="150" height="150"/>
</clipPath>
<g id="surface185" clip-path="url(#clip61)">
<path style=" stroke:none;fill-rule:evenodd;fill:rgb(98.823529%,94.901961%,79.607843%);fill-opacity:1;" d="M 82.625 123.625 C 83.085938 123.878906 83.417969 124.253906 83.625 124.75 C 83.105469 124.609375 82.769531 124.234375 82.625 123.625 Z M 82.625 123.625 "/>
</g>
<mask id="mask61">
  <g filter="url(#alpha)">
<rect x="0" y="0" width="150" height="150" style="fill:rgb(0%,0%,0%);fill-opacity:0.839216;stroke:none;"/>
  </g>
</mask>
<clipPath id="clip62">
  <rect x="0" y="0" width="150" height="150"/>
</clipPath>
<g id="surface188" clip-path="url(#clip62)">
<path style=" stroke:none;fill-rule:evenodd;fill:rgb(98.823529%,94.901961%,78.823529%);fill-opacity:1;" d="M 95.125 121.875 C 94.660156 122.640625 94.328125 123.472656 94.125 124.375 C 94.558594 125.597656 94.894531 126.847656 95.125 128.125 C 95.230469 128.796875 94.980469 129.085938 94.375 129 C 94.699219 128.800781 94.867188 128.507812 94.875 128.125 C 94.1875 126.605469 93.894531 125.023438 94 123.375 C 94.199219 122.722656 94.574219 122.222656 95.125 121.875 Z M 95.125 121.875 "/>
</g>
<mask id="mask62">
  <g filter="url(#alpha)">
<rect x="0" y="0" width="150" height="150" style="fill:rgb(0%,0%,0%);fill-opacity:0.839216;stroke:none;"/>
  </g>
</mask>
<clipPath id="clip63">
  <rect x="0" y="0" width="150" height="150"/>
</clipPath>
<g id="surface191" clip-path="url(#clip63)">
<path style=" stroke:none;fill-rule:evenodd;fill:rgb(98.823529%,95.294118%,80.784314%);fill-opacity:1;" d="M 69.125 122.375 C 68.375 123.167969 67.667969 124 67 124.875 C 67 126.542969 67 128.207031 67 129.875 C 66.578125 130.3125 66.117188 130.394531 65.625 130.125 C 66.527344 130.089844 66.945312 129.632812 66.875 128.75 C 65.773438 125.929688 66.523438 123.804688 69.125 122.375 Z M 69.125 122.375 "/>
</g>
<mask id="mask63">
  <g filter="url(#alpha)">
<rect x="0" y="0" width="150" height="150" style="fill:rgb(0%,0%,0%);fill-opacity:0.839216;stroke:none;"/>
  </g>
</mask>
<clipPath id="clip64">
  <rect x="0" y="0" width="150" height="150"/>
</clipPath>
<g id="surface194" clip-path="url(#clip64)">
<path style=" stroke:none;fill-rule:evenodd;fill:rgb(98.823529%,95.294118%,80.784314%);fill-opacity:1;" d="M 59.625 127.875 C 60.460938 127.832031 61.296875 127.875 62.125 128 C 62.417969 128.105469 62.667969 128.269531 62.875 128.5 C 62.1875 128.386719 61.480469 128.261719 60.75 128.125 C 60.089844 128.164062 59.464844 128.332031 58.875 128.625 C 58.792969 128.582031 58.707031 128.542969 58.625 128.5 C 58.964844 128.265625 59.296875 128.058594 59.625 127.875 Z M 59.625 127.875 "/>
</g>
<mask id="mask64">
  <g filter="url(#alpha)">
<rect x="0" y="0" width="150" height="150" style="fill:rgb(0%,0%,0%);fill-opacity:0.839216;stroke:none;"/>
  </g>
</mask>
<clipPath id="clip65">
  <rect x="0" y="0" width="150" height="150"/>
</clipPath>
<g id="surface197" clip-path="url(#clip65)">
<path style=" stroke:none;fill-rule:evenodd;fill:rgb(98.823529%,94.901961%,79.607843%);fill-opacity:1;" d="M 88.125 127.875 C 89.054688 127.792969 89.972656 127.878906 90.875 128.125 C 89.390625 127.894531 88.015625 128.226562 86.75 129.125 C 86.578125 128.917969 86.621094 128.75 86.875 128.625 C 87.347656 128.429688 87.765625 128.179688 88.125 127.875 Z M 88.125 127.875 "/>
</g>
</defs>
<g id="surface1">
<use xlink:href="#surface5" mask="url(#mask0)"/>
<use xlink:href="#surface8" mask="url(#mask1)"/>
<use xlink:href="#surface11" mask="url(#mask2)"/>
<use xlink:href="#surface14" mask="url(#mask3)"/>
<use xlink:href="#surface17" mask="url(#mask4)"/>
<use xlink:href="#surface20" mask="url(#mask5)"/>
<use xlink:href="#surface23" mask="url(#mask6)"/>
<use xlink:href="#surface26" mask="url(#mask7)"/>
<use xlink:href="#surface29" mask="url(#mask8)"/>
<use xlink:href="#surface32" mask="url(#mask9)"/>
<use xlink:href="#surface35" mask="url(#mask10)"/>
<use xlink:href="#surface38" mask="url(#mask11)"/>
<use xlink:href="#surface41" mask="url(#mask12)"/>
<use xlink:href="#surface44" mask="url(#mask13)"/>
<use xlink:href="#surface47" mask="url(#mask14)"/>
<use xlink:href="#surface50" mask="url(#mask15)"/>
<use xlink:href="#surface53" mask="url(#mask16)"/>
<use xlink:href="#surface56" mask="url(#mask17)"/>
<use xlink:href="#surface59" mask="url(#mask18)"/>
<use xlink:href="#surface62" mask="url(#mask19)"/>
<use xlink:href="#surface65" mask="url(#mask20)"/>
<use xlink:href="#surface68" mask="url(#mask21)"/>
<use xlink:href="#surface71" mask="url(#mask22)"/>
<use xlink:href="#surface74" mask="url(#mask23)"/>
<use xlink:href="#surface77" mask="url(#mask24)"/>
<use xlink:href="#surface80" mask="url(#mask25)"/>
<use xlink:href="#surface83" mask="url(#mask26)"/>
<use xlink:href="#surface86" mask="url(#mask27)"/>
<use xlink:href="#surface89" mask="url(#mask28)"/>
<use xlink:href="#surface92" mask="url(#mask29)"/>
<use xlink:href="#surface95" mask="url(#mask30)"/>
<use xlink:href="#surface98" mask="url(#mask31)"/>
<use xlink:href="#surface101" mask="url(#mask32)"/>
<use xlink:href="#surface104" mask="url(#mask33)"/>
<use xlink:href="#surface107" mask="url(#mask34)"/>
<use xlink:href="#surface110" mask="url(#mask35)"/>
<use xlink:href="#surface113" mask="url(#mask36)"/>
<use xlink:href="#surface116" mask="url(#mask37)"/>
<use xlink:href="#surface119" mask="url(#mask38)"/>
<use xlink:href="#surface122" mask="url(#mask39)"/>
<use xlink:href="#surface125" mask="url(#mask40)"/>
<use xlink:href="#surface128" mask="url(#mask41)"/>
<use xlink:href="#surface131" mask="url(#mask42)"/>
<use xlink:href="#surface134" mask="url(#mask43)"/>
<use xlink:href="#surface137" mask="url(#mask44)"/>
<use xlink:href="#surface140" mask="url(#mask45)"/>
<use xlink:href="#surface143" mask="url(#mask46)"/>
<use xlink:href="#surface146" mask="url(#mask47)"/>
<use xlink:href="#surface149" mask="url(#mask48)"/>
<use xlink:href="#surface152" mask="url(#mask49)"/>
<use xlink:href="#surface155" mask="url(#mask50)"/>
<use xlink:href="#surface158" mask="url(#mask51)"/>
<use xlink:href="#surface161" mask="url(#mask52)"/>
<use xlink:href="#surface164" mask="url(#mask53)"/>
<use xlink:href="#surface167" mask="url(#mask54)"/>
<use xlink:href="#surface170" mask="url(#mask55)"/>
<use xlink:href="#surface173" mask="url(#mask56)"/>
<use xlink:href="#surface176" mask="url(#mask57)"/>
<use xlink:href="#surface179" mask="url(#mask58)"/>
<use xlink:href="#surface182" mask="url(#mask59)"/>
<use xlink:href="#surface185" mask="url(#mask60)"/>
<use xlink:href="#surface188" mask="url(#mask61)"/>
<use xlink:href="#surface191" mask="url(#mask62)"/>
<use xlink:href="#surface194" mask="url(#mask63)"/>
<use xlink:href="#surface197" mask="url(#mask64)"/>
</g>
</svg>
