<?xml version="1.0" encoding="UTF-8"?>
<svg xmlns="http://www.w3.org/2000/svg" xmlns:xlink="http://www.w3.org/1999/xlink" width="150px" height="px" viewBox="0 0 150 150" version="1.1">
<defs>
<filter id="alpha" filterUnits="objectBoundingBox" x="0%" y="0%" width="100%" height="100%">
  <feColorMatrix type="matrix" in="SourceGraphic" values="0 0 0 0 1 0 0 0 0 1 0 0 0 0 1 0 0 0 1 0"/>
</filter>
<mask id="mask0">
  <g filter="url(#alpha)">
<rect x="0" y="0" width="150" height="150" style="fill:rgb(0%,0%,0%);fill-opacity:0.976471;stroke:none;"/>
  </g>
</mask>
<clipPath id="clip1">
  <rect x="0" y="0" width="150" height="150"/>
</clipPath>
<g id="surface5" clip-path="url(#clip1)">
<path style=" stroke:none;fill-rule:evenodd;fill:rgb(64.705882%,64.705882%,64.705882%);fill-opacity:1;" d="M 142.375 71.625 C 140.957031 73.96875 138.957031 75.675781 136.375 76.75 C 130.800781 79 125.050781 80.664062 119.125 81.75 C 95.886719 85.375 72.554688 86.125 49.125 84 C 38.3125 83.183594 27.730469 81.183594 17.375 78 C 13.917969 76.875 10.875 75.085938 8.25 72.625 C 7.878906 71.960938 7.589844 71.292969 7.375 70.625 C 7.222656 69.488281 7.511719 68.488281 8.25 67.625 C 10.539062 65.332031 13.246094 63.707031 16.375 62.75 C 25.734375 59.746094 35.320312 57.828125 45.125 57 C 68.269531 54.765625 91.351562 55.265625 114.375 58.5 C 120.488281 59.441406 126.488281 60.855469 132.375 62.75 C 134.601562 63.613281 136.769531 64.613281 138.875 65.75 C 140.261719 66.71875 141.386719 67.929688 142.25 69.375 C 142.375 70.121094 142.417969 70.871094 142.375 71.625 Z M 124.625 73.875 C 122.449219 75.144531 120.113281 76.101562 117.625 76.75 C 109.175781 78.921875 100.589844 80.253906 91.875 80.75 C 76.242188 81.835938 60.65625 81.335938 45.125 79.25 C 38.753906 78.449219 32.585938 76.863281 26.625 74.5 C 25.941406 74.242188 25.355469 73.867188 24.875 73.375 C 27.394531 71.9375 30.058594 70.8125 32.875 70 C 40.910156 67.875 49.074219 66.542969 57.375 66 C 73.957031 64.699219 90.457031 65.367188 106.875 68 C 111.667969 68.792969 116.335938 70.042969 120.875 71.75 C 122.222656 72.339844 123.472656 73.046875 124.625 73.875 Z M 124.625 73.875 "/>
</g>
<mask id="mask1">
  <g filter="url(#alpha)">
<rect x="0" y="0" width="150" height="150" style="fill:rgb(0%,0%,0%);fill-opacity:0.984314;stroke:none;"/>
  </g>
</mask>
<clipPath id="clip2">
  <rect x="0" y="0" width="150" height="150"/>
</clipPath>
<g id="surface8" clip-path="url(#clip2)">
<path style=" stroke:none;fill-rule:evenodd;fill:rgb(1.568627%,40%,50.588235%);fill-opacity:1;" d="M 124.625 73.875 C 123.472656 73.046875 122.222656 72.339844 120.875 71.75 C 116.335938 70.042969 111.667969 68.792969 106.875 68 C 90.457031 65.367188 73.957031 64.699219 57.375 66 C 49.074219 66.542969 40.910156 67.875 32.875 70 C 30.058594 70.8125 27.394531 71.9375 24.875 73.375 C 22 72.539062 21.042969 70.707031 22 67.875 C 24.527344 65.503906 27.488281 63.878906 30.875 63 C 40.546875 60.472656 50.378906 58.972656 60.375 58.5 C 76.371094 57.613281 92.289062 58.363281 108.125 60.75 C 114.0625 61.652344 119.730469 63.402344 125.125 66 C 129.003906 68.488281 129.089844 71.070312 125.375 73.75 C 125.136719 73.871094 124.886719 73.914062 124.625 73.875 Z M 124.625 73.875 "/>
</g>
<mask id="mask2">
  <g filter="url(#alpha)">
<rect x="0" y="0" width="150" height="150" style="fill:rgb(0%,0%,0%);fill-opacity:0.988235;stroke:none;"/>
  </g>
</mask>
<clipPath id="clip3">
  <rect x="0" y="0" width="150" height="150"/>
</clipPath>
<g id="surface11" clip-path="url(#clip3)">
<path style=" stroke:none;fill-rule:evenodd;fill:rgb(1.568627%,40%,50.588235%);fill-opacity:1;" d="M 7.375 70.625 C 7.589844 71.292969 7.878906 71.960938 8.25 72.625 C 10.875 75.085938 13.917969 76.875 17.375 78 C 27.730469 81.183594 38.3125 83.183594 49.125 84 C 72.554688 86.125 95.886719 85.375 119.125 81.75 C 125.050781 80.664062 130.800781 79 136.375 76.75 C 138.957031 75.675781 140.957031 73.96875 142.375 71.625 C 142.332031 74.296875 142.207031 76.960938 142 79.625 C 141.339844 81.371094 140.214844 82.746094 138.625 83.75 C 133.53125 86.585938 128.113281 88.585938 122.375 89.75 C 107.035156 92.851562 91.535156 94.3125 75.875 94.125 C 59.972656 94.296875 44.222656 92.839844 28.625 89.75 C 22.859375 88.578125 17.359375 86.660156 12.125 84 C 10.230469 82.855469 8.773438 81.316406 7.75 79.375 C 7.453125 76.464844 7.328125 73.550781 7.375 70.625 Z M 7.375 70.625 "/>
</g>
</defs>
<g id="surface1">
<use xlink:href="#surface5" mask="url(#mask0)"/>
<use xlink:href="#surface8" mask="url(#mask1)"/>
<use xlink:href="#surface11" mask="url(#mask2)"/>
</g>
</svg>
