<?xml version="1.0" encoding="UTF-8"?>
<svg xmlns="http://www.w3.org/2000/svg" xmlns:xlink="http://www.w3.org/1999/xlink" width="150px" height="px" viewBox="0 0 150 150" version="1.1">
<defs>
<filter id="alpha" filterUnits="objectBoundingBox" x="0%" y="0%" width="100%" height="100%">
  <feColorMatrix type="matrix" in="SourceGraphic" values="0 0 0 0 1 0 0 0 0 1 0 0 0 0 1 0 0 0 1 0"/>
</filter>
<mask id="mask0">
  <g filter="url(#alpha)">
<rect x="0" y="0" width="150" height="150" style="fill:rgb(0%,0%,0%);fill-opacity:0.831373;stroke:none;"/>
  </g>
</mask>
<clipPath id="clip1">
  <rect x="0" y="0" width="150" height="150"/>
</clipPath>
<g id="surface5" clip-path="url(#clip1)">
<path style=" stroke:none;fill-rule:evenodd;fill:rgb(93.333333%,93.333333%,95.294118%);fill-opacity:1;" d="M 101.875 18.125 C 101.515625 18.632812 101.183594 19.175781 100.875 19.75 C 101.1875 20.210938 101.4375 20.710938 101.625 21.25 C 101.46875 21.785156 101.34375 22.324219 101.25 22.875 C 100.832031 23.125 100.417969 23.375 100 23.625 C 99.953125 24.121094 99.996094 24.621094 100.125 25.125 C 99.457031 25.125 98.792969 25.125 98.125 25.125 C 97.597656 24.890625 97.097656 24.597656 96.625 24.25 C 94.625 24.125 92.625 24.082031 90.625 24.125 C 90.933594 22.730469 90.433594 21.769531 89.125 21.25 C 86.789062 21.207031 84.453125 21.082031 82.125 20.875 C 84.253906 17.09375 83.335938 14.386719 79.375 12.75 C 78.375 12.582031 77.375 12.582031 76.375 12.75 C 74.84375 13.355469 74.261719 14.480469 74.625 16.125 C 74.742188 17.625 74.824219 19.125 74.875 20.625 C 72.207031 20.582031 69.539062 20.625 66.875 20.75 C 66.574219 20.976562 66.367188 21.265625 66.25 21.625 C 66.125 22.453125 66.082031 23.289062 66.125 24.125 C 63.789062 24.082031 61.457031 24.125 59.125 24.25 C 58.667969 24.5 58.253906 24.789062 57.875 25.125 C 57.042969 25.125 56.207031 25.125 55.375 25.125 C 53.410156 25.050781 51.453125 24.882812 49.5 24.625 C 48.433594 24.515625 47.558594 24.847656 46.875 25.625 C 45.761719 25.945312 44.800781 26.53125 44 27.375 C 43.4375 28.25 42.9375 29.167969 42.5 30.125 C 42.375 37.707031 42.332031 45.292969 42.375 52.875 C 35.375 52.667969 28.375 52.625 21.375 52.75 C 19.984375 53.390625 19.027344 54.433594 18.5 55.875 C 18.828125 73.121094 19.117188 90.371094 19.375 107.625 C 14.597656 98.71875 12.261719 89.179688 12.375 79 C 13.085938 56.664062 21.835938 38.246094 38.625 23.75 C 52.042969 13.542969 67.125 9.792969 83.875 12.5 C 89.222656 13.324219 94.390625 14.78125 99.375 16.875 C 99.703125 16.671875 99.996094 16.421875 100.25 16.125 C 100.421875 16.445312 100.378906 16.738281 100.125 17 C 100.722656 17.382812 101.308594 17.757812 101.875 18.125 Z M 101.875 18.125 "/>
</g>
<mask id="mask1">
  <g filter="url(#alpha)">
<rect x="0" y="0" width="150" height="150" style="fill:rgb(0%,0%,0%);fill-opacity:0.839216;stroke:none;"/>
  </g>
</mask>
<clipPath id="clip2">
  <rect x="0" y="0" width="150" height="150"/>
</clipPath>
<g id="surface8" clip-path="url(#clip2)">
<path style=" stroke:none;fill-rule:evenodd;fill:rgb(29.019608%,29.411765%,30.196078%);fill-opacity:1;" d="M 98.125 25.125 C 98.503906 25.910156 98.671875 26.742188 98.625 27.625 C 98.308594 28.5625 97.644531 29.105469 96.625 29.25 C 91.625 29.375 86.625 29.417969 81.625 29.375 C 73.957031 29.417969 66.292969 29.375 58.625 29.25 C 58.019531 28.996094 57.683594 28.535156 57.625 27.875 C 57.625 27.375 57.625 26.875 57.625 26.375 C 57.863281 26.019531 57.945312 25.605469 57.875 25.125 C 58.253906 24.789062 58.667969 24.5 59.125 24.25 C 61.457031 24.125 63.789062 24.082031 66.125 24.125 C 66.082031 23.289062 66.125 22.453125 66.25 21.625 C 66.367188 21.265625 66.574219 20.976562 66.875 20.75 C 69.539062 20.625 72.207031 20.582031 74.875 20.625 C 74.824219 19.125 74.742188 17.625 74.625 16.125 C 74.261719 14.480469 74.84375 13.355469 76.375 12.75 C 77.375 12.582031 78.375 12.582031 79.375 12.75 C 83.335938 14.386719 84.253906 17.09375 82.125 20.875 C 84.453125 21.082031 86.789062 21.207031 89.125 21.25 C 90.433594 21.769531 90.933594 22.730469 90.625 24.125 C 92.625 24.082031 94.625 24.125 96.625 24.25 C 97.097656 24.597656 97.597656 24.890625 98.125 25.125 Z M 98.125 25.125 "/>
</g>
<mask id="mask2">
  <g filter="url(#alpha)">
<rect x="0" y="0" width="150" height="150" style="fill:rgb(0%,0%,0%);fill-opacity:0.4;stroke:none;"/>
  </g>
</mask>
<clipPath id="clip3">
  <rect x="0" y="0" width="150" height="150"/>
</clipPath>
<g id="surface11" clip-path="url(#clip3)">
<path style=" stroke:none;fill-rule:evenodd;fill:rgb(78.431373%,79.607843%,83.529412%);fill-opacity:1;" d="M 109.625 13.375 C 109.917969 13.320312 110.167969 13.402344 110.375 13.625 C 109.988281 13.949219 109.738281 13.867188 109.625 13.375 Z M 109.625 13.375 "/>
</g>
<mask id="mask3">
  <g filter="url(#alpha)">
<rect x="0" y="0" width="150" height="150" style="fill:rgb(0%,0%,0%);fill-opacity:0.490196;stroke:none;"/>
  </g>
</mask>
<clipPath id="clip4">
  <rect x="0" y="0" width="150" height="150"/>
</clipPath>
<g id="surface14" clip-path="url(#clip4)">
<path style=" stroke:none;fill-rule:evenodd;fill:rgb(77.647059%,79.607843%,82.745098%);fill-opacity:1;" d="M 103.375 13.875 C 103.679688 14.125 103.636719 14.375 103.25 14.625 C 102.800781 14.320312 102.84375 14.070312 103.375 13.875 Z M 103.375 13.875 "/>
</g>
<mask id="mask4">
  <g filter="url(#alpha)">
<rect x="0" y="0" width="150" height="150" style="fill:rgb(0%,0%,0%);fill-opacity:0.427451;stroke:none;"/>
  </g>
</mask>
<clipPath id="clip5">
  <rect x="0" y="0" width="150" height="150"/>
</clipPath>
<g id="surface17" clip-path="url(#clip5)">
<path style=" stroke:none;fill-rule:evenodd;fill:rgb(78.431373%,79.215686%,83.921569%);fill-opacity:1;" d="M 111.125 13.875 C 111.605469 13.949219 112.023438 14.15625 112.375 14.5 C 111.746094 14.683594 111.328125 14.476562 111.125 13.875 Z M 111.125 13.875 "/>
</g>
<mask id="mask5">
  <g filter="url(#alpha)">
<rect x="0" y="0" width="150" height="150" style="fill:rgb(0%,0%,0%);fill-opacity:0.447059;stroke:none;"/>
  </g>
</mask>
<clipPath id="clip6">
  <rect x="0" y="0" width="150" height="150"/>
</clipPath>
<g id="surface20" clip-path="url(#clip6)">
<path style=" stroke:none;fill-rule:evenodd;fill:rgb(78.039216%,79.215686%,83.529412%);fill-opacity:1;" d="M 101.625 14.875 C 101.84375 14.84375 102.011719 14.925781 102.125 15.125 C 101.824219 15.535156 101.492188 15.617188 101.125 15.375 C 101.3125 15.203125 101.476562 15.039062 101.625 14.875 Z M 101.625 14.875 "/>
</g>
<mask id="mask6">
  <g filter="url(#alpha)">
<rect x="0" y="0" width="150" height="150" style="fill:rgb(0%,0%,0%);fill-opacity:0.447059;stroke:none;"/>
  </g>
</mask>
<clipPath id="clip7">
  <rect x="0" y="0" width="150" height="150"/>
</clipPath>
<g id="surface23" clip-path="url(#clip7)">
<path style=" stroke:none;fill-rule:evenodd;fill:rgb(78.039216%,78.823529%,83.137255%);fill-opacity:1;" d="M 113.125 15.375 C 113.523438 15.03125 113.855469 15.117188 114.125 15.625 C 114.042969 15.707031 113.957031 15.792969 113.875 15.875 C 113.621094 15.703125 113.371094 15.535156 113.125 15.375 Z M 113.125 15.375 "/>
</g>
<mask id="mask7">
  <g filter="url(#alpha)">
<rect x="0" y="0" width="150" height="150" style="fill:rgb(0%,0%,0%);fill-opacity:0.839216;stroke:none;"/>
  </g>
</mask>
<clipPath id="clip8">
  <rect x="0" y="0" width="150" height="150"/>
</clipPath>
<g id="surface26" clip-path="url(#clip8)">
<path style=" stroke:none;fill-rule:evenodd;fill:rgb(90.588235%,90.588235%,92.156863%);fill-opacity:1;" d="M 77.875 15.375 C 79.707031 15.25 80.414062 16.082031 80 17.875 C 78.898438 18.914062 77.898438 18.832031 77 17.625 C 76.832031 17.207031 76.832031 16.792969 77 16.375 C 77.34375 16.074219 77.636719 15.742188 77.875 15.375 Z M 77.875 15.375 "/>
</g>
<mask id="mask8">
  <g filter="url(#alpha)">
<rect x="0" y="0" width="150" height="150" style="fill:rgb(0%,0%,0%);fill-opacity:0.823529;stroke:none;"/>
  </g>
</mask>
<clipPath id="clip9">
  <rect x="0" y="0" width="150" height="150"/>
</clipPath>
<g id="surface29" clip-path="url(#clip9)">
<path style=" stroke:none;fill-rule:evenodd;fill:rgb(78.039216%,79.215686%,82.745098%);fill-opacity:1;" d="M 113.625 25.625 C 113.761719 26.097656 114.011719 26.515625 114.375 26.875 C 113.96875 27.953125 113.21875 28.539062 112.125 28.625 C 111.199219 26.910156 109.785156 25.785156 107.875 25.25 C 105.292969 25.125 102.710938 25.082031 100.125 25.125 C 99.996094 24.621094 99.953125 24.121094 100 23.625 C 100.417969 23.375 100.832031 23.125 101.25 22.875 C 101.34375 22.324219 101.46875 21.785156 101.625 21.25 C 101.4375 20.710938 101.1875 20.210938 100.875 19.75 C 101.183594 19.175781 101.515625 18.632812 101.875 18.125 C 103.171875 18.625 104.214844 18.289062 105 17.125 C 105.125 16.714844 105.164062 16.300781 105.125 15.875 C 105.867188 15.667969 106.617188 15.625 107.375 15.75 C 108.402344 17.253906 109.652344 17.464844 111.125 16.375 C 111.777344 16.695312 112.359375 17.109375 112.875 17.625 C 112.726562 18.09375 112.558594 18.554688 112.375 19 C 112.851562 19.351562 113.1875 19.8125 113.375 20.375 C 113.878906 20.792969 114.460938 20.960938 115.125 20.875 C 115.109375 21.472656 115.195312 22.054688 115.375 22.625 C 115.046875 23.117188 114.632812 23.535156 114.125 23.875 C 113.957031 24.464844 113.789062 25.050781 113.625 25.625 Z M 113.625 25.625 "/>
</g>
<mask id="mask9">
  <g filter="url(#alpha)">
<rect x="0" y="0" width="150" height="150" style="fill:rgb(0%,0%,0%);fill-opacity:0.447059;stroke:none;"/>
  </g>
</mask>
<clipPath id="clip10">
  <rect x="0" y="0" width="150" height="150"/>
</clipPath>
<g id="surface32" clip-path="url(#clip10)">
<path style=" stroke:none;fill-rule:evenodd;fill:rgb(78.431373%,79.215686%,83.137255%);fill-opacity:1;" d="M 114.875 16.625 C 115.519531 16.679688 115.726562 17.015625 115.5 17.625 C 115.128906 17.382812 114.921875 17.050781 114.875 16.625 Z M 114.875 16.625 "/>
</g>
<mask id="mask10">
  <g filter="url(#alpha)">
<rect x="0" y="0" width="150" height="150" style="fill:rgb(0%,0%,0%);fill-opacity:0.462745;stroke:none;"/>
  </g>
</mask>
<clipPath id="clip11">
  <rect x="0" y="0" width="150" height="150"/>
</clipPath>
<g id="surface35" clip-path="url(#clip11)">
<path style=" stroke:none;fill-rule:evenodd;fill:rgb(78.431373%,79.215686%,83.921569%);fill-opacity:1;" d="M 116.125 18.375 C 116.726562 18.578125 116.933594 18.996094 116.75 19.625 C 116.40625 19.273438 116.199219 18.855469 116.125 18.375 Z M 116.125 18.375 "/>
</g>
<mask id="mask11">
  <g filter="url(#alpha)">
<rect x="0" y="0" width="150" height="150" style="fill:rgb(0%,0%,0%);fill-opacity:0.505882;stroke:none;"/>
  </g>
</mask>
<clipPath id="clip12">
  <rect x="0" y="0" width="150" height="150"/>
</clipPath>
<g id="surface38" clip-path="url(#clip12)">
<path style=" stroke:none;fill-rule:evenodd;fill:rgb(77.647059%,79.215686%,83.137255%);fill-opacity:1;" d="M 116.875 20.375 C 117.164062 20.449219 117.328125 20.65625 117.375 21 C 117.332031 21.207031 117.292969 21.417969 117.25 21.625 C 116.996094 21.242188 116.871094 20.828125 116.875 20.375 Z M 116.875 20.375 "/>
</g>
<mask id="mask12">
  <g filter="url(#alpha)">
<rect x="0" y="0" width="150" height="150" style="fill:rgb(0%,0%,0%);fill-opacity:0.517647;stroke:none;"/>
  </g>
</mask>
<clipPath id="clip13">
  <rect x="0" y="0" width="150" height="150"/>
</clipPath>
<g id="surface41" clip-path="url(#clip13)">
<path style=" stroke:none;fill-rule:evenodd;fill:rgb(77.647059%,78.431373%,82.745098%);fill-opacity:1;" d="M 117.375 22.625 C 117.652344 22.988281 117.695312 23.402344 117.5 23.875 C 117.375 23.464844 117.335938 23.050781 117.375 22.625 Z M 117.375 22.625 "/>
</g>
<mask id="mask13">
  <g filter="url(#alpha)">
<rect x="0" y="0" width="150" height="150" style="fill:rgb(0%,0%,0%);fill-opacity:0.839216;stroke:none;"/>
  </g>
</mask>
<clipPath id="clip14">
  <rect x="0" y="0" width="150" height="150"/>
</clipPath>
<g id="surface44" clip-path="url(#clip14)">
<path style=" stroke:none;fill-rule:evenodd;fill:rgb(83.921569%,84.705882%,87.45098%);fill-opacity:1;" d="M 55.375 25.125 C 56.054688 25.476562 56.804688 25.644531 57.625 25.625 C 57.625 25.875 57.625 26.125 57.625 26.375 C 57.625 26.875 57.625 27.375 57.625 27.875 C 54.828125 27.238281 51.996094 26.863281 49.125 26.75 C 48.832031 27.042969 48.542969 27.332031 48.25 27.625 C 48.125 37.707031 48.082031 47.792969 48.125 57.875 C 48.125 65.957031 48.125 74.042969 48.125 82.125 C 47.875 82.125 47.625 82.125 47.375 82.125 C 47.382812 63.25 47.214844 44.414062 46.875 25.625 C 47.558594 24.847656 48.433594 24.515625 49.5 24.625 C 51.453125 24.882812 53.410156 25.050781 55.375 25.125 Z M 55.375 25.125 "/>
</g>
<mask id="mask14">
  <g filter="url(#alpha)">
<rect x="0" y="0" width="150" height="150" style="fill:rgb(0%,0%,0%);fill-opacity:0.494118;stroke:none;"/>
  </g>
</mask>
<clipPath id="clip15">
  <rect x="0" y="0" width="150" height="150"/>
</clipPath>
<g id="surface47" clip-path="url(#clip15)">
<path style=" stroke:none;fill-rule:evenodd;fill:rgb(78.039216%,79.215686%,83.137255%);fill-opacity:1;" d="M 117.125 24.875 C 117.308594 24.84375 117.476562 24.882812 117.625 25 C 117.054688 26.46875 116.886719 26.429688 117.125 24.875 Z M 117.125 24.875 "/>
</g>
<mask id="mask15">
  <g filter="url(#alpha)">
<rect x="0" y="0" width="150" height="150" style="fill:rgb(0%,0%,0%);fill-opacity:0.839216;stroke:none;"/>
  </g>
</mask>
<clipPath id="clip16">
  <rect x="0" y="0" width="150" height="150"/>
</clipPath>
<g id="surface50" clip-path="url(#clip16)">
<path style=" stroke:none;fill-rule:evenodd;fill:rgb(57.647059%,58.431373%,60.392157%);fill-opacity:1;" d="M 55.375 25.125 C 56.207031 25.125 57.042969 25.125 57.875 25.125 C 57.945312 25.605469 57.863281 26.019531 57.625 26.375 C 57.625 26.125 57.625 25.875 57.625 25.625 C 56.804688 25.644531 56.054688 25.476562 55.375 25.125 Z M 55.375 25.125 "/>
</g>
<mask id="mask16">
  <g filter="url(#alpha)">
<rect x="0" y="0" width="150" height="150" style="fill:rgb(0%,0%,0%);fill-opacity:0.839216;stroke:none;"/>
  </g>
</mask>
<clipPath id="clip17">
  <rect x="0" y="0" width="150" height="150"/>
</clipPath>
<g id="surface53" clip-path="url(#clip17)">
<path style=" stroke:none;fill-rule:evenodd;fill:rgb(45.882353%,46.666667%,48.627451%);fill-opacity:1;" d="M 98.125 25.125 C 98.792969 25.125 99.457031 25.125 100.125 25.125 C 102.710938 25.082031 105.292969 25.125 107.875 25.25 C 109.785156 25.785156 111.199219 26.910156 112.125 28.625 C 112.492188 30.46875 112.742188 32.304688 112.875 34.125 C 113.011719 41.007812 113.34375 47.839844 113.875 54.625 C 113.875 54.707031 113.875 54.792969 113.875 54.875 C 113.875 55.625 113.875 56.375 113.875 57.125 C 114.433594 57.050781 114.933594 57.132812 115.375 57.375 C 114.957031 57.375 114.542969 57.375 114.125 57.375 C 114.238281 61.792969 114.40625 66.210938 114.625 70.625 C 113.398438 69.957031 112.0625 69.707031 110.625 69.875 C 110 56.121094 109.292969 42.371094 108.5 28.625 C 108.207031 28 107.75 27.542969 107.125 27.25 C 104.292969 27.28125 101.457031 27.40625 98.625 27.625 C 98.671875 26.742188 98.503906 25.910156 98.125 25.125 Z M 98.125 25.125 "/>
</g>
<mask id="mask17">
  <g filter="url(#alpha)">
<rect x="0" y="0" width="150" height="150" style="fill:rgb(0%,0%,0%);fill-opacity:0.839216;stroke:none;"/>
  </g>
</mask>
<clipPath id="clip18">
  <rect x="0" y="0" width="150" height="150"/>
</clipPath>
<g id="surface56" clip-path="url(#clip18)">
<path style=" stroke:none;fill-rule:evenodd;fill:rgb(45.490196%,46.27451%,48.235294%);fill-opacity:1;" d="M 46.875 25.625 C 47.214844 44.414062 47.382812 63.25 47.375 82.125 C 46.171875 82.5625 44.921875 82.8125 43.625 82.875 C 43.207031 82.875 42.792969 82.875 42.375 82.875 C 42.375 73.707031 42.375 64.542969 42.375 55.375 C 40.992188 55.457031 39.660156 55.371094 38.375 55.125 C 39.707031 55.125 41.042969 55.125 42.375 55.125 C 42.375 54.375 42.375 53.625 42.375 52.875 C 42.332031 45.292969 42.375 37.707031 42.5 30.125 C 42.9375 29.167969 43.4375 28.25 44 27.375 C 44.800781 26.53125 45.761719 25.945312 46.875 25.625 Z M 46.875 25.625 "/>
</g>
<mask id="mask18">
  <g filter="url(#alpha)">
<rect x="0" y="0" width="150" height="150" style="fill:rgb(0%,0%,0%);fill-opacity:0.568627;stroke:none;"/>
  </g>
</mask>
<clipPath id="clip19">
  <rect x="0" y="0" width="150" height="150"/>
</clipPath>
<g id="surface59" clip-path="url(#clip19)">
<path style=" stroke:none;fill-rule:evenodd;fill:rgb(77.647059%,78.823529%,82.745098%);fill-opacity:1;" d="M 122.875 25.875 C 123.355469 25.808594 123.773438 25.933594 124.125 26.25 C 124 26.375 123.875 26.5 123.75 26.625 C 123.316406 26.507812 123.027344 26.257812 122.875 25.875 Z M 122.875 25.875 "/>
</g>
<mask id="mask19">
  <g filter="url(#alpha)">
<rect x="0" y="0" width="150" height="150" style="fill:rgb(0%,0%,0%);fill-opacity:0.815686;stroke:none;"/>
  </g>
</mask>
<clipPath id="clip20">
  <rect x="0" y="0" width="150" height="150"/>
</clipPath>
<g id="surface62" clip-path="url(#clip20)">
<path style=" stroke:none;fill-rule:evenodd;fill:rgb(92.156863%,92.156863%,94.117647%);fill-opacity:1;" d="M 113.625 25.625 C 114.527344 26.230469 115.402344 26.898438 116.25 27.625 C 116.355469 27.332031 116.519531 27.082031 116.75 26.875 C 116.566406 28 117.027344 28.835938 118.125 29.375 C 117.34375 29.71875 116.511719 29.96875 115.625 30.125 C 115.582031 30.96875 115.457031 31.800781 115.25 32.625 C 114.386719 33.035156 113.597656 33.535156 112.875 34.125 C 112.742188 32.304688 112.492188 30.46875 112.125 28.625 C 113.21875 28.539062 113.96875 27.953125 114.375 26.875 C 114.011719 26.515625 113.761719 26.097656 113.625 25.625 Z M 113.625 25.625 "/>
</g>
<mask id="mask20">
  <g filter="url(#alpha)">
<rect x="0" y="0" width="150" height="150" style="fill:rgb(0%,0%,0%);fill-opacity:0.839216;stroke:none;"/>
  </g>
</mask>
<clipPath id="clip21">
  <rect x="0" y="0" width="150" height="150"/>
</clipPath>
<g id="surface65" clip-path="url(#clip21)">
<path style=" stroke:none;fill-rule:evenodd;fill:rgb(99.607843%,99.607843%,99.607843%);fill-opacity:1;" d="M 57.625 27.875 C 57.683594 28.535156 58.019531 28.996094 58.625 29.25 C 66.292969 29.375 73.957031 29.417969 81.625 29.375 C 89.835938 29.605469 98.085938 29.648438 106.375 29.5 C 106.554688 29.8125 106.761719 30.105469 107 30.375 C 107.886719 43.867188 108.597656 57.367188 109.125 70.875 C 109.125 70.957031 109.125 71.042969 109.125 71.125 C 108.828125 72.660156 108.289062 74.160156 107.5 75.625 C 107.203125 76.683594 107.410156 77.601562 108.125 78.375 C 107.644531 79.316406 107.519531 80.316406 107.75 81.375 C 107.84375 81.734375 108.050781 81.984375 108.375 82.125 C 107.730469 83 107.144531 83.914062 106.625 84.875 C 105.703125 85.75 104.621094 86.375 103.375 86.75 C 101.085938 86.914062 99.625 85.871094 99 83.625 C 98.765625 82.464844 98.890625 81.382812 99.375 80.375 C 101.128906 80.417969 102.878906 80.375 104.625 80.25 C 105.132812 79.902344 105.214844 79.484375 104.875 79 C 103.042969 78.875 101.210938 78.832031 99.375 78.875 C 99.246094 78.449219 98.996094 78.117188 98.625 77.875 C 98.351562 78.097656 98.351562 78.347656 98.625 78.625 C 98.5 78.878906 98.332031 78.921875 98.125 78.75 C 97.410156 78.191406 96.910156 77.484375 96.625 76.625 C 96.476562 76.675781 96.351562 76.761719 96.25 76.875 C 96.125 77.367188 96.085938 77.867188 96.125 78.375 C 86.082031 78.582031 76 78.707031 65.875 78.75 C 65.355469 79.222656 65.273438 79.761719 65.625 80.375 C 76.363281 80.53125 87.113281 80.53125 97.875 80.375 C 96.742188 82.886719 96.910156 85.304688 98.375 87.625 C 87.542969 87.367188 76.710938 87.324219 65.875 87.5 C 65.402344 87.953125 65.277344 88.492188 65.5 89.125 C 76.941406 89.339844 88.398438 89.339844 99.875 89.125 C 101.515625 90.101562 103.265625 90.351562 105.125 89.875 C 105.785156 90.691406 106.328125 91.609375 106.75 92.625 C 107.335938 94.222656 107.875 95.804688 108.375 97.375 C 108.417969 98.128906 108.375 98.878906 108.25 99.625 C 106.839844 104.179688 105.550781 108.761719 104.375 113.375 C 103.199219 113.800781 101.949219 114.007812 100.625 114 C 92.792969 114.351562 84.960938 114.683594 77.125 115 C 67.867188 115.238281 58.617188 115.15625 49.375 114.75 C 48.988281 114.445312 48.695312 114.070312 48.5 113.625 C 48.375 106.292969 48.332031 98.957031 48.375 91.625 C 49.179688 90.183594 49.847656 88.683594 50.375 87.125 C 50.269531 86.945312 50.105469 86.820312 49.875 86.75 C 52.691406 85.097656 54.816406 82.808594 56.25 79.875 C 56.285156 80.644531 56.496094 81.351562 56.875 82 C 58.707031 82.167969 60.542969 82.167969 62.375 82 C 62.5 81.875 62.625 81.75 62.75 81.625 C 63.859375 76.898438 62.109375 75.316406 57.5 76.875 C 57.496094 76.300781 57.539062 75.71875 57.625 75.125 C 59.164062 74.8125 60.707031 74.476562 62.25 74.125 C 62.417969 72.625 62.417969 71.125 62.25 69.625 C 61.796875 69.011719 61.171875 68.761719 60.375 68.875 C 59.042969 69.007812 57.710938 69.132812 56.375 69.25 C 56.25 69.375 56.125 69.5 56 69.625 C 55.773438 71.160156 55.898438 72.660156 56.375 74.125 C 56.507812 74.296875 56.671875 74.421875 56.875 74.5 C 56.113281 76.511719 54.863281 78.179688 53.125 79.5 C 51.734375 80.488281 50.234375 81.277344 48.625 81.875 C 48.457031 73.835938 48.292969 65.835938 48.125 57.875 C 48.082031 47.792969 48.125 37.707031 48.25 27.625 C 48.542969 27.332031 48.832031 27.042969 49.125 26.75 C 51.996094 26.863281 54.828125 27.238281 57.625 27.875 Z M 57.625 27.875 "/>
</g>
<mask id="mask21">
  <g filter="url(#alpha)">
<rect x="0" y="0" width="150" height="150" style="fill:rgb(0%,0%,0%);fill-opacity:0.568627;stroke:none;"/>
  </g>
</mask>
<clipPath id="clip22">
  <rect x="0" y="0" width="150" height="150"/>
</clipPath>
<g id="surface68" clip-path="url(#clip22)">
<path style=" stroke:none;fill-rule:evenodd;fill:rgb(77.647059%,78.823529%,83.137255%);fill-opacity:1;" d="M 125.625 26.875 C 126.367188 26.789062 126.949219 27.039062 127.375 27.625 C 127.292969 27.707031 127.207031 27.792969 127.125 27.875 C 126.492188 27.675781 125.992188 27.339844 125.625 26.875 Z M 125.625 26.875 "/>
</g>
<mask id="mask22">
  <g filter="url(#alpha)">
<rect x="0" y="0" width="150" height="150" style="fill:rgb(0%,0%,0%);fill-opacity:0.839216;stroke:none;"/>
  </g>
</mask>
<clipPath id="clip23">
  <rect x="0" y="0" width="150" height="150"/>
</clipPath>
<g id="surface71" clip-path="url(#clip23)">
<path style=" stroke:none;fill-rule:evenodd;fill:rgb(83.137255%,83.921569%,86.666667%);fill-opacity:1;" d="M 110.625 69.875 C 110.035156 70.085938 109.535156 70.417969 109.125 70.875 C 108.597656 57.367188 107.886719 43.867188 107 30.375 C 106.761719 30.105469 106.554688 29.8125 106.375 29.5 C 98.085938 29.648438 89.835938 29.605469 81.625 29.375 C 86.625 29.417969 91.625 29.375 96.625 29.25 C 97.644531 29.105469 98.308594 28.5625 98.625 27.625 C 101.457031 27.40625 104.292969 27.28125 107.125 27.25 C 107.75 27.542969 108.207031 28 108.5 28.625 C 109.292969 42.371094 110 56.121094 110.625 69.875 Z M 110.625 69.875 "/>
</g>
<mask id="mask23">
  <g filter="url(#alpha)">
<rect x="0" y="0" width="150" height="150" style="fill:rgb(0%,0%,0%);fill-opacity:0.596078;stroke:none;"/>
  </g>
</mask>
<clipPath id="clip24">
  <rect x="0" y="0" width="150" height="150"/>
</clipPath>
<g id="surface74" clip-path="url(#clip24)">
<path style=" stroke:none;fill-rule:evenodd;fill:rgb(78.039216%,79.215686%,83.137255%);fill-opacity:1;" d="M 128.875 28.625 C 129.609375 28.730469 130.191406 29.105469 130.625 29.75 C 130.375 29.917969 130.125 29.917969 129.875 29.75 C 129.339844 29.53125 129.007812 29.15625 128.875 28.625 Z M 128.875 28.625 "/>
</g>
<mask id="mask24">
  <g filter="url(#alpha)">
<rect x="0" y="0" width="150" height="150" style="fill:rgb(0%,0%,0%);fill-opacity:0.831373;stroke:none;"/>
  </g>
</mask>
<clipPath id="clip25">
  <rect x="0" y="0" width="150" height="150"/>
</clipPath>
<g id="surface77" clip-path="url(#clip25)">
<path style=" stroke:none;fill-rule:evenodd;fill:rgb(77.647059%,78.823529%,82.745098%);fill-opacity:1;" d="M 118.125 29.375 C 118.597656 29.324219 118.972656 29.492188 119.25 29.875 C 119.507812 30.4375 119.800781 30.976562 120.125 31.5 C 121.230469 31.714844 122.316406 32.003906 123.375 32.375 C 124.082031 31.8125 124.832031 31.3125 125.625 30.875 C 126.453125 31.410156 127.242188 31.992188 128 32.625 C 128.058594 33.433594 127.933594 34.226562 127.625 35 C 128.257812 35.894531 128.800781 36.851562 129.25 37.875 C 130.136719 38.058594 131.011719 38.308594 131.875 38.625 C 132.21875 39.6875 132.34375 40.769531 132.25 41.875 C 131.542969 42.230469 130.875 42.644531 130.25 43.125 C 130.121094 44.140625 129.914062 45.140625 129.625 46.125 C 129.941406 46.734375 130.316406 47.320312 130.75 47.875 C 130.910156 48.316406 130.867188 48.734375 130.625 49.125 C 130 49.542969 129.5 50.085938 129.125 50.75 C 128.371094 50.75 127.621094 50.625 126.875 50.375 C 125.914062 50.957031 124.914062 51.5 123.875 52 C 123.507812 52.832031 123.339844 53.707031 123.375 54.625 C 122.949219 54.585938 122.535156 54.625 122.125 54.75 C 122.675781 54.796875 123.175781 54.921875 123.625 55.125 C 121.996094 55.207031 120.410156 55.121094 118.875 54.875 C 119.246094 54.941406 119.578125 54.855469 119.875 54.625 C 119.636719 54.019531 119.300781 53.480469 118.875 53 C 117.71875 52.972656 116.636719 52.679688 115.625 52.125 C 115.117188 52.589844 114.578125 53.007812 114 53.375 C 113.875 53.785156 113.835938 54.199219 113.875 54.625 C 113.34375 47.839844 113.011719 41.007812 112.875 34.125 C 113.597656 33.535156 114.386719 33.035156 115.25 32.625 C 115.457031 31.800781 115.582031 30.96875 115.625 30.125 C 116.511719 29.96875 117.34375 29.71875 118.125 29.375 Z M 118.125 29.375 "/>
</g>
<mask id="mask25">
  <g filter="url(#alpha)">
<rect x="0" y="0" width="150" height="150" style="fill:rgb(0%,0%,0%);fill-opacity:0.552941;stroke:none;"/>
  </g>
</mask>
<clipPath id="clip26">
  <rect x="0" y="0" width="150" height="150"/>
</clipPath>
<g id="surface80" clip-path="url(#clip26)">
<path style=" stroke:none;fill-rule:evenodd;fill:rgb(77.647059%,79.215686%,82.745098%);fill-opacity:1;" d="M 131.625 31.125 C 132.265625 31.347656 132.765625 31.765625 133.125 32.375 C 132.875 32.707031 132.625 32.707031 132.375 32.375 C 132.011719 32.015625 131.761719 31.597656 131.625 31.125 Z M 131.625 31.125 "/>
</g>
<mask id="mask26">
  <g filter="url(#alpha)">
<rect x="0" y="0" width="150" height="150" style="fill:rgb(0%,0%,0%);fill-opacity:0.839216;stroke:none;"/>
  </g>
</mask>
<clipPath id="clip27">
  <rect x="0" y="0" width="150" height="150"/>
</clipPath>
<g id="surface83" clip-path="url(#clip27)">
<path style=" stroke:none;fill-rule:evenodd;fill:rgb(96.862745%,87.843137%,34.509804%);fill-opacity:1;" d="M 55.375 33.625 C 62.230469 33.804688 69.0625 34.097656 75.875 34.5 C 76.46875 35.167969 76.757812 35.960938 76.75 36.875 C 76.957031 42.136719 76.914062 47.386719 76.625 52.625 C 76.492188 52.796875 76.328125 52.921875 76.125 53 C 69.542969 53.453125 62.960938 53.453125 56.375 53 C 56.25 52.875 56.125 52.75 56 52.625 C 55.40625 46.292969 55.199219 39.957031 55.375 33.625 Z M 55.375 33.625 "/>
</g>
<mask id="mask27">
  <g filter="url(#alpha)">
<rect x="0" y="0" width="150" height="150" style="fill:rgb(0%,0%,0%);fill-opacity:0.576471;stroke:none;"/>
  </g>
</mask>
<clipPath id="clip28">
  <rect x="0" y="0" width="150" height="150"/>
</clipPath>
<g id="surface86" clip-path="url(#clip28)">
<path style=" stroke:none;fill-rule:evenodd;fill:rgb(78.039216%,79.215686%,83.529412%);fill-opacity:1;" d="M 133.875 34.125 C 134.609375 34.511719 134.859375 35.09375 134.625 35.875 C 134.039062 35.449219 133.789062 34.867188 133.875 34.125 Z M 133.875 34.125 "/>
</g>
<mask id="mask28">
  <g filter="url(#alpha)">
<rect x="0" y="0" width="150" height="150" style="fill:rgb(0%,0%,0%);fill-opacity:0.839216;stroke:none;"/>
  </g>
</mask>
<clipPath id="clip29">
  <rect x="0" y="0" width="150" height="150"/>
</clipPath>
<g id="surface89" clip-path="url(#clip29)">
<path style=" stroke:none;fill-rule:evenodd;fill:rgb(90.980392%,90.980392%,92.54902%);fill-opacity:1;" d="M 81.125 34.875 C 88.292969 34.875 95.460938 35 102.625 35.25 C 103.292969 35.582031 103.292969 35.917969 102.625 36.25 C 95.625 36.417969 88.625 36.417969 81.625 36.25 C 81.210938 35.890625 81.042969 35.429688 81.125 34.875 Z M 81.125 34.875 "/>
</g>
<mask id="mask29">
  <g filter="url(#alpha)">
<rect x="0" y="0" width="150" height="150" style="fill:rgb(0%,0%,0%);fill-opacity:0.839216;stroke:none;"/>
  </g>
</mask>
<clipPath id="clip30">
  <rect x="0" y="0" width="150" height="150"/>
</clipPath>
<g id="surface92" clip-path="url(#clip30)">
<path style=" stroke:none;fill-rule:evenodd;fill:rgb(99.607843%,99.607843%,98.039216%);fill-opacity:1;" d="M 64.125 36.375 C 66.425781 35.773438 68.050781 36.523438 69 38.625 C 69.183594 39.566406 69.101562 40.480469 68.75 41.375 C 68.179688 42.363281 67.511719 43.277344 66.75 44.125 C 66.449219 44.667969 66.324219 45.253906 66.375 45.875 C 65.625 45.875 64.875 45.875 64.125 45.875 C 64.089844 44.03125 64.796875 42.53125 66.25 41.375 C 66.949219 38.535156 65.992188 37.785156 63.375 39.125 C 62.953125 38.617188 62.617188 38.03125 62.375 37.375 C 62.871094 36.859375 63.453125 36.527344 64.125 36.375 Z M 64.125 36.375 "/>
</g>
<mask id="mask30">
  <g filter="url(#alpha)">
<rect x="0" y="0" width="150" height="150" style="fill:rgb(0%,0%,0%);fill-opacity:0.54902;stroke:none;"/>
  </g>
</mask>
<clipPath id="clip31">
  <rect x="0" y="0" width="150" height="150"/>
</clipPath>
<g id="surface95" clip-path="url(#clip31)">
<path style=" stroke:none;fill-rule:evenodd;fill:rgb(77.647059%,78.823529%,82.745098%);fill-opacity:1;" d="M 135.125 37.625 C 135.4375 37.644531 135.644531 37.8125 135.75 38.125 C 135.949219 38.566406 135.90625 38.980469 135.625 39.375 C 135.339844 38.824219 135.175781 38.238281 135.125 37.625 Z M 135.125 37.625 "/>
</g>
<mask id="mask31">
  <g filter="url(#alpha)">
<rect x="0" y="0" width="150" height="150" style="fill:rgb(0%,0%,0%);fill-opacity:0.839216;stroke:none;"/>
  </g>
</mask>
<clipPath id="clip32">
  <rect x="0" y="0" width="150" height="150"/>
</clipPath>
<g id="surface98" clip-path="url(#clip32)">
<path style=" stroke:none;fill-rule:evenodd;fill:rgb(90.980392%,91.372549%,92.941176%);fill-opacity:1;" d="M 81.125 38.125 C 88.292969 38.089844 95.460938 38.214844 102.625 38.5 C 102.957031 38.832031 102.957031 39.167969 102.625 39.5 C 95.707031 39.667969 88.792969 39.667969 81.875 39.5 C 81.332031 39.207031 81.082031 38.75 81.125 38.125 Z M 81.125 38.125 "/>
</g>
<mask id="mask32">
  <g filter="url(#alpha)">
<rect x="0" y="0" width="150" height="150" style="fill:rgb(0%,0%,0%);fill-opacity:0.427451;stroke:none;"/>
  </g>
</mask>
<clipPath id="clip33">
  <rect x="0" y="0" width="150" height="150"/>
</clipPath>
<g id="surface101" clip-path="url(#clip33)">
<path style=" stroke:none;fill-rule:evenodd;fill:rgb(78.039216%,79.215686%,82.745098%);fill-opacity:1;" d="M 135.875 41.125 C 136.027344 41.152344 136.152344 41.234375 136.25 41.375 C 136.375 41.953125 136.414062 42.535156 136.375 43.125 C 136.125 43.125 135.875 43.125 135.625 43.125 C 135.570312 42.429688 135.652344 41.761719 135.875 41.125 Z M 135.875 41.125 "/>
</g>
<mask id="mask33">
  <g filter="url(#alpha)">
<rect x="0" y="0" width="150" height="150" style="fill:rgb(0%,0%,0%);fill-opacity:0.839216;stroke:none;"/>
  </g>
</mask>
<clipPath id="clip34">
  <rect x="0" y="0" width="150" height="150"/>
</clipPath>
<g id="surface104" clip-path="url(#clip34)">
<path style=" stroke:none;fill-rule:evenodd;fill:rgb(90.980392%,90.980392%,92.54902%);fill-opacity:1;" d="M 81.125 41.375 C 88.292969 41.359375 95.460938 41.484375 102.625 41.75 C 102.957031 42.082031 102.957031 42.417969 102.625 42.75 C 95.707031 42.917969 88.792969 42.917969 81.875 42.75 C 81.242188 42.519531 80.992188 42.058594 81.125 41.375 Z M 81.125 41.375 "/>
</g>
<mask id="mask34">
  <g filter="url(#alpha)">
<rect x="0" y="0" width="150" height="150" style="fill:rgb(0%,0%,0%);fill-opacity:0.552941;stroke:none;"/>
  </g>
</mask>
<clipPath id="clip35">
  <rect x="0" y="0" width="150" height="150"/>
</clipPath>
<g id="surface107" clip-path="url(#clip35)">
<path style=" stroke:none;fill-rule:evenodd;fill:rgb(77.647059%,79.215686%,82.745098%);fill-opacity:1;" d="M 135.625 44.875 C 135.820312 44.945312 135.988281 45.070312 136.125 45.25 C 135.96875 45.835938 135.71875 46.378906 135.375 46.875 C 135.207031 46.203125 135.289062 45.535156 135.625 44.875 Z M 135.625 44.875 "/>
</g>
<mask id="mask35">
  <g filter="url(#alpha)">
<rect x="0" y="0" width="150" height="150" style="fill:rgb(0%,0%,0%);fill-opacity:0.839216;stroke:none;"/>
  </g>
</mask>
<clipPath id="clip36">
  <rect x="0" y="0" width="150" height="150"/>
</clipPath>
<g id="surface110" clip-path="url(#clip36)">
<path style=" stroke:none;fill-rule:evenodd;fill:rgb(99.607843%,99.215686%,97.254902%);fill-opacity:1;" d="M 64.625 47.625 C 66.8125 47.601562 67.394531 48.5625 66.375 50.5 C 64.546875 51.078125 63.671875 50.453125 63.75 48.625 C 63.921875 48.164062 64.214844 47.828125 64.625 47.625 Z M 64.625 47.625 "/>
</g>
<mask id="mask36">
  <g filter="url(#alpha)">
<rect x="0" y="0" width="150" height="150" style="fill:rgb(0%,0%,0%);fill-opacity:0.6;stroke:none;"/>
  </g>
</mask>
<clipPath id="clip37">
  <rect x="0" y="0" width="150" height="150"/>
</clipPath>
<g id="surface113" clip-path="url(#clip37)">
<path style=" stroke:none;fill-rule:evenodd;fill:rgb(78.039216%,79.215686%,83.137255%);fill-opacity:1;" d="M 134.375 48.375 C 135 49.070312 134.875 49.738281 134 50.375 C 133.988281 49.695312 134.113281 49.027344 134.375 48.375 Z M 134.375 48.375 "/>
</g>
<mask id="mask37">
  <g filter="url(#alpha)">
<rect x="0" y="0" width="150" height="150" style="fill:rgb(0%,0%,0%);fill-opacity:0.819608;stroke:none;"/>
  </g>
</mask>
<clipPath id="clip38">
  <rect x="0" y="0" width="150" height="150"/>
</clipPath>
<g id="surface116" clip-path="url(#clip38)">
<path style=" stroke:none;fill-rule:evenodd;fill:rgb(92.156863%,92.156863%,94.117647%);fill-opacity:1;" d="M 130.625 49.125 C 131.011719 50.324219 131.46875 51.492188 132 52.625 C 132.234375 52.234375 132.527344 51.902344 132.875 51.625 C 132.957031 51.75 133.042969 51.875 133.125 52 C 132.792969 52.5 132.457031 53 132.125 53.5 C 137.253906 70.417969 136.671875 87.125 130.375 103.625 C 130.207031 101.625 130.125 99.585938 130.125 97.5 C 130.4375 84.042969 130.5625 70.585938 130.5 57.125 C 130.027344 56.234375 129.320312 55.609375 128.375 55.25 C 126.792969 55.125 125.210938 55.082031 123.625 55.125 C 123.175781 54.921875 122.675781 54.796875 122.125 54.75 C 122.535156 54.625 122.949219 54.585938 123.375 54.625 C 123.339844 53.707031 123.507812 52.832031 123.875 52 C 124.914062 51.5 125.914062 50.957031 126.875 50.375 C 127.621094 50.625 128.371094 50.75 129.125 50.75 C 129.5 50.085938 130 49.542969 130.625 49.125 Z M 130.625 49.125 "/>
</g>
<mask id="mask38">
  <g filter="url(#alpha)">
<rect x="0" y="0" width="150" height="150" style="fill:rgb(0%,0%,0%);fill-opacity:0.839216;stroke:none;"/>
  </g>
</mask>
<clipPath id="clip39">
  <rect x="0" y="0" width="150" height="150"/>
</clipPath>
<g id="surface119" clip-path="url(#clip39)">
<path style=" stroke:none;fill-rule:evenodd;fill:rgb(92.156863%,92.54902%,94.509804%);fill-opacity:1;" d="M 118.875 54.875 C 117.207031 54.875 115.542969 54.875 113.875 54.875 C 113.875 54.792969 113.875 54.707031 113.875 54.625 C 113.835938 54.199219 113.875 53.785156 114 53.375 C 114.578125 53.007812 115.117188 52.589844 115.625 52.125 C 116.636719 52.679688 117.71875 52.972656 118.875 53 C 119.300781 53.480469 119.636719 54.019531 119.875 54.625 C 119.578125 54.855469 119.246094 54.941406 118.875 54.875 Z M 118.875 54.875 "/>
</g>
<mask id="mask39">
  <g filter="url(#alpha)">
<rect x="0" y="0" width="150" height="150" style="fill:rgb(0%,0%,0%);fill-opacity:0.831373;stroke:none;"/>
  </g>
</mask>
<clipPath id="clip40">
  <rect x="0" y="0" width="150" height="150"/>
</clipPath>
<g id="surface122" clip-path="url(#clip40)">
<path style=" stroke:none;fill-rule:evenodd;fill:rgb(20.784314%,21.176471%,21.568627%);fill-opacity:1;" d="M 42.375 52.875 C 42.375 53.625 42.375 54.375 42.375 55.125 C 41.042969 55.125 39.707031 55.125 38.375 55.125 C 33.042969 54.933594 27.710938 54.890625 22.375 55 C 21.582031 55.457031 20.957031 56.082031 20.5 56.875 C 20.699219 77.210938 21.117188 97.542969 21.75 117.875 C 21.945312 118.320312 22.238281 118.695312 22.625 119 C 25.039062 119.125 27.457031 119.167969 29.875 119.125 C 29.828125 114.289062 29.910156 109.453125 30.125 104.625 C 33.15625 105.046875 36.15625 104.882812 39.125 104.125 C 39.125 109.125 39.125 114.125 39.125 119.125 C 40.707031 119.125 42.292969 119.125 43.875 119.125 C 44.242188 119.269531 44.578125 119.476562 44.875 119.75 C 47.332031 119.792969 49.792969 119.832031 52.25 119.875 C 70.371094 119.460938 88.496094 119.210938 106.625 119.125 C 107.023438 119.667969 107.355469 120.25 107.625 120.875 C 84.875 120.875 62.125 120.875 39.375 120.875 C 39.507812 122.914062 39.675781 124.914062 39.875 126.875 C 39.832031 127.121094 39.914062 127.289062 40.125 127.375 C 40.175781 129.390625 40.507812 131.347656 41.125 133.25 C 40.984375 133.347656 40.902344 133.472656 40.875 133.625 C 40.210938 133.601562 39.628906 133.769531 39.125 134.125 C 38.746094 134.121094 38.453125 133.957031 38.25 133.625 C 37.582031 131.210938 36.957031 128.792969 36.375 126.375 C 36.191406 124.53125 35.941406 122.699219 35.625 120.875 C 35.042969 120.875 34.457031 120.875 33.875 120.875 C 33.875 122.707031 33.875 124.542969 33.875 126.375 C 33.917969 128.792969 33.875 131.210938 33.75 133.625 C 33.652344 133.765625 33.527344 133.847656 33.375 133.875 C 32.875 133.875 32.375 133.875 31.875 133.875 C 31.550781 133.734375 31.34375 133.484375 31.25 133.125 C 30.855469 130.886719 30.5625 128.636719 30.375 126.375 C 30.320312 124.539062 30.234375 122.707031 30.125 120.875 C 26.773438 120.953125 23.4375 120.871094 20.125 120.625 C 19.976562 120.308594 19.851562 119.976562 19.75 119.625 C 19.617188 115.625 19.492188 111.625 19.375 107.625 C 19.117188 90.371094 18.828125 73.121094 18.5 55.875 C 19.027344 54.433594 19.984375 53.390625 21.375 52.75 C 28.375 52.625 35.375 52.667969 42.375 52.875 Z M 42.375 52.875 "/>
</g>
<mask id="mask40">
  <g filter="url(#alpha)">
<rect x="0" y="0" width="150" height="150" style="fill:rgb(0%,0%,0%);fill-opacity:0.839216;stroke:none;"/>
  </g>
</mask>
<clipPath id="clip41">
  <rect x="0" y="0" width="150" height="150"/>
</clipPath>
<g id="surface125" clip-path="url(#clip41)">
<path style=" stroke:none;fill-rule:evenodd;fill:rgb(72.156863%,72.941176%,76.470588%);fill-opacity:1;" d="M 38.375 55.125 C 39.660156 55.371094 40.992188 55.457031 42.375 55.375 C 42.375 64.542969 42.375 73.707031 42.375 82.875 C 42.792969 82.875 43.207031 82.875 43.625 82.875 C 42.257812 83.121094 40.839844 83.207031 39.375 83.125 C 39.375 82.117188 39.460938 81.117188 39.625 80.125 C 41.539062 80.164062 42.164062 79.246094 41.5 77.375 C 41.148438 76.441406 40.773438 75.523438 40.375 74.625 C 41.46875 73.445312 41.34375 72.445312 40 71.625 C 39.460938 71.660156 39.046875 71.910156 38.75 72.375 C 38.199219 71.675781 37.488281 71.46875 36.625 71.75 C 36.097656 72.066406 35.847656 72.523438 35.875 73.125 C 33.96875 73.066406 33.300781 73.941406 33.875 75.75 C 32.714844 76.949219 32.964844 77.617188 34.625 77.75 C 35.125 78.332031 35.707031 78.789062 36.375 79.125 C 35.734375 80.574219 35.234375 82.074219 34.875 83.625 C 29.855469 84.140625 26.523438 86.808594 24.875 91.625 C 24.253906 94.257812 25.003906 96.464844 27.125 98.25 C 27.980469 98.726562 28.898438 98.933594 29.875 98.875 C 30.035156 100.789062 30.121094 102.703125 30.125 104.625 C 29.910156 109.453125 29.828125 114.289062 29.875 119.125 C 27.457031 119.167969 25.039062 119.125 22.625 119 C 22.238281 118.695312 21.945312 118.320312 21.75 117.875 C 21.117188 97.542969 20.699219 77.210938 20.5 56.875 C 20.957031 56.082031 21.582031 55.457031 22.375 55 C 27.710938 54.890625 33.042969 54.933594 38.375 55.125 Z M 38.375 55.125 "/>
</g>
<mask id="mask41">
  <g filter="url(#alpha)">
<rect x="0" y="0" width="150" height="150" style="fill:rgb(0%,0%,0%);fill-opacity:0.835294;stroke:none;"/>
  </g>
</mask>
<clipPath id="clip42">
  <rect x="0" y="0" width="150" height="150"/>
</clipPath>
<g id="surface128" clip-path="url(#clip42)">
<path style=" stroke:none;fill-rule:evenodd;fill:rgb(20.784314%,21.176471%,21.568627%);fill-opacity:1;" d="M 113.875 54.875 C 115.542969 54.875 117.207031 54.875 118.875 54.875 C 120.410156 55.121094 121.996094 55.207031 123.625 55.125 C 125.210938 55.082031 126.792969 55.125 128.375 55.25 C 129.320312 55.609375 130.027344 56.234375 130.5 57.125 C 130.5625 70.585938 130.4375 84.042969 130.125 97.5 C 130.125 99.585938 130.207031 101.625 130.375 103.625 C 130.191406 108.957031 130.066406 114.289062 130 119.625 C 129.898438 119.976562 129.773438 120.308594 129.625 120.625 C 127.011719 120.785156 124.386719 120.871094 121.75 120.875 C 119.203125 120.875 116.746094 120.707031 114.375 120.375 C 114.304688 119.894531 114.386719 119.480469 114.625 119.125 C 118.460938 119.167969 122.292969 119.125 126.125 119 C 126.667969 118.792969 127.042969 118.417969 127.25 117.875 C 127.410156 99.914062 127.703125 81.957031 128.125 64 C 128.753906 60.585938 127.417969 58.417969 124.125 57.5 C 121.210938 57.375 118.292969 57.332031 115.375 57.375 C 114.933594 57.132812 114.433594 57.050781 113.875 57.125 C 113.875 56.375 113.875 55.625 113.875 54.875 Z M 113.875 54.875 "/>
</g>
<mask id="mask42">
  <g filter="url(#alpha)">
<rect x="0" y="0" width="150" height="150" style="fill:rgb(0%,0%,0%);fill-opacity:0.839216;stroke:none;"/>
  </g>
</mask>
<clipPath id="clip43">
  <rect x="0" y="0" width="150" height="150"/>
</clipPath>
<g id="surface131" clip-path="url(#clip43)">
<path style=" stroke:none;fill-rule:evenodd;fill:rgb(90.980392%,90.980392%,92.54902%);fill-opacity:1;" d="M 55.375 57.125 C 71.792969 57.121094 88.210938 57.246094 104.625 57.5 C 105.292969 57.832031 105.292969 58.167969 104.625 58.5 C 88.542969 58.667969 72.457031 58.667969 56.375 58.5 C 55.882812 58.136719 55.550781 57.679688 55.375 57.125 Z M 55.375 57.125 "/>
</g>
<mask id="mask43">
  <g filter="url(#alpha)">
<rect x="0" y="0" width="150" height="150" style="fill:rgb(0%,0%,0%);fill-opacity:0.839216;stroke:none;"/>
  </g>
</mask>
<clipPath id="clip44">
  <rect x="0" y="0" width="150" height="150"/>
</clipPath>
<g id="surface134" clip-path="url(#clip44)">
<path style=" stroke:none;fill-rule:evenodd;fill:rgb(71.764706%,72.941176%,76.470588%);fill-opacity:1;" d="M 115.375 57.375 C 118.292969 57.332031 121.210938 57.375 124.125 57.5 C 127.417969 58.417969 128.753906 60.585938 128.125 64 C 127.703125 81.957031 127.410156 99.914062 127.25 117.875 C 127.042969 118.417969 126.667969 118.792969 126.125 119 C 122.292969 119.125 118.460938 119.167969 114.625 119.125 C 114.789062 118.296875 115.25 117.628906 116 117.125 C 116.320312 116.570312 116.570312 115.988281 116.75 115.375 C 116.734375 112.628906 116.691406 109.878906 116.625 107.125 C 116.9375 105.472656 117.1875 103.804688 117.375 102.125 C 117.355469 100.652344 116.941406 99.320312 116.125 98.125 C 116.125 97.875 116.125 97.625 116.125 97.375 C 119.464844 96.996094 120.839844 95.164062 120.25 91.875 C 119.722656 90.152344 118.929688 88.570312 117.875 87.125 C 117.964844 86.953125 118.050781 86.789062 118.125 86.625 C 120.4375 86.054688 121.019531 84.761719 119.875 82.75 C 121.691406 81.726562 122.398438 80.183594 122 78.125 C 120.933594 74.84375 118.726562 73.511719 115.375 74.125 C 115.636719 73.558594 115.679688 72.976562 115.5 72.375 C 115.023438 71.886719 114.730469 71.300781 114.625 70.625 C 114.40625 66.210938 114.238281 61.792969 114.125 57.375 C 114.542969 57.375 114.957031 57.375 115.375 57.375 Z M 115.375 57.375 "/>
</g>
<mask id="mask44">
  <g filter="url(#alpha)">
<rect x="0" y="0" width="150" height="150" style="fill:rgb(0%,0%,0%);fill-opacity:0.839216;stroke:none;"/>
  </g>
</mask>
<clipPath id="clip45">
  <rect x="0" y="0" width="150" height="150"/>
</clipPath>
<g id="surface137" clip-path="url(#clip45)">
<path style=" stroke:none;fill-rule:evenodd;fill:rgb(90.588235%,90.980392%,92.54902%);fill-opacity:1;" d="M 55.375 61.125 C 71.707031 61.28125 88.042969 61.40625 104.375 61.5 C 104.777344 61.761719 104.941406 62.136719 104.875 62.625 C 88.625 62.667969 72.375 62.625 56.125 62.5 C 55.597656 62.183594 55.347656 61.726562 55.375 61.125 Z M 55.375 61.125 "/>
</g>
<mask id="mask45">
  <g filter="url(#alpha)">
<rect x="0" y="0" width="150" height="150" style="fill:rgb(0%,0%,0%);fill-opacity:0.839216;stroke:none;"/>
  </g>
</mask>
<clipPath id="clip46">
  <rect x="0" y="0" width="150" height="150"/>
</clipPath>
<g id="surface140" clip-path="url(#clip46)">
<path style=" stroke:none;fill-rule:evenodd;fill:rgb(20.392157%,20.784314%,21.176471%);fill-opacity:1;" d="M 110.625 69.875 C 112.0625 69.707031 113.398438 69.957031 114.625 70.625 C 114.730469 71.300781 115.023438 71.886719 115.5 72.375 C 115.679688 72.976562 115.636719 73.558594 115.375 74.125 C 118.726562 73.511719 120.933594 74.84375 122 78.125 C 122.398438 80.183594 121.691406 81.726562 119.875 82.75 C 121.019531 84.761719 120.4375 86.054688 118.125 86.625 C 117.863281 86.664062 117.613281 86.621094 117.375 86.5 C 116.667969 85.5 115.832031 84.625 114.875 83.875 C 114.390625 83.132812 113.722656 82.632812 112.875 82.375 C 112.304688 80.867188 111.804688 79.324219 111.375 77.75 C 111.734375 76.863281 112.402344 76.40625 113.375 76.375 C 113.605469 76.167969 113.769531 75.917969 113.875 75.625 C 113.503906 75.246094 113.042969 74.996094 112.5 74.875 C 112.335938 74.296875 112.210938 73.714844 112.125 73.125 C 111.21875 73.210938 110.382812 73 109.625 72.5 C 109.210938 72.140625 109.042969 71.679688 109.125 71.125 C 109.125 71.042969 109.125 70.957031 109.125 70.875 C 109.535156 70.417969 110.035156 70.085938 110.625 69.875 Z M 110.625 69.875 "/>
</g>
<mask id="mask46">
  <g filter="url(#alpha)">
<rect x="0" y="0" width="150" height="150" style="fill:rgb(0%,0%,0%);fill-opacity:0.839216;stroke:none;"/>
  </g>
</mask>
<clipPath id="clip47">
  <rect x="0" y="0" width="150" height="150"/>
</clipPath>
<g id="surface143" clip-path="url(#clip47)">
<path style=" stroke:none;fill-rule:evenodd;fill:rgb(72.54902%,73.72549%,77.254902%);fill-opacity:1;" d="M 65.125 71.125 C 78.207031 71.082031 91.292969 71.125 104.375 71.25 C 104.707031 71.667969 104.707031 72.082031 104.375 72.5 C 91.375 72.847656 78.375 72.929688 65.375 72.75 C 64.792969 72.289062 64.707031 71.746094 65.125 71.125 Z M 65.125 71.125 "/>
</g>
<mask id="mask47">
  <g filter="url(#alpha)">
<rect x="0" y="0" width="150" height="150" style="fill:rgb(0%,0%,0%);fill-opacity:0.839216;stroke:none;"/>
  </g>
</mask>
<clipPath id="clip48">
  <rect x="0" y="0" width="150" height="150"/>
</clipPath>
<g id="surface146" clip-path="url(#clip48)">
<path style=" stroke:none;fill-rule:evenodd;fill:rgb(21.176471%,21.568627%,21.960784%);fill-opacity:1;" d="M 40.375 74.625 C 39.257812 75.109375 38.089844 75.441406 36.875 75.625 C 36.828125 76.234375 36.996094 76.777344 37.375 77.25 C 37.023438 77.398438 36.691406 77.355469 36.375 77.125 C 36.109375 77.945312 36.441406 78.363281 37.375 78.375 C 37.375 78.707031 37.375 79.042969 37.375 79.375 C 37.011719 79.390625 36.675781 79.308594 36.375 79.125 C 35.707031 78.789062 35.125 78.332031 34.625 77.75 C 32.964844 77.617188 32.714844 76.949219 33.875 75.75 C 33.300781 73.941406 33.96875 73.066406 35.875 73.125 C 35.847656 72.523438 36.097656 72.066406 36.625 71.75 C 37.488281 71.46875 38.199219 71.675781 38.75 72.375 C 39.046875 71.910156 39.460938 71.660156 40 71.625 C 41.34375 72.445312 41.46875 73.445312 40.375 74.625 Z M 40.375 74.625 "/>
</g>
<mask id="mask48">
  <g filter="url(#alpha)">
<rect x="0" y="0" width="150" height="150" style="fill:rgb(0%,0%,0%);fill-opacity:0.839216;stroke:none;"/>
  </g>
</mask>
<clipPath id="clip49">
  <rect x="0" y="0" width="150" height="150"/>
</clipPath>
<g id="surface149" clip-path="url(#clip49)">
<path style=" stroke:none;fill-rule:evenodd;fill:rgb(41.176471%,41.960784%,43.529412%);fill-opacity:1;" d="M 109.125 71.125 C 109.042969 71.679688 109.210938 72.140625 109.625 72.5 C 110.382812 73 111.21875 73.210938 112.125 73.125 C 112.210938 73.714844 112.335938 74.296875 112.5 74.875 C 113.042969 74.996094 113.503906 75.246094 113.875 75.625 C 113.769531 75.917969 113.605469 76.167969 113.375 76.375 C 112.402344 76.40625 111.734375 76.863281 111.375 77.75 C 111.804688 79.324219 112.304688 80.867188 112.875 82.375 C 111.695312 82.800781 110.609375 82.632812 109.625 81.875 C 109.898438 80.804688 109.898438 79.722656 109.625 78.625 C 109.109375 78.621094 108.609375 78.539062 108.125 78.375 C 107.410156 77.601562 107.203125 76.683594 107.5 75.625 C 108.289062 74.160156 108.828125 72.660156 109.125 71.125 Z M 109.125 71.125 "/>
</g>
<mask id="mask49">
  <g filter="url(#alpha)">
<rect x="0" y="0" width="150" height="150" style="fill:rgb(0%,0%,0%);fill-opacity:0.839216;stroke:none;"/>
  </g>
</mask>
<clipPath id="clip50">
  <rect x="0" y="0" width="150" height="150"/>
</clipPath>
<g id="surface152" clip-path="url(#clip50)">
<path style=" stroke:none;fill-rule:evenodd;fill:rgb(21.568627%,21.960784%,22.352941%);fill-opacity:1;" d="M 108.125 78.375 C 108.609375 78.539062 109.109375 78.621094 109.625 78.625 C 109.898438 79.722656 109.898438 80.804688 109.625 81.875 C 109.175781 81.839844 108.761719 81.925781 108.375 82.125 C 108.050781 81.984375 107.84375 81.734375 107.75 81.375 C 107.519531 80.316406 107.644531 79.316406 108.125 78.375 Z M 108.125 78.375 "/>
</g>
<mask id="mask50">
  <g filter="url(#alpha)">
<rect x="0" y="0" width="150" height="150" style="fill:rgb(0%,0%,0%);fill-opacity:0.839216;stroke:none;"/>
  </g>
</mask>
<clipPath id="clip51">
  <rect x="0" y="0" width="150" height="150"/>
</clipPath>
<g id="surface155" clip-path="url(#clip51)">
<path style=" stroke:none;fill-rule:evenodd;fill:rgb(73.333333%,74.509804%,78.039216%);fill-opacity:1;" d="M 96.125 78.375 C 96.523438 79.191406 97.105469 79.855469 97.875 80.375 C 87.113281 80.53125 76.363281 80.53125 65.625 80.375 C 65.273438 79.761719 65.355469 79.222656 65.875 78.75 C 76 78.707031 86.082031 78.582031 96.125 78.375 Z M 96.125 78.375 "/>
</g>
<mask id="mask51">
  <g filter="url(#alpha)">
<rect x="0" y="0" width="150" height="150" style="fill:rgb(0%,0%,0%);fill-opacity:0.839216;stroke:none;"/>
  </g>
</mask>
<clipPath id="clip52">
  <rect x="0" y="0" width="150" height="150"/>
</clipPath>
<g id="surface158" clip-path="url(#clip52)">
<path style=" stroke:none;fill-rule:evenodd;fill:rgb(93.72549%,94.117647%,95.294118%);fill-opacity:1;" d="M 48.125 57.875 C 48.292969 65.835938 48.457031 73.835938 48.625 81.875 C 50.234375 81.277344 51.734375 80.488281 53.125 79.5 C 54.863281 78.179688 56.113281 76.511719 56.875 74.5 C 56.671875 74.421875 56.507812 74.296875 56.375 74.125 C 55.898438 72.660156 55.773438 71.160156 56 69.625 C 56.125 69.5 56.25 69.375 56.375 69.25 C 57.710938 69.132812 59.042969 69.007812 60.375 68.875 C 61.171875 68.761719 61.796875 69.011719 62.25 69.625 C 62.417969 71.125 62.417969 72.625 62.25 74.125 C 60.707031 74.476562 59.164062 74.8125 57.625 75.125 C 57.539062 75.71875 57.496094 76.300781 57.5 76.875 C 62.109375 75.316406 63.859375 76.898438 62.75 81.625 C 62.625 81.75 62.5 81.875 62.375 82 C 60.542969 82.167969 58.707031 82.167969 56.875 82 C 56.496094 81.351562 56.285156 80.644531 56.25 79.875 C 54.816406 82.808594 52.691406 85.097656 49.875 86.75 C 50.105469 86.820312 50.269531 86.945312 50.375 87.125 C 50.125 87.125 49.875 87.125 49.625 87.125 C 49.625 86.957031 49.542969 86.875 49.375 86.875 C 48.421875 85.429688 47.753906 83.847656 47.375 82.125 C 47.625 82.125 47.875 82.125 48.125 82.125 C 48.125 74.042969 48.125 65.957031 48.125 57.875 Z M 48.125 57.875 "/>
</g>
<mask id="mask52">
  <g filter="url(#alpha)">
<rect x="0" y="0" width="150" height="150" style="fill:rgb(0%,0%,0%);fill-opacity:0.839216;stroke:none;"/>
  </g>
</mask>
<clipPath id="clip53">
  <rect x="0" y="0" width="150" height="150"/>
</clipPath>
<g id="surface161" clip-path="url(#clip53)">
<path style=" stroke:none;fill-rule:evenodd;fill:rgb(72.54902%,73.72549%,77.254902%);fill-opacity:1;" d="M 57.875 77.375 C 59.128906 77.332031 60.378906 77.375 61.625 77.5 C 61.867188 78.769531 61.953125 80.058594 61.875 81.375 C 60.371094 81.417969 58.871094 81.375 57.375 81.25 C 57.074219 80.148438 56.949219 79.023438 57 77.875 C 57.324219 77.730469 57.617188 77.5625 57.875 77.375 Z M 57.875 77.375 "/>
</g>
<mask id="mask53">
  <g filter="url(#alpha)">
<rect x="0" y="0" width="150" height="150" style="fill:rgb(0%,0%,0%);fill-opacity:0.839216;stroke:none;"/>
  </g>
</mask>
<clipPath id="clip54">
  <rect x="0" y="0" width="150" height="150"/>
</clipPath>
<g id="surface164" clip-path="url(#clip54)">
<path style=" stroke:none;fill-rule:evenodd;fill:rgb(73.72549%,74.901961%,78.431373%);fill-opacity:1;" d="M 58.625 69.625 C 59.460938 69.582031 60.296875 69.625 61.125 69.75 C 61.25 69.875 61.375 70 61.5 70.125 C 61.699219 71.355469 61.660156 72.5625 61.375 73.75 C 60.691406 73.953125 60.027344 73.914062 59.375 73.625 C 59.660156 72.847656 59.578125 72.097656 59.125 71.375 C 59.304688 70.816406 59.636719 70.359375 60.125 70 C 60.042969 69.957031 59.957031 69.917969 59.875 69.875 C 58.628906 70.660156 57.589844 71.660156 56.75 72.875 C 56.625 71.878906 56.582031 70.878906 56.625 69.875 C 57.347656 69.953125 58.011719 69.867188 58.625 69.625 Z M 58.625 69.625 "/>
</g>
<mask id="mask54">
  <g filter="url(#alpha)">
<rect x="0" y="0" width="150" height="150" style="fill:rgb(0%,0%,0%);fill-opacity:0.839216;stroke:none;"/>
  </g>
</mask>
<clipPath id="clip55">
  <rect x="0" y="0" width="150" height="150"/>
</clipPath>
<g id="surface167" clip-path="url(#clip55)">
<path style=" stroke:none;fill-rule:evenodd;fill:rgb(72.941176%,74.117647%,77.254902%);fill-opacity:1;" d="M 99.375 78.875 C 101.210938 78.832031 103.042969 78.875 104.875 79 C 105.214844 79.484375 105.132812 79.902344 104.625 80.25 C 102.878906 80.375 101.128906 80.417969 99.375 80.375 C 99.375 79.875 99.375 79.375 99.375 78.875 Z M 99.375 78.875 "/>
</g>
<mask id="mask55">
  <g filter="url(#alpha)">
<rect x="0" y="0" width="150" height="150" style="fill:rgb(0%,0%,0%);fill-opacity:0.839216;stroke:none;"/>
  </g>
</mask>
<clipPath id="clip56">
  <rect x="0" y="0" width="150" height="150"/>
</clipPath>
<g id="surface170" clip-path="url(#clip56)">
<path style=" stroke:none;fill-rule:evenodd;fill:rgb(96.470588%,96.470588%,97.254902%);fill-opacity:1;" d="M 40.375 74.625 C 40.773438 75.523438 41.148438 76.441406 41.5 77.375 C 42.164062 79.246094 41.539062 80.164062 39.625 80.125 C 39.460938 81.117188 39.375 82.117188 39.375 83.125 C 38.125 84.0625 36.707031 84.355469 35.125 84 C 34.984375 83.902344 34.902344 83.777344 34.875 83.625 C 35.234375 82.074219 35.734375 80.574219 36.375 79.125 C 36.675781 79.308594 37.011719 79.390625 37.375 79.375 C 37.375 79.042969 37.375 78.707031 37.375 78.375 C 36.441406 78.363281 36.109375 77.945312 36.375 77.125 C 36.691406 77.355469 37.023438 77.398438 37.375 77.25 C 36.996094 76.777344 36.828125 76.234375 36.875 75.625 C 38.089844 75.441406 39.257812 75.109375 40.375 74.625 Z M 40.375 74.625 "/>
</g>
<mask id="mask56">
  <g filter="url(#alpha)">
<rect x="0" y="0" width="150" height="150" style="fill:rgb(0%,0%,0%);fill-opacity:0.839216;stroke:none;"/>
  </g>
</mask>
<clipPath id="clip57">
  <rect x="0" y="0" width="150" height="150"/>
</clipPath>
<g id="surface173" clip-path="url(#clip57)">
<path style=" stroke:none;fill-rule:evenodd;fill:rgb(96.078431%,87.058824%,34.117647%);fill-opacity:1;" d="M 109.625 81.875 C 110.609375 82.632812 111.695312 82.800781 112.875 82.375 C 113.722656 82.632812 114.390625 83.132812 114.875 83.875 C 114.382812 83.816406 113.925781 83.898438 113.5 84.125 C 113.332031 84.875 113.332031 85.625 113.5 86.375 C 113.800781 87.136719 114.089844 87.886719 114.375 88.625 C 114.046875 89.769531 113.878906 90.9375 113.875 92.125 C 113.628906 93.074219 113.546875 94.074219 113.625 95.125 C 113.300781 95.066406 113.050781 95.148438 112.875 95.375 C 112.152344 95.738281 111.734375 96.320312 111.625 97.125 C 110.558594 97.34375 109.472656 97.425781 108.375 97.375 C 107.875 95.804688 107.335938 94.222656 106.75 92.625 C 106.328125 91.609375 105.785156 90.691406 105.125 89.875 C 105.195312 88.070312 105.695312 86.40625 106.625 84.875 C 107.144531 83.914062 107.730469 83 108.375 82.125 C 108.761719 81.925781 109.175781 81.839844 109.625 81.875 Z M 109.625 81.875 "/>
</g>
<mask id="mask57">
  <g filter="url(#alpha)">
<rect x="0" y="0" width="150" height="150" style="fill:rgb(0%,0%,0%);fill-opacity:0.839216;stroke:none;"/>
  </g>
</mask>
<clipPath id="clip58">
  <rect x="0" y="0" width="150" height="150"/>
</clipPath>
<g id="surface176" clip-path="url(#clip58)">
<path style=" stroke:none;fill-rule:evenodd;fill:rgb(96.470588%,87.45098%,34.509804%);fill-opacity:1;" d="M 47.375 82.125 C 47.753906 83.847656 48.421875 85.429688 49.375 86.875 C 48.679688 86.929688 48.011719 86.847656 47.375 86.625 C 47.042969 86.625 46.707031 86.625 46.375 86.625 C 46.414062 86.363281 46.371094 86.113281 46.25 85.875 C 45.566406 86.070312 44.855469 86.195312 44.125 86.25 C 43.761719 86.949219 43.179688 87.324219 42.375 87.375 C 41.394531 87.460938 40.4375 87.628906 39.5 87.875 C 38.964844 89.355469 38.503906 90.855469 38.125 92.375 C 37.746094 92.378906 37.453125 92.542969 37.25 92.875 C 37.015625 93.53125 36.808594 94.195312 36.625 94.875 C 34.757812 95.964844 32.757812 96.339844 30.625 96 C 30.265625 95.90625 30.015625 95.699219 29.875 95.375 C 29.917969 94.207031 29.875 93.039062 29.75 91.875 C 29.386719 92.359375 29.09375 92.859375 28.875 93.375 C 27.761719 92.859375 26.597656 92.484375 25.375 92.25 C 25.0625 92.144531 24.894531 91.9375 24.875 91.625 C 26.523438 86.808594 29.855469 84.140625 34.875 83.625 C 34.902344 83.777344 34.984375 83.902344 35.125 84 C 36.707031 84.355469 38.125 84.0625 39.375 83.125 C 40.839844 83.207031 42.257812 83.121094 43.625 82.875 C 44.921875 82.8125 46.171875 82.5625 47.375 82.125 Z M 47.375 82.125 "/>
</g>
<mask id="mask58">
  <g filter="url(#alpha)">
<rect x="0" y="0" width="150" height="150" style="fill:rgb(0%,0%,0%);fill-opacity:0.839216;stroke:none;"/>
  </g>
</mask>
<clipPath id="clip59">
  <rect x="0" y="0" width="150" height="150"/>
</clipPath>
<g id="surface179" clip-path="url(#clip59)">
<path style=" stroke:none;fill-rule:evenodd;fill:rgb(65.098039%,65.882353%,67.843137%);fill-opacity:1;" d="M 47.375 86.625 C 47.375 86.792969 47.375 86.957031 47.375 87.125 C 47.394531 87.484375 47.3125 87.816406 47.125 88.125 C 45.550781 88.375 43.96875 88.457031 42.375 88.375 C 42.375 88.042969 42.375 87.707031 42.375 87.375 C 43.179688 87.324219 43.761719 86.949219 44.125 86.25 C 44.855469 86.195312 45.566406 86.070312 46.25 85.875 C 46.371094 86.113281 46.414062 86.363281 46.375 86.625 C 46.707031 86.625 47.042969 86.625 47.375 86.625 Z M 47.375 86.625 "/>
</g>
<mask id="mask59">
  <g filter="url(#alpha)">
<rect x="0" y="0" width="150" height="150" style="fill:rgb(0%,0%,0%);fill-opacity:0.839216;stroke:none;"/>
  </g>
</mask>
<clipPath id="clip60">
  <rect x="0" y="0" width="150" height="150"/>
</clipPath>
<g id="surface182" clip-path="url(#clip60)">
<path style=" stroke:none;fill-rule:evenodd;fill:rgb(72.941176%,74.117647%,77.647059%);fill-opacity:1;" d="M 58.375 86.125 C 59.378906 86.082031 60.378906 86.125 61.375 86.25 C 61.5 86.375 61.625 86.5 61.75 86.625 C 61.949219 87.855469 61.910156 89.0625 61.625 90.25 C 60.292969 90.417969 58.957031 90.417969 57.625 90.25 C 57.5 90.125 57.375 90 57.25 89.875 C 57.023438 88.796875 56.941406 87.710938 57 86.625 C 57.488281 86.472656 57.945312 86.304688 58.375 86.125 Z M 58.375 86.125 "/>
</g>
<mask id="mask60">
  <g filter="url(#alpha)">
<rect x="0" y="0" width="150" height="150" style="fill:rgb(0%,0%,0%);fill-opacity:0.839216;stroke:none;"/>
  </g>
</mask>
<clipPath id="clip61">
  <rect x="0" y="0" width="150" height="150"/>
</clipPath>
<g id="surface185" clip-path="url(#clip61)">
<path style=" stroke:none;fill-rule:evenodd;fill:rgb(41.960784%,42.745098%,44.313725%);fill-opacity:1;" d="M 99.375 78.875 C 99.375 79.375 99.375 79.875 99.375 80.375 C 98.890625 81.382812 98.765625 82.464844 99 83.625 C 99.625 85.871094 101.085938 86.914062 103.375 86.75 C 104.621094 86.375 105.703125 85.75 106.625 84.875 C 105.695312 86.40625 105.195312 88.070312 105.125 89.875 C 103.265625 90.351562 101.515625 90.101562 99.875 89.125 C 99.457031 88.542969 98.957031 88.042969 98.375 87.625 C 96.910156 85.304688 96.742188 82.886719 97.875 80.375 C 97.105469 79.855469 96.523438 79.191406 96.125 78.375 C 96.085938 77.867188 96.125 77.367188 96.25 76.875 C 96.351562 76.761719 96.476562 76.675781 96.625 76.625 C 96.910156 77.484375 97.410156 78.191406 98.125 78.75 C 98.332031 78.921875 98.5 78.878906 98.625 78.625 C 98.351562 78.347656 98.351562 78.097656 98.625 77.875 C 98.996094 78.117188 99.246094 78.449219 99.375 78.875 Z M 99.375 78.875 "/>
</g>
<mask id="mask61">
  <g filter="url(#alpha)">
<rect x="0" y="0" width="150" height="150" style="fill:rgb(0%,0%,0%);fill-opacity:0.839216;stroke:none;"/>
  </g>
</mask>
<clipPath id="clip62">
  <rect x="0" y="0" width="150" height="150"/>
</clipPath>
<g id="surface188" clip-path="url(#clip62)">
<path style=" stroke:none;fill-rule:evenodd;fill:rgb(60.392157%,56.078431%,32.156863%);fill-opacity:1;" d="M 47.375 86.625 C 48.011719 86.847656 48.679688 86.929688 49.375 86.875 C 49.542969 86.875 49.625 86.957031 49.625 87.125 C 48.875 87.125 48.125 87.125 47.375 87.125 C 47.375 86.957031 47.375 86.792969 47.375 86.625 Z M 47.375 86.625 "/>
</g>
<mask id="mask62">
  <g filter="url(#alpha)">
<rect x="0" y="0" width="150" height="150" style="fill:rgb(0%,0%,0%);fill-opacity:0.839216;stroke:none;"/>
  </g>
</mask>
<clipPath id="clip63">
  <rect x="0" y="0" width="150" height="150"/>
</clipPath>
<g id="surface191" clip-path="url(#clip63)">
<path style=" stroke:none;fill-rule:evenodd;fill:rgb(41.176471%,41.960784%,43.137255%);fill-opacity:1;" d="M 114.875 83.875 C 115.832031 84.625 116.667969 85.5 117.375 86.5 C 117.613281 86.621094 117.863281 86.664062 118.125 86.625 C 118.050781 86.789062 117.964844 86.953125 117.875 87.125 C 118.929688 88.570312 119.722656 90.152344 120.25 91.875 C 120.839844 95.164062 119.464844 96.996094 116.125 97.375 C 116.125 97.625 116.125 97.875 116.125 98.125 C 115.316406 97.777344 114.484375 97.484375 113.625 97.25 C 112.964844 97.125 112.296875 97.085938 111.625 97.125 C 111.734375 96.320312 112.152344 95.738281 112.875 95.375 C 113.207031 95.375 113.542969 95.375 113.875 95.375 C 113.875 94.292969 113.875 93.207031 113.875 92.125 C 113.878906 90.9375 114.046875 89.769531 114.375 88.625 C 114.089844 87.886719 113.800781 87.136719 113.5 86.375 C 113.332031 85.625 113.332031 84.875 113.5 84.125 C 113.925781 83.898438 114.382812 83.816406 114.875 83.875 Z M 114.875 83.875 "/>
</g>
<mask id="mask63">
  <g filter="url(#alpha)">
<rect x="0" y="0" width="150" height="150" style="fill:rgb(0%,0%,0%);fill-opacity:0.839216;stroke:none;"/>
  </g>
</mask>
<clipPath id="clip64">
  <rect x="0" y="0" width="150" height="150"/>
</clipPath>
<g id="surface194" clip-path="url(#clip64)">
<path style=" stroke:none;fill-rule:evenodd;fill:rgb(20.784314%,20.784314%,21.176471%);fill-opacity:1;" d="M 47.375 87.125 C 48.125 87.125 48.875 87.125 49.625 87.125 C 49.875 87.125 50.125 87.125 50.375 87.125 C 49.847656 88.683594 49.179688 90.183594 48.375 91.625 C 47.996094 92.046875 47.746094 92.546875 47.625 93.125 C 46.527344 95.066406 45.359375 96.984375 44.125 98.875 C 43.5625 99.117188 42.980469 99.203125 42.375 99.125 C 41.625 99.125 40.875 99.125 40.125 99.125 C 38.875 99.125 37.625 99.125 36.375 99.125 C 36.386719 98.257812 36.554688 97.425781 36.875 96.625 C 37.671875 96.078125 38.464844 95.492188 39.25 94.875 C 39.546875 95.183594 39.835938 95.183594 40.125 94.875 C 40.160156 94.523438 40.160156 94.148438 40.125 93.75 C 40.417969 93.644531 40.667969 93.480469 40.875 93.25 C 40.003906 92.835938 39.089844 92.542969 38.125 92.375 C 38.503906 90.855469 38.964844 89.355469 39.5 87.875 C 40.4375 87.628906 41.394531 87.460938 42.375 87.375 C 42.375 87.707031 42.375 88.042969 42.375 88.375 C 43.96875 88.457031 45.550781 88.375 47.125 88.125 C 47.3125 87.816406 47.394531 87.484375 47.375 87.125 Z M 47.375 87.125 "/>
</g>
<mask id="mask64">
  <g filter="url(#alpha)">
<rect x="0" y="0" width="150" height="150" style="fill:rgb(0%,0%,0%);fill-opacity:0.839216;stroke:none;"/>
  </g>
</mask>
<clipPath id="clip65">
  <rect x="0" y="0" width="150" height="150"/>
</clipPath>
<g id="surface197" clip-path="url(#clip65)">
<path style=" stroke:none;fill-rule:evenodd;fill:rgb(73.72549%,74.901961%,78.039216%);fill-opacity:1;" d="M 98.375 87.625 C 98.957031 88.042969 99.457031 88.542969 99.875 89.125 C 88.398438 89.339844 76.941406 89.339844 65.5 89.125 C 65.277344 88.492188 65.402344 87.953125 65.875 87.5 C 76.710938 87.324219 87.542969 87.367188 98.375 87.625 Z M 98.375 87.625 "/>
</g>
<mask id="mask65">
  <g filter="url(#alpha)">
<rect x="0" y="0" width="150" height="150" style="fill:rgb(0%,0%,0%);fill-opacity:0.839216;stroke:none;"/>
  </g>
</mask>
<clipPath id="clip66">
  <rect x="0" y="0" width="150" height="150"/>
</clipPath>
<g id="surface200" clip-path="url(#clip66)">
<path style=" stroke:none;fill-rule:evenodd;fill:rgb(70.980392%,72.156863%,75.294118%);fill-opacity:1;" d="M 115.625 89.125 C 117.257812 90.390625 117.882812 92.058594 117.5 94.125 C 117.242188 94.757812 116.785156 95.175781 116.125 95.375 C 115.71875 93.3125 115.554688 91.230469 115.625 89.125 Z M 115.625 89.125 "/>
</g>
<mask id="mask66">
  <g filter="url(#alpha)">
<rect x="0" y="0" width="150" height="150" style="fill:rgb(0%,0%,0%);fill-opacity:0.839216;stroke:none;"/>
  </g>
</mask>
<clipPath id="clip67">
  <rect x="0" y="0" width="150" height="150"/>
</clipPath>
<g id="surface203" clip-path="url(#clip67)">
<path style=" stroke:none;fill-rule:evenodd;fill:rgb(96.470588%,96.078431%,96.862745%);fill-opacity:1;" d="M 24.875 91.625 C 24.894531 91.9375 25.0625 92.144531 25.375 92.25 C 26.597656 92.484375 27.761719 92.859375 28.875 93.375 C 28.878906 94.230469 29.210938 94.898438 29.875 95.375 C 30.015625 95.699219 30.265625 95.90625 30.625 96 C 32.757812 96.339844 34.757812 95.964844 36.625 94.875 C 36.808594 94.195312 37.015625 93.53125 37.25 92.875 C 37.453125 92.542969 37.746094 92.378906 38.125 92.375 C 39.089844 92.542969 40.003906 92.835938 40.875 93.25 C 40.667969 93.480469 40.417969 93.644531 40.125 93.75 C 40.160156 94.148438 40.160156 94.523438 40.125 94.875 C 39.835938 95.183594 39.546875 95.183594 39.25 94.875 C 38.464844 95.492188 37.671875 96.078125 36.875 96.625 C 34.714844 97.875 32.378906 98.625 29.875 98.875 C 28.898438 98.933594 27.980469 98.726562 27.125 98.25 C 25.003906 96.464844 24.253906 94.257812 24.875 91.625 Z M 24.875 91.625 "/>
</g>
<mask id="mask67">
  <g filter="url(#alpha)">
<rect x="0" y="0" width="150" height="150" style="fill:rgb(0%,0%,0%);fill-opacity:0.839216;stroke:none;"/>
  </g>
</mask>
<clipPath id="clip68">
  <rect x="0" y="0" width="150" height="150"/>
</clipPath>
<g id="surface206" clip-path="url(#clip68)">
<path style=" stroke:none;fill-rule:evenodd;fill:rgb(83.529412%,84.313725%,87.058824%);fill-opacity:1;" d="M 48.375 91.625 C 48.332031 98.957031 48.375 106.292969 48.5 113.625 C 48.695312 114.070312 48.988281 114.445312 49.375 114.75 C 58.617188 115.15625 67.867188 115.238281 77.125 115 C 84.960938 114.683594 92.792969 114.351562 100.625 114 C 101.949219 114.007812 103.199219 113.800781 104.375 113.375 C 104.375 113.625 104.375 113.875 104.375 114.125 C 104.375 114.457031 104.375 114.792969 104.375 115.125 C 91.136719 115.871094 77.886719 116.371094 64.625 116.625 C 59.28125 116.628906 53.949219 116.421875 48.625 116 C 48.167969 115.875 47.875 115.582031 47.75 115.125 C 47.625 107.792969 47.582031 100.457031 47.625 93.125 C 47.746094 92.546875 47.996094 92.046875 48.375 91.625 Z M 48.375 91.625 "/>
</g>
<mask id="mask68">
  <g filter="url(#alpha)">
<rect x="0" y="0" width="150" height="150" style="fill:rgb(0%,0%,0%);fill-opacity:0.839216;stroke:none;"/>
  </g>
</mask>
<clipPath id="clip69">
  <rect x="0" y="0" width="150" height="150"/>
</clipPath>
<g id="surface209" clip-path="url(#clip69)">
<path style=" stroke:none;fill-rule:evenodd;fill:rgb(77.254902%,76.470588%,72.156863%);fill-opacity:1;" d="M 29.875 95.375 C 29.210938 94.898438 28.878906 94.230469 28.875 93.375 C 29.09375 92.859375 29.386719 92.359375 29.75 91.875 C 29.875 93.039062 29.917969 94.207031 29.875 95.375 Z M 29.875 95.375 "/>
</g>
<mask id="mask69">
  <g filter="url(#alpha)">
<rect x="0" y="0" width="150" height="150" style="fill:rgb(0%,0%,0%);fill-opacity:0.839216;stroke:none;"/>
  </g>
</mask>
<clipPath id="clip70">
  <rect x="0" y="0" width="150" height="150"/>
</clipPath>
<g id="surface212" clip-path="url(#clip70)">
<path style=" stroke:none;fill-rule:evenodd;fill:rgb(45.882353%,46.666667%,48.627451%);fill-opacity:1;" d="M 47.625 93.125 C 47.582031 100.457031 47.625 107.792969 47.75 115.125 C 47.875 115.582031 48.167969 115.875 48.625 116 C 53.949219 116.421875 59.28125 116.628906 64.625 116.625 C 77.886719 116.371094 91.136719 115.871094 104.375 115.125 C 105.125 116.457031 105.875 117.792969 106.625 119.125 C 88.496094 119.210938 70.371094 119.460938 52.25 119.875 C 49.792969 119.832031 47.332031 119.792969 44.875 119.75 C 44.578125 119.476562 44.242188 119.269531 43.875 119.125 C 43.167969 118.539062 42.710938 117.789062 42.5 116.875 C 42.375 110.960938 42.332031 105.042969 42.375 99.125 C 42.980469 99.203125 43.5625 99.117188 44.125 98.875 C 45.359375 96.984375 46.527344 95.066406 47.625 93.125 Z M 47.625 93.125 "/>
</g>
<mask id="mask70">
  <g filter="url(#alpha)">
<rect x="0" y="0" width="150" height="150" style="fill:rgb(0%,0%,0%);fill-opacity:0.839216;stroke:none;"/>
  </g>
</mask>
<clipPath id="clip71">
  <rect x="0" y="0" width="150" height="150"/>
</clipPath>
<g id="surface215" clip-path="url(#clip71)">
<path style=" stroke:none;fill-rule:evenodd;fill:rgb(62.745098%,60%,43.137255%);fill-opacity:1;" d="M 113.875 92.125 C 113.875 93.207031 113.875 94.292969 113.875 95.375 C 113.542969 95.375 113.207031 95.375 112.875 95.375 C 113.050781 95.148438 113.300781 95.066406 113.625 95.125 C 113.546875 94.074219 113.628906 93.074219 113.875 92.125 Z M 113.875 92.125 "/>
</g>
<mask id="mask71">
  <g filter="url(#alpha)">
<rect x="0" y="0" width="150" height="150" style="fill:rgb(0%,0%,0%);fill-opacity:0.839216;stroke:none;"/>
  </g>
</mask>
<clipPath id="clip72">
  <rect x="0" y="0" width="150" height="150"/>
</clipPath>
<g id="surface218" clip-path="url(#clip72)">
<path style=" stroke:none;fill-rule:evenodd;fill:rgb(73.333333%,74.509804%,78.039216%);fill-opacity:1;" d="M 65.875 96.125 C 78.792969 96.179688 91.707031 96.304688 104.625 96.5 C 105.292969 96.917969 105.292969 97.332031 104.625 97.75 C 91.625 98.070312 78.625 98.152344 65.625 98 C 65.269531 97.3125 65.355469 96.6875 65.875 96.125 Z M 65.875 96.125 "/>
</g>
<mask id="mask72">
  <g filter="url(#alpha)">
<rect x="0" y="0" width="150" height="150" style="fill:rgb(0%,0%,0%);fill-opacity:0.839216;stroke:none;"/>
  </g>
</mask>
<clipPath id="clip73">
  <rect x="0" y="0" width="150" height="150"/>
</clipPath>
<g id="surface221" clip-path="url(#clip73)">
<path style=" stroke:none;fill-rule:evenodd;fill:rgb(96.078431%,87.45098%,34.117647%);fill-opacity:1;" d="M 36.875 96.625 C 36.554688 97.425781 36.386719 98.257812 36.375 99.125 C 37.625 99.125 38.875 99.125 40.125 99.125 C 39.871094 100.808594 39.539062 102.476562 39.125 104.125 C 36.15625 104.882812 33.15625 105.046875 30.125 104.625 C 30.121094 102.703125 30.035156 100.789062 29.875 98.875 C 32.378906 98.625 34.714844 97.875 36.875 96.625 Z M 36.875 96.625 "/>
</g>
<mask id="mask73">
  <g filter="url(#alpha)">
<rect x="0" y="0" width="150" height="150" style="fill:rgb(0%,0%,0%);fill-opacity:0.839216;stroke:none;"/>
  </g>
</mask>
<clipPath id="clip74">
  <rect x="0" y="0" width="150" height="150"/>
</clipPath>
<g id="surface224" clip-path="url(#clip74)">
<path style=" stroke:none;fill-rule:evenodd;fill:rgb(91.764706%,92.156863%,93.333333%);fill-opacity:1;" d="M 58.625 94.125 C 59.792969 94.082031 60.960938 94.125 62.125 94.25 C 62.25 94.375 62.375 94.5 62.5 94.625 C 64.003906 99.453125 62.296875 101.160156 57.375 99.75 C 57.015625 99.632812 56.726562 99.425781 56.5 99.125 C 56.324219 97.707031 56.242188 96.289062 56.25 94.875 C 57.011719 94.496094 57.804688 94.246094 58.625 94.125 Z M 58.625 94.125 "/>
</g>
<mask id="mask74">
  <g filter="url(#alpha)">
<rect x="0" y="0" width="150" height="150" style="fill:rgb(0%,0%,0%);fill-opacity:0.839216;stroke:none;"/>
  </g>
</mask>
<clipPath id="clip75">
  <rect x="0" y="0" width="150" height="150"/>
</clipPath>
<g id="surface227" clip-path="url(#clip75)">
<path style=" stroke:none;fill-rule:evenodd;fill:rgb(72.941176%,74.117647%,77.647059%);fill-opacity:1;" d="M 58.625 94.875 C 59.546875 94.832031 60.460938 94.875 61.375 95 C 61.5 95.125 61.625 95.25 61.75 95.375 C 61.949219 96.605469 61.910156 97.8125 61.625 99 C 60.292969 99.167969 58.957031 99.167969 57.625 99 C 56.980469 97.886719 56.769531 96.675781 57 95.375 C 57.570312 95.222656 58.109375 95.054688 58.625 94.875 Z M 58.625 94.875 "/>
</g>
<mask id="mask75">
  <g filter="url(#alpha)">
<rect x="0" y="0" width="150" height="150" style="fill:rgb(0%,0%,0%);fill-opacity:0.839216;stroke:none;"/>
  </g>
</mask>
<clipPath id="clip76">
  <rect x="0" y="0" width="150" height="150"/>
</clipPath>
<g id="surface230" clip-path="url(#clip76)">
<path style=" stroke:none;fill-rule:evenodd;fill:rgb(20.392157%,20.784314%,21.176471%);fill-opacity:1;" d="M 111.625 97.125 C 112.296875 97.085938 112.964844 97.125 113.625 97.25 C 114.484375 97.484375 115.316406 97.777344 116.125 98.125 C 116.941406 99.320312 117.355469 100.652344 117.375 102.125 C 117.1875 103.804688 116.9375 105.472656 116.625 107.125 C 115.992188 109.816406 115.328125 112.527344 114.625 115.25 C 112.453125 115.429688 110.285156 115.386719 108.125 115.125 C 106.855469 114.972656 105.605469 114.640625 104.375 114.125 C 104.375 113.875 104.375 113.625 104.375 113.375 C 105.550781 108.761719 106.839844 104.179688 108.25 99.625 C 108.375 98.878906 108.417969 98.128906 108.375 97.375 C 109.472656 97.425781 110.558594 97.34375 111.625 97.125 Z M 111.625 97.125 "/>
</g>
<mask id="mask76">
  <g filter="url(#alpha)">
<rect x="0" y="0" width="150" height="150" style="fill:rgb(0%,0%,0%);fill-opacity:0.839216;stroke:none;"/>
  </g>
</mask>
<clipPath id="clip77">
  <rect x="0" y="0" width="150" height="150"/>
</clipPath>
<g id="surface233" clip-path="url(#clip77)">
<path style=" stroke:none;fill-rule:evenodd;fill:rgb(71.764706%,72.941176%,76.470588%);fill-opacity:1;" d="M 40.125 99.125 C 40.875 99.125 41.625 99.125 42.375 99.125 C 42.332031 105.042969 42.375 110.960938 42.5 116.875 C 42.710938 117.789062 43.167969 118.539062 43.875 119.125 C 42.292969 119.125 40.707031 119.125 39.125 119.125 C 39.125 114.125 39.125 109.125 39.125 104.125 C 39.539062 102.476562 39.871094 100.808594 40.125 99.125 Z M 40.125 99.125 "/>
</g>
<mask id="mask77">
  <g filter="url(#alpha)">
<rect x="0" y="0" width="150" height="150" style="fill:rgb(0%,0%,0%);fill-opacity:0.839216;stroke:none;"/>
  </g>
</mask>
<clipPath id="clip78">
  <rect x="0" y="0" width="150" height="150"/>
</clipPath>
<g id="surface236" clip-path="url(#clip78)">
<path style=" stroke:none;fill-rule:evenodd;fill:rgb(72.941176%,74.117647%,77.647059%);fill-opacity:1;" d="M 65.625 105.125 C 78.625 105.082031 91.625 105.125 104.625 105.25 C 105.132812 105.597656 105.214844 106.015625 104.875 106.5 C 103.957031 106.582031 103.042969 106.667969 102.125 106.75 C 89.957031 106.917969 77.792969 106.917969 65.625 106.75 C 65.308594 106.210938 65.308594 105.667969 65.625 105.125 Z M 65.625 105.125 "/>
</g>
<mask id="mask78">
  <g filter="url(#alpha)">
<rect x="0" y="0" width="150" height="150" style="fill:rgb(0%,0%,0%);fill-opacity:0.839216;stroke:none;"/>
  </g>
</mask>
<clipPath id="clip79">
  <rect x="0" y="0" width="150" height="150"/>
</clipPath>
<g id="surface239" clip-path="url(#clip79)">
<path style=" stroke:none;fill-rule:evenodd;fill:rgb(91.372549%,91.764706%,93.333333%);fill-opacity:1;" d="M 58.875 102.875 C 59.878906 102.832031 60.878906 102.875 61.875 103 C 62.105469 103.09375 62.3125 103.21875 62.5 103.375 C 62.882812 104.855469 62.964844 106.355469 62.75 107.875 C 62.542969 108.082031 62.332031 108.292969 62.125 108.5 C 60.457031 108.667969 58.792969 108.667969 57.125 108.5 C 56.917969 108.292969 56.707031 108.082031 56.5 107.875 C 56.324219 106.457031 56.242188 105.039062 56.25 103.625 C 56.375 103.5 56.5 103.375 56.625 103.25 C 57.421875 103.203125 58.171875 103.078125 58.875 102.875 Z M 58.875 102.875 "/>
</g>
<mask id="mask79">
  <g filter="url(#alpha)">
<rect x="0" y="0" width="150" height="150" style="fill:rgb(0%,0%,0%);fill-opacity:0.839216;stroke:none;"/>
  </g>
</mask>
<clipPath id="clip80">
  <rect x="0" y="0" width="150" height="150"/>
</clipPath>
<g id="surface242" clip-path="url(#clip80)">
<path style=" stroke:none;fill-rule:evenodd;fill:rgb(72.54902%,73.72549%,77.254902%);fill-opacity:1;" d="M 57.125 103.875 C 58.628906 103.832031 60.128906 103.875 61.625 104 C 61.910156 105.1875 61.949219 106.394531 61.75 107.625 C 60.3125 107.910156 58.855469 107.953125 57.375 107.75 C 56.988281 106.464844 56.90625 105.171875 57.125 103.875 Z M 57.125 103.875 "/>
</g>
<mask id="mask80">
  <g filter="url(#alpha)">
<rect x="0" y="0" width="150" height="150" style="fill:rgb(0%,0%,0%);fill-opacity:0.839216;stroke:none;"/>
  </g>
</mask>
<clipPath id="clip81">
  <rect x="0" y="0" width="150" height="150"/>
</clipPath>
<g id="surface245" clip-path="url(#clip81)">
<path style=" stroke:none;fill-rule:evenodd;fill:rgb(67.058824%,68.235294%,71.372549%);fill-opacity:1;" d="M 34.375 113.625 C 34.730469 115.410156 34.980469 117.242188 35.125 119.125 C 34.792969 119.125 34.457031 119.125 34.125 119.125 C 34.105469 117.285156 34.1875 115.453125 34.375 113.625 Z M 34.375 113.625 "/>
</g>
<mask id="mask81">
  <g filter="url(#alpha)">
<rect x="0" y="0" width="150" height="150" style="fill:rgb(0%,0%,0%);fill-opacity:0.839216;stroke:none;"/>
  </g>
</mask>
<clipPath id="clip82">
  <rect x="0" y="0" width="150" height="150"/>
</clipPath>
<g id="surface248" clip-path="url(#clip82)">
<path style=" stroke:none;fill-rule:evenodd;fill:rgb(37.254902%,38.039216%,39.607843%);fill-opacity:1;" d="M 104.375 114.125 C 105.605469 114.640625 106.855469 114.972656 108.125 115.125 C 109.035156 116.113281 109.828125 117.195312 110.5 118.375 C 110.625 120.789062 110.667969 123.207031 110.625 125.625 C 109.5625 124.082031 108.5625 122.5 107.625 120.875 C 107.355469 120.25 107.023438 119.667969 106.625 119.125 C 105.875 117.792969 105.125 116.457031 104.375 115.125 C 104.375 114.792969 104.375 114.457031 104.375 114.125 Z M 104.375 114.125 "/>
</g>
<mask id="mask82">
  <g filter="url(#alpha)">
<rect x="0" y="0" width="150" height="150" style="fill:rgb(0%,0%,0%);fill-opacity:0.823529;stroke:none;"/>
  </g>
</mask>
<clipPath id="clip83">
  <rect x="0" y="0" width="150" height="150"/>
</clipPath>
<g id="surface251" clip-path="url(#clip83)">
<path style=" stroke:none;fill-rule:evenodd;fill:rgb(27.843137%,28.627451%,29.411765%);fill-opacity:1;" d="M 20.125 120.625 C 23.4375 120.871094 26.773438 120.953125 30.125 120.875 C 30.234375 122.707031 30.320312 124.539062 30.375 126.375 C 24.042969 126.417969 17.707031 126.375 11.375 126.25 C 11.042969 124.417969 11.042969 122.582031 11.375 120.75 C 14.289062 120.625 17.207031 120.582031 20.125 120.625 Z M 20.125 120.625 "/>
</g>
<mask id="mask83">
  <g filter="url(#alpha)">
<rect x="0" y="0" width="150" height="150" style="fill:rgb(0%,0%,0%);fill-opacity:0.831373;stroke:none;"/>
  </g>
</mask>
<clipPath id="clip84">
  <rect x="0" y="0" width="150" height="150"/>
</clipPath>
<g id="surface254" clip-path="url(#clip84)">
<path style=" stroke:none;fill-rule:evenodd;fill:rgb(28.235294%,28.627451%,29.411765%);fill-opacity:1;" d="M 114.375 120.375 C 116.746094 120.707031 119.203125 120.875 121.75 120.875 C 124.386719 120.871094 127.011719 120.785156 129.625 120.625 C 131.792969 120.582031 133.960938 120.625 136.125 120.75 C 136.371094 122.601562 136.453125 124.476562 136.375 126.375 C 128.707031 126.375 121.042969 126.375 113.375 126.375 C 113.214844 126.179688 113.128906 125.929688 113.125 125.625 C 113.433594 123.816406 113.847656 122.066406 114.375 120.375 Z M 114.375 120.375 "/>
</g>
<mask id="mask84">
  <g filter="url(#alpha)">
<rect x="0" y="0" width="150" height="150" style="fill:rgb(0%,0%,0%);fill-opacity:0.839216;stroke:none;"/>
  </g>
</mask>
<clipPath id="clip85">
  <rect x="0" y="0" width="150" height="150"/>
</clipPath>
<g id="surface257" clip-path="url(#clip85)">
<path style=" stroke:none;fill-rule:evenodd;fill:rgb(27.843137%,28.235294%,29.019608%);fill-opacity:1;" d="M 36.375 126.375 C 35.542969 126.375 34.707031 126.375 33.875 126.375 C 33.875 124.542969 33.875 122.707031 33.875 120.875 C 34.457031 120.875 35.042969 120.875 35.625 120.875 C 35.941406 122.699219 36.191406 124.53125 36.375 126.375 Z M 36.375 126.375 "/>
</g>
<mask id="mask85">
  <g filter="url(#alpha)">
<rect x="0" y="0" width="150" height="150" style="fill:rgb(0%,0%,0%);fill-opacity:0.839216;stroke:none;"/>
  </g>
</mask>
<clipPath id="clip86">
  <rect x="0" y="0" width="150" height="150"/>
</clipPath>
<g id="surface260" clip-path="url(#clip86)">
<path style=" stroke:none;fill-rule:evenodd;fill:rgb(28.235294%,28.627451%,29.411765%);fill-opacity:1;" d="M 107.625 120.875 C 108.5625 122.5 109.5625 124.082031 110.625 125.625 C 110.625 125.875 110.625 126.125 110.625 126.375 C 110.542969 126.375 110.457031 126.375 110.375 126.375 C 86.917969 126.125 63.417969 126.042969 39.875 126.125 C 39.875 126.375 39.875 126.625 39.875 126.875 C 39.675781 124.914062 39.507812 122.914062 39.375 120.875 C 62.125 120.875 84.875 120.875 107.625 120.875 Z M 107.625 120.875 "/>
</g>
<mask id="mask86">
  <g filter="url(#alpha)">
<rect x="0" y="0" width="150" height="150" style="fill:rgb(0%,0%,0%);fill-opacity:0.827451;stroke:none;"/>
  </g>
</mask>
<clipPath id="clip87">
  <rect x="0" y="0" width="150" height="150"/>
</clipPath>
<g id="surface263" clip-path="url(#clip87)">
<path style=" stroke:none;fill-rule:evenodd;fill:rgb(92.941176%,92.941176%,94.901961%);fill-opacity:1;" d="M 110.375 126.375 C 99.566406 132.429688 87.941406 135.429688 75.5 135.375 C 63.152344 135.082031 51.359375 132.414062 40.125 127.375 C 39.914062 127.289062 39.832031 127.121094 39.875 126.875 C 39.875 126.625 39.875 126.375 39.875 126.125 C 63.417969 126.042969 86.917969 126.125 110.375 126.375 Z M 110.375 126.375 "/>
</g>
<mask id="mask87">
  <g filter="url(#alpha)">
<rect x="0" y="0" width="150" height="150" style="fill:rgb(0%,0%,0%);fill-opacity:0.803922;stroke:none;"/>
  </g>
</mask>
<clipPath id="clip88">
  <rect x="0" y="0" width="150" height="150"/>
</clipPath>
<g id="surface266" clip-path="url(#clip88)">
<path style=" stroke:none;fill-rule:evenodd;fill:rgb(42.352941%,43.529412%,45.098039%);fill-opacity:1;" d="M 116.625 107.125 C 116.691406 109.878906 116.734375 112.628906 116.75 115.375 C 116.570312 115.988281 116.320312 116.570312 116 117.125 C 115.25 117.628906 114.789062 118.296875 114.625 119.125 C 114.386719 119.480469 114.304688 119.894531 114.375 120.375 C 113.847656 122.066406 113.433594 123.816406 113.125 125.625 C 113.128906 125.929688 113.214844 126.179688 113.375 126.375 C 113.828125 127.613281 114.410156 128.777344 115.125 129.875 C 115.167969 131.628906 115.125 133.378906 115 135.125 C 114.605469 135.464844 114.144531 135.632812 113.625 135.625 C 114.167969 133.378906 113.792969 131.292969 112.5 129.375 C 112.359375 129.972656 112.402344 130.554688 112.625 131.125 C 111.699219 132.761719 110.617188 134.304688 109.375 135.75 C 109.0625 135.933594 108.8125 135.894531 108.625 135.625 C 109.496094 134.628906 110.039062 133.460938 110.25 132.125 C 110.550781 130.21875 110.675781 128.304688 110.625 126.375 C 110.625 126.125 110.625 125.875 110.625 125.625 C 110.667969 123.207031 110.625 120.789062 110.5 118.375 C 109.828125 117.195312 109.035156 116.113281 108.125 115.125 C 110.285156 115.386719 112.453125 115.429688 114.625 115.25 C 115.328125 112.527344 115.992188 109.816406 116.625 107.125 Z M 116.625 107.125 "/>
</g>
<mask id="mask88">
  <g filter="url(#alpha)">
<rect x="0" y="0" width="150" height="150" style="fill:rgb(0%,0%,0%);fill-opacity:0.709804;stroke:none;"/>
  </g>
</mask>
<clipPath id="clip89">
  <rect x="0" y="0" width="150" height="150"/>
</clipPath>
<g id="surface269" clip-path="url(#clip89)">
<path style=" stroke:none;fill-rule:evenodd;fill:rgb(20.392157%,20.784314%,21.176471%);fill-opacity:1;" d="M 115.125 129.875 C 115.496094 129.808594 115.828125 129.894531 116.125 130.125 C 116.488281 131.351562 116.988281 132.515625 117.625 133.625 C 117.5 133.878906 117.332031 133.921875 117.125 133.75 C 116.804688 133.398438 116.511719 133.023438 116.25 132.625 C 116.164062 133.886719 116 135.136719 115.75 136.375 C 114.816406 136.613281 113.859375 136.699219 112.875 136.625 C 112.773438 136.007812 113.023438 135.671875 113.625 135.625 C 114.144531 135.632812 114.605469 135.464844 115 135.125 C 115.125 133.378906 115.167969 131.628906 115.125 129.875 Z M 115.125 129.875 "/>
</g>
<mask id="mask89">
  <g filter="url(#alpha)">
<rect x="0" y="0" width="150" height="150" style="fill:rgb(0%,0%,0%);fill-opacity:0.729412;stroke:none;"/>
  </g>
</mask>
<clipPath id="clip90">
  <rect x="0" y="0" width="150" height="150"/>
</clipPath>
<g id="surface272" clip-path="url(#clip90)">
<path style=" stroke:none;fill-rule:evenodd;fill:rgb(20.392157%,20.784314%,21.176471%);fill-opacity:1;" d="M 112.625 131.125 C 113.238281 131.21875 113.488281 131.59375 113.375 132.25 C 112.972656 133.90625 112.515625 135.53125 112 137.125 C 111.957031 136.875 111.917969 136.625 111.875 136.375 C 112.082031 135.628906 112.125 134.878906 112 134.125 C 111.574219 135.019531 111.117188 135.894531 110.625 136.75 C 109.628906 136.875 108.628906 136.917969 107.625 136.875 C 107.59375 136.160156 107.925781 135.742188 108.625 135.625 C 108.8125 135.894531 109.0625 135.933594 109.375 135.75 C 110.617188 134.304688 111.699219 132.761719 112.625 131.125 Z M 112.625 131.125 "/>
</g>
<mask id="mask90">
  <g filter="url(#alpha)">
<rect x="0" y="0" width="150" height="150" style="fill:rgb(0%,0%,0%);fill-opacity:0.8;stroke:none;"/>
  </g>
</mask>
<clipPath id="clip91">
  <rect x="0" y="0" width="150" height="150"/>
</clipPath>
<g id="surface275" clip-path="url(#clip91)">
<path style=" stroke:none;fill-rule:evenodd;fill:rgb(89.019608%,89.019608%,90.588235%);fill-opacity:1;" d="M 31.875 133.875 C 32.375 133.875 32.875 133.875 33.375 133.875 C 33.375 134.207031 33.375 134.542969 33.375 134.875 C 32.828125 135.210938 32.328125 135.128906 31.875 134.625 C 31.875 134.375 31.875 134.125 31.875 133.875 Z M 31.875 133.875 "/>
</g>
<mask id="mask91">
  <g filter="url(#alpha)">
<rect x="0" y="0" width="150" height="150" style="fill:rgb(0%,0%,0%);fill-opacity:0.839216;stroke:none;"/>
  </g>
</mask>
<clipPath id="clip92">
  <rect x="0" y="0" width="150" height="150"/>
</clipPath>
<g id="surface278" clip-path="url(#clip92)">
<path style=" stroke:none;fill-rule:evenodd;fill:rgb(92.54902%,92.54902%,93.72549%);fill-opacity:1;" d="M 40.875 133.625 C 40.875 133.875 40.875 134.125 40.875 134.375 C 40.710938 134.679688 40.421875 134.847656 40 134.875 C 39.652344 134.871094 39.363281 134.789062 39.125 134.625 C 39.125 134.457031 39.125 134.292969 39.125 134.125 C 39.628906 133.769531 40.210938 133.601562 40.875 133.625 Z M 40.875 133.625 "/>
</g>
<mask id="mask92">
  <g filter="url(#alpha)">
<rect x="0" y="0" width="150" height="150" style="fill:rgb(0%,0%,0%);fill-opacity:0.776471;stroke:none;"/>
  </g>
</mask>
<clipPath id="clip93">
  <rect x="0" y="0" width="150" height="150"/>
</clipPath>
<g id="surface281" clip-path="url(#clip93)">
<path style=" stroke:none;fill-rule:evenodd;fill:rgb(20.392157%,20.784314%,21.176471%);fill-opacity:1;" d="M 40.875 134.375 C 42.785156 135.246094 44.703125 136.121094 46.625 137 C 46.839844 137.171875 47.003906 137.378906 47.125 137.625 C 44.546875 137.917969 41.960938 137.957031 39.375 137.75 C 39.015625 137.503906 38.765625 137.167969 38.625 136.75 C 38.78125 136.015625 38.949219 135.308594 39.125 134.625 C 39.363281 134.789062 39.652344 134.871094 40 134.875 C 40.421875 134.847656 40.710938 134.679688 40.875 134.375 Z M 40.875 134.375 "/>
</g>
<mask id="mask93">
  <g filter="url(#alpha)">
<rect x="0" y="0" width="150" height="150" style="fill:rgb(0%,0%,0%);fill-opacity:0.72549;stroke:none;"/>
  </g>
</mask>
<clipPath id="clip94">
  <rect x="0" y="0" width="150" height="150"/>
</clipPath>
<g id="surface284" clip-path="url(#clip94)">
<path style=" stroke:none;fill-rule:evenodd;fill:rgb(20.784314%,20.784314%,21.568627%);fill-opacity:1;" d="M 31.875 134.625 C 32.328125 135.128906 32.828125 135.210938 33.375 134.875 C 33.613281 134.988281 33.824219 135.15625 34 135.375 C 35.289062 138.007812 34.496094 138.882812 31.625 138 C 31.355469 137.832031 31.1875 137.582031 31.125 137.25 C 31.28125 136.339844 31.53125 135.464844 31.875 134.625 Z M 31.875 134.625 "/>
</g>
</defs>
<g id="surface1">
<use xlink:href="#surface5" mask="url(#mask0)"/>
<use xlink:href="#surface8" mask="url(#mask1)"/>
<use xlink:href="#surface11" mask="url(#mask2)"/>
<use xlink:href="#surface14" mask="url(#mask3)"/>
<use xlink:href="#surface17" mask="url(#mask4)"/>
<use xlink:href="#surface20" mask="url(#mask5)"/>
<use xlink:href="#surface23" mask="url(#mask6)"/>
<use xlink:href="#surface26" mask="url(#mask7)"/>
<use xlink:href="#surface29" mask="url(#mask8)"/>
<use xlink:href="#surface32" mask="url(#mask9)"/>
<use xlink:href="#surface35" mask="url(#mask10)"/>
<use xlink:href="#surface38" mask="url(#mask11)"/>
<use xlink:href="#surface41" mask="url(#mask12)"/>
<use xlink:href="#surface44" mask="url(#mask13)"/>
<use xlink:href="#surface47" mask="url(#mask14)"/>
<use xlink:href="#surface50" mask="url(#mask15)"/>
<use xlink:href="#surface53" mask="url(#mask16)"/>
<use xlink:href="#surface56" mask="url(#mask17)"/>
<use xlink:href="#surface59" mask="url(#mask18)"/>
<use xlink:href="#surface62" mask="url(#mask19)"/>
<use xlink:href="#surface65" mask="url(#mask20)"/>
<use xlink:href="#surface68" mask="url(#mask21)"/>
<use xlink:href="#surface71" mask="url(#mask22)"/>
<use xlink:href="#surface74" mask="url(#mask23)"/>
<use xlink:href="#surface77" mask="url(#mask24)"/>
<use xlink:href="#surface80" mask="url(#mask25)"/>
<use xlink:href="#surface83" mask="url(#mask26)"/>
<use xlink:href="#surface86" mask="url(#mask27)"/>
<use xlink:href="#surface89" mask="url(#mask28)"/>
<use xlink:href="#surface92" mask="url(#mask29)"/>
<use xlink:href="#surface95" mask="url(#mask30)"/>
<use xlink:href="#surface98" mask="url(#mask31)"/>
<use xlink:href="#surface101" mask="url(#mask32)"/>
<use xlink:href="#surface104" mask="url(#mask33)"/>
<use xlink:href="#surface107" mask="url(#mask34)"/>
<use xlink:href="#surface110" mask="url(#mask35)"/>
<use xlink:href="#surface113" mask="url(#mask36)"/>
<use xlink:href="#surface116" mask="url(#mask37)"/>
<use xlink:href="#surface119" mask="url(#mask38)"/>
<use xlink:href="#surface122" mask="url(#mask39)"/>
<use xlink:href="#surface125" mask="url(#mask40)"/>
<use xlink:href="#surface128" mask="url(#mask41)"/>
<use xlink:href="#surface131" mask="url(#mask42)"/>
<use xlink:href="#surface134" mask="url(#mask43)"/>
<use xlink:href="#surface137" mask="url(#mask44)"/>
<use xlink:href="#surface140" mask="url(#mask45)"/>
<use xlink:href="#surface143" mask="url(#mask46)"/>
<use xlink:href="#surface146" mask="url(#mask47)"/>
<use xlink:href="#surface149" mask="url(#mask48)"/>
<use xlink:href="#surface152" mask="url(#mask49)"/>
<use xlink:href="#surface155" mask="url(#mask50)"/>
<use xlink:href="#surface158" mask="url(#mask51)"/>
<use xlink:href="#surface161" mask="url(#mask52)"/>
<use xlink:href="#surface164" mask="url(#mask53)"/>
<use xlink:href="#surface167" mask="url(#mask54)"/>
<use xlink:href="#surface170" mask="url(#mask55)"/>
<use xlink:href="#surface173" mask="url(#mask56)"/>
<use xlink:href="#surface176" mask="url(#mask57)"/>
<use xlink:href="#surface179" mask="url(#mask58)"/>
<use xlink:href="#surface182" mask="url(#mask59)"/>
<use xlink:href="#surface185" mask="url(#mask60)"/>
<use xlink:href="#surface188" mask="url(#mask61)"/>
<use xlink:href="#surface191" mask="url(#mask62)"/>
<use xlink:href="#surface194" mask="url(#mask63)"/>
<use xlink:href="#surface197" mask="url(#mask64)"/>
<use xlink:href="#surface200" mask="url(#mask65)"/>
<use xlink:href="#surface203" mask="url(#mask66)"/>
<use xlink:href="#surface206" mask="url(#mask67)"/>
<use xlink:href="#surface209" mask="url(#mask68)"/>
<use xlink:href="#surface212" mask="url(#mask69)"/>
<use xlink:href="#surface215" mask="url(#mask70)"/>
<use xlink:href="#surface218" mask="url(#mask71)"/>
<use xlink:href="#surface221" mask="url(#mask72)"/>
<use xlink:href="#surface224" mask="url(#mask73)"/>
<use xlink:href="#surface227" mask="url(#mask74)"/>
<use xlink:href="#surface230" mask="url(#mask75)"/>
<use xlink:href="#surface233" mask="url(#mask76)"/>
<use xlink:href="#surface236" mask="url(#mask77)"/>
<use xlink:href="#surface239" mask="url(#mask78)"/>
<use xlink:href="#surface242" mask="url(#mask79)"/>
<use xlink:href="#surface245" mask="url(#mask80)"/>
<use xlink:href="#surface248" mask="url(#mask81)"/>
<use xlink:href="#surface251" mask="url(#mask82)"/>
<use xlink:href="#surface254" mask="url(#mask83)"/>
<use xlink:href="#surface257" mask="url(#mask84)"/>
<use xlink:href="#surface260" mask="url(#mask85)"/>
<use xlink:href="#surface263" mask="url(#mask86)"/>
<use xlink:href="#surface266" mask="url(#mask87)"/>
<use xlink:href="#surface269" mask="url(#mask88)"/>
<use xlink:href="#surface272" mask="url(#mask89)"/>
<use xlink:href="#surface275" mask="url(#mask90)"/>
<use xlink:href="#surface278" mask="url(#mask91)"/>
<use xlink:href="#surface281" mask="url(#mask92)"/>
<use xlink:href="#surface284" mask="url(#mask93)"/>
</g>
</svg>
